SplineFontDB: 3.0
FontName: GUJPatel-Normal
FullName: GUJ Patel Normal
FamilyName: GUJ Patel
Weight: Book
Copyright: Copyright (c) 2009-2015, NLCI (http://www.nlci.in/fonts/)
Version: 1.000 Created on 19 March 2009
ItalicAngle: 0
UnderlinePosition: -290
UnderlineWidth: 20
Ascent: 800
Descent: 200
InvalidEm: 0
LayerCount: 2
Layer: 0 0 "Back" 1
Layer: 1 0 "Fore" 0
XUID: [1021 1008 1168222881 11799714]
FSType: 0
OS2Version: 3
OS2_WeightWidthSlopeOnly: 0
OS2_UseTypoMetrics: 1
CreationTime: 1248955740
ModificationTime: 1258716655
PfmFamily: 81
TTFWeight: 400
TTFWidth: 5
LineGap: 0
VLineGap: 0
Panose: 5 0 0 0 0 0 0 0 0 0
OS2TypoAscent: 0
OS2TypoAOffset: 1
OS2TypoDescent: -150
OS2TypoDOffset: 1
OS2TypoLinegap: 0
OS2WinAscent: -1
OS2WinAOffset: 1
OS2WinDescent: -52
OS2WinDOffset: 1
HheadAscent: -1
HheadAOffset: 1
HheadDescent: 52
HheadDOffset: 1
OS2SubXSize: 700
OS2SubYSize: 650
OS2SubXOff: 0
OS2SubYOff: 143
OS2SupXSize: 700
OS2SupYSize: 650
OS2SupXOff: 0
OS2SupYOff: 453
OS2StrikeYSize: 50
OS2StrikeYPos: 259
OS2Vendor: 'Alts'
OS2CodePages: 80000000.00000000
OS2UnicodeRanges: 00000000.00000000.00000000.00000000
Lookup: 4 0 0 "'akhn' Akhand in Gujarati lookup 0" { "'akhn' Akhand in Gujarati lookup 0 subtable"  } ['akhn' ('gujr' <'dflt' > ) ]
Lookup: 4 0 0 "'rphf' Reph Form in Gujarati lookup 1" { "'rphf' Reph Form in Gujarati lookup 1 subtable"  } ['rphf' ('gujr' <'dflt' > ) ]
Lookup: 4 0 0 "'blwf' Below Base Forms in Gujarati lookup 2" { "'blwf' Below Base Forms in Gujarati lookup 2 subtable"  } ['blwf' ('gujr' <'dflt' > ) ]
Lookup: 4 0 0 "'vatu' Vattu Variants in Gujarati lookup 3" { "'vatu' Vattu Variants in Gujarati lookup 3 subtable"  } ['vatu' ('gujr' <'dflt' > ) ]
Lookup: 4 0 0 "'half' Half Forms in Gujarati lookup 4" { "'half' Half Forms in Gujarati lookup 4 subtable"  } ['half' ('gujr' <'dflt' > ) ]
Lookup: 4 0 0 "'pres' Pre Base Substitutions in Gujarati lookup 5" { "'pres' Pre Base Substitutions in Gujarati lookup 5 subtable"  } ['pres' ('gujr' <'dflt' > ) ]

StartChar: exclam
Encoding: 4 33 4
Width: 337
Flags: HW
LayerCount: 2
Fore
SplineSet
170 108 m 256
 201.575 108 230 84.4 230 49 c 256
 230 12.9456 199.265 -12 170 -12 c 256
 140.677 -12 111 13.3115 111 49 c 256
 111 84.4 139.025 108 170 108 c 256
175 684 m 256
 213.591 684 237.114 662.681 230 620 c 1
 230 613.894 221.535 495.961 220 476 c 130
 214 397 l 2
 208.667 333.667 203 262.333 197 183 c 1
 149 183 l 1
 131 397 l 1
 125 476 l 130
 124.995 476.068 115 612.851 115 620 c 0
 115 651.6 127 684 175 684 c 256
EndSplineSet
EndChar

StartChar: quotedbl
Encoding: 5 34 5
Width: 333
Flags: HW
LayerCount: 2
Fore
SplineSet
43 664 m 1
 43 702.4 65.8 712 85 712 c 256
 112.949 712 125 693.01 125 664 c 1
 94 420 l 1
 78 420 l 1
 43 664 l 1
202 664 m 1
 202 693.074 215.101 712 243 712 c 256
 270.869 712 284 693.026 284 664 c 1
 251 420 l 1
 235 420 l 1
 202 664 l 1
EndSplineSet
EndChar

StartChar: numbersign
Encoding: 6 35 6
Width: 743
Flags: HW
LayerCount: 2
Fore
SplineSet
324 420 m 1
 275 277 l 1
 420 277 l 1
 469 420 l 1
 324 420 l 1
523 420 m 1
 477 277 l 1
 638 277 l 1
 638 228 l 1
 459 228 l 1
 376 -22 l 1
 327 -6 l 1
 404 228 l 1
 259 228 l 1
 175 -22 l 1
 127 -5 l 1
 207 228 l 1
 65 228 l 1
 65 277 l 1
 223 277 l 1
 271 420 l 1
 109 420 l 1
 109 471 l 1
 288 471 l 1
 368 706 l 1
 418 690 l 1
 341 471 l 1
 486 471 l 1
 565 706 l 1
 618 690 l 1
 542 471 l 1
 682 471 l 1
 682 420 l 1
 523 420 l 1
EndSplineSet
EndChar

StartChar: dollar
Encoding: 7 36 7
Width: 562
Flags: HW
LayerCount: 2
Fore
SplineSet
308 51 m 1
 337.925 55.4888 414 74.8 414 170 c 0
 414 240.2 368.185 268.945 308 287 c 1
 308 51 l 1
262 614 m 1
 211.029 603.806 169 567.975 169 502 c 256
 169 437.46 223.434 410.855 262 398 c 1
 262 614 l 1
308 669 m 1
 369.52 669 425.449 658.323 475 648 c 1
 475 491 l 1
 423 491 l 1
 409 596 l 1
 393.667 612.667 359.667 621 307 621 c 1
 307 383 l 1
 351 370 l 130
 465.483 335.158 497.607 277.255 505 191 c 1
 505 67.0802 369.493 6 310 6 c 1
 310 -97 l 1
 264 -97 l 1
 264 6 l 1
 234.092 6 141.202 7.6635 65 29 c 1
 65 198 l 1
 114 198 l 1
 132 87 l 1
 144.528 70.296 189.22 54 262 54 c 1
 262 306 l 1
 178.777 324.205 79 370.468 79 485 c 0
 79 629.8 228.46 662.364 263 666 c 1
 263 741 l 1
 308 741 l 1
 308 669 l 1
EndSplineSet
EndChar

StartChar: percent
Encoding: 8 37 8
Width: 859
Flags: HW
LayerCount: 2
Fore
SplineSet
188 307 m 256
 258.716 307 262 425.773 262 477 c 256
 262 528.447 258.672 647 188 647 c 256
 116.732 647 111 529.762 111 477 c 256
 111 424.023 116.767 307 188 307 c 256
676 24 m 256
 735.2 24 750 107.2 750 195 c 256
 750 246.447 746.672 365 676 365 c 256
 604.732 365 599 247.762 599 195 c 256
 599 141.948 604.59 24 676 24 c 256
187 687 m 256
 298.956 687 338 582.505 338 478 c 256
 338 373.835 298.559 270 187 270 c 256
 75.3146 270 35 376.234 35 478 c 256
 35 580.209 74.9416 687 187 687 c 256
250 1 m 1
 188 1 l 1
 612 671 l 1
 674 671 l 1
 250 1 l 1
676 403 m 256
 788.075 403 828 296.201 828 194 c 256
 828 92.2126 787.668 -14 676 -14 c 256
 564.315 -14 524 92.2343 524 194 c 256
 524 296.209 563.942 403 676 403 c 256
EndSplineSet
EndChar

StartChar: ampersand
Encoding: 9 38 9
Width: 699
Flags: HW
LayerCount: 2
Fore
SplineSet
141 212 m 0
 141 128.206 198.6 58 285 58 c 0
 336.6 58 370.447 75.7059 414 112 c 1
 211 333 l 1
 148.415 291.277 141 242.468 141 212 c 0
270 397 m 1
 322.338 421.923 356.137 457.431 359 529 c 1
 359 586.629 329.4 635 267 635 c 0
 211.033 635 179 593.217 179 543 c 0
 179 526.582 181.84 480.463 241 425 c 129
 270 397 l 1
528 291 m 0
 528 296.395 519.447 308 511 308 c 1
 457 315 l 1
 457 356 l 1
 662 356 l 1
 662 315 l 1
 591 305 l 1
 575.361 249.147 545.803 195.863 530 171.5 c 130
 508 138 l 1
 589 45 l 1
 678 41 l 1
 678 -1 l 1
 490 3 l 1
 490 26 l 1
 446 76 l 1
 406.5 46 l 129
 341.292 -1.71295 282.135 -8 246 -8 c 0
 136.406 -8 41 70 41 187 c 0
 41 256.6 74.5232 320.251 173 361 c 1
 151 383 l 130
 130.49 403.51 90 453.813 90 512 c 0
 90 612.2 170.419 679 278 679 c 0
 376.289 679 452 619.4 452 530 c 0
 452 428.128 368.524 384.344 307 357 c 1
 474 176 l 1
 490 200 l 130
 516.057 240.533 526.668 272.352 528 291 c 0
EndSplineSet
EndChar

StartChar: quotesingle
Encoding: 10 39 10
Width: 170
Flags: HW
LayerCount: 2
Fore
SplineSet
43 664 m 1
 43 693.074 56.1015 712 84 712 c 256
 111.869 712 125 693.026 125 664 c 1
 94 420 l 1
 78 420 l 1
 43 664 l 1
EndSplineSet
EndChar

StartChar: parenleft
Encoding: 11 40 11
Width: 375
Flags: HW
LayerCount: 2
Fore
SplineSet
154 283 m 256
 154 110.428 182.867 -76.3641 343 -101 c 1
 342 -142 l 1
 132.565 -121.862 62 71.1885 62 284 c 0
 62 524.495 150.274 689.233 343 709 c 1
 343 666 l 1
 183.118 641.403 154 455.688 154 283 c 256
EndSplineSet
EndChar

StartChar: parenright
Encoding: 12 41 12
Width: 375
Flags: HW
LayerCount: 2
Fore
SplineSet
37 715 m 1
 244.609 693.707 322.24 505.442 317 288 c 1
 317 189.742 304.034 -112.324 37 -138 c 1
 37 -95 l 1
 133.546 -80.1468 225 -4.46353 225 289 c 256
 225 581.767 133.485 657.156 37 672 c 1
 37 715 l 1
EndSplineSet
EndChar

StartChar: asterisk
Encoding: 13 42 13
Width: 500
Flags: HW
LayerCount: 2
Fore
SplineSet
198 362 m 1
 129 337 l 1
 130 411 l 1
 231 492 l 1
 243 483 l 1
 198 362 l 1
227 505 m 1
 98 512 l 1
 54 568 l 1
 124 588 l 1
 231 518 l 1
 227 505 l 1
300 361 m 1
 255 481 l 1
 267 490 l 1
 368 409 l 1
 369 335 l 1
 300 361 l 1
255 527 m 1
 242 527 l 1
 208 652 l 1
 249 713 l 1
 290 652 l 1
 255 527 l 1
399 511 m 1
 271 504 l 1
 267 518 l 1
 374 588 l 1
 444 568 l 1
 399 511 l 1
EndSplineSet
EndChar

StartChar: plus
Encoding: 14 43 14
Width: 1000
Flags: HW
LayerCount: 2
Fore
SplineSet
530 269 m 1
 530 0 l 1
 469 0 l 1
 469 269 l 1
 200 269 l 1
 200 331 l 1
 469 331 l 1
 469 600 l 1
 530 600 l 1
 530 331 l 1
 799 331 l 1
 799 269 l 1
 530 269 l 1
EndSplineSet
EndChar

StartChar: comma
Encoding: 15 44 15
Width: 279
Flags: HW
LayerCount: 2
Fore
SplineSet
125 118 m 0
 184.918 118 206 66.0306 206 9 c 0
 206 -96.6 115.474 -162.207 34 -167 c 1
 34 -131 l 1
 111.844 -116.03 142 -74.1485 142 7 c 1
 80 7 l 1
 69.6747 21.4554 65 31.2663 65 51 c 0
 65 82.1064 87.1853 118 125 118 c 0
EndSplineSet
EndChar

StartChar: hyphen
Encoding: 16 45 16
Width: 319
Flags: HW
LayerCount: 2
Fore
SplineSet
43 203 m 1
 43 277 l 1
 274 277 l 1
 274 203 l 1
 43 203 l 1
EndSplineSet
EndChar

StartChar: period
Encoding: 17 46 17
Width: 279
Flags: HW
LayerCount: 2
Fore
SplineSet
130 120 m 0
 168.769 120 195 88.0768 195 55 c 0
 195 15.4 164.05 -11 130 -11 c 0
 91 -11 65 20.275 65 55 c 0
 65 87.1773 90.602 120 130 120 c 0
EndSplineSet
EndChar

StartChar: slash
Encoding: 18 47 18
Width: 490
Flags: HW
LayerCount: 2
Fore
SplineSet
63 -92 m 1
 0 -92 l 1
 425 671 l 1
 489 671 l 1
 63 -92 l 1
EndSplineSet
EndChar

StartChar: zero
Encoding: 19 48 19
Width: 562
Flags: HW
LayerCount: 2
Fore
SplineSet
282 37 m 256
 389.2 37 416 185.95 416 334 c 256
 416 482.65 389.2 632 282 632 c 256
 175.6 632 149 483.083 149 334 c 256
 149 186.002 175.6 37 282 37 c 256
40 334 m 0
 40 489.177 95.8992 683 278 683 c 256
 441.802 683 495.861 525.721 510.5 425.5 c 128
 514.833 395.833 518.333 365.333 521 334 c 1
 521 198.53 482.834 72.2824 386.5 13 c 128
 356.167 -5.66667 320.667 -15 280 -15 c 256
 144.7 -15 78.2188 95.628 54.5 199.5 c 128
 44.8333 241.833 40 286.667 40 334 c 0
EndSplineSet
EndChar

StartChar: one
Encoding: 20 49 20
Width: 562
Flags: HW
LayerCount: 2
Fore
SplineSet
328 67 m 2
 328 60.7 333.25 46 349 46 c 2
 442 43 l 1
 442 -1 l 1
 107 0 l 1
 107 44 l 1
 208 47 l 2
 220.6 47 229 57.5 229 68 c 2
 229 599 l 1
 75 573 l 1
 75 617 l 1
 290 683 l 1
 328 683 l 1
 328 67 l 2
EndSplineSet
EndChar

StartChar: two
Encoding: 21 50 21
Width: 562
Flags: HW
LayerCount: 2
Fore
SplineSet
284 685 m 0
 412.375 685 506 607.8 506 492 c 0
 506 370.455 374.196 255.809 246.5 156 c 130
 159 87 l 1
 455 87 l 1
 472 172 l 1
 521 172 l 1
 521 3 l 1
 46 0 l 1
 46 66 l 1
 185.5 180.5 l 130
 338.769 307.219 393 391.634 393 478 c 0
 393 572.131 332.323 628 252 628 c 0
 204.481 628 177.15 605 172 605 c 1
 172 495 l 1
 168.573 492.258 153.2 481 125 481 c 256
 102.892 481 67 492.267 67 538 c 0
 67 619.278 163.873 685 284 685 c 0
EndSplineSet
EndChar

StartChar: three
Encoding: 22 51 22
Width: 562
Flags: HW
LayerCount: 2
Fore
SplineSet
338 357 m 1
 399.542 355.015 516 323.6 516 190 c 0
 516 67 396.866 -15 255 -15 c 0
 115.733 -15 50 54.6 50 101 c 0
 50 119.35 61.4 154 107 154 c 0
 123.205 154 134.015 151.323 139 148 c 1
 168 60 l 1
 190.257 47.1146 219 35 253 35 c 0
 346 35 408 109.594 408 190 c 0
 408 289.2 319.8 314 261 314 c 2
 202 314 l 1
 202 376 l 1
 210 376 218 376 226 376 c 0
 289.6 376 385 401 385 501 c 0
 385 582.986 324.733 630 256 630 c 0
 216.774 630 182.212 614.948 168 605 c 1
 168 505 l 1
 154.5 498.5 l 130
 146.833 494.833 137 493 125 493 c 0
 105.384 493 69 502.269 69 547 c 0
 69 623.624 170.389 686 288 686 c 0
 405.019 686 491 618 491 516 c 0
 491 452.4 451.417 387.653 338 357 c 1
EndSplineSet
EndChar

StartChar: four
Encoding: 23 52 23
Width: 562
Flags: HW
LayerCount: 2
Fore
SplineSet
344 559 m 1
 119 268 l 1
 344 268 l 1
 344 559 l 1
437 201 m 1
 437 -14 l 1
 344 -14 l 1
 344 201 l 1
 40 201 l 1
 40 269 l 1
 368 687 l 1
 437 687 l 1
 437 268 l 1
 521 268 l 1
 521 201 l 1
 437 201 l 1
EndSplineSet
EndChar

StartChar: five
Encoding: 24 53 24
Width: 562
Flags: HW
LayerCount: 2
Fore
SplineSet
288 423 m 0
 479.749 423 509.591 293.056 517 216 c 1
 517 109.6 449.721 -15 237 -15 c 0
 131.939 -15 49 51.7422 49 101 c 0
 49 136.912 74.3411 156 111 156 c 0
 123.5 156 131 153 136 153 c 1
 174 62 l 1
 184 52 218.4 36 248 36 c 0
 354.3 36 410 123.552 410 193 c 0
 410 299.855 340.948 357 241 357 c 0
 198.533 357 138.61 342.87 85 325 c 1
 85 671 l 1
 471 671 l 1
 471 587 l 1
 156 587 l 1
 156 398 l 1
 167.5 402 l 130
 187.918 409.102 244.595 423 288 423 c 0
EndSplineSet
EndChar

StartChar: six
Encoding: 25 54 25
Width: 562
Flags: HW
LayerCount: 2
Fore
SplineSet
281 38 m 256
 380.734 38 422.5 124.984 420 215 c 1
 420 283.6 392 369 280 369 c 0
 236.543 369 184.186 349.218 147 320 c 1
 146.333 310 146 300.5 146 291.5 c 130
 146 267 l 2
 146 154.306 173 38 281 38 c 256
319 436 m 0
 444.721 436 528.218 346.411 523 229 c 1
 523 84.7063 416.254 -14 282 -14 c 256
 186.8 -14 44 30.7812 44 288 c 0
 44 524.757 187.183 686 442 686 c 1
 442 624 l 1
 408 624 l 2
 382.524 624.542 255.34 625.783 184 480 c 128
 168.667 448.667 158.667 413.333 154 374 c 1
 196.74 410.485 247.683 436 319 436 c 0
EndSplineSet
EndChar

StartChar: seven
Encoding: 26 55 26
Width: 562
Flags: HW
LayerCount: 2
Fore
SplineSet
192 17 m 1
 192 -16 l 1
 87 -16 l 1
 417 586 l 1
 109 586 l 1
 93 496 l 1
 43 496 l 1
 43 671 l 1
 522 671 l 1
 522 616 l 1
 192 17 l 1
EndSplineSet
EndChar

StartChar: eight
Encoding: 27 56 27
Width: 562
Flags: HW
LayerCount: 2
Fore
SplineSet
282 41 m 0
 378.996 41 422.307 110.627 420 166 c 1
 420 215.2 396.882 252.268 307.5 289 c 130
 224 323 l 1
 157.94 288.232 135 242.6 135 189 c 0
 135 104.169 185.453 41 282 41 c 0
332 373 m 1
 366.811 398.528 403 439.966 403 506 c 0
 403 584.3 351 634 283 634 c 0
 215.906 634 170 580.502 170 521 c 0
 170 432.2 275.155 393.943 332 373 c 1
375 353 m 1
 438.363 330.961 519.328 287.193 522 183 c 1
 522 66 415.736 -12 283 -12 c 0
 141.185 -12 45 65.6 45 182 c 0
 45 248 80.4605 308.282 185 347 c 1
 136.095 366.562 71 414.845 71 497 c 0
 71 608.6 153.475 683 283 683 c 0
 409.967 683 495 604.472 495 513 c 0
 495 417 403.141 366.33 375 353 c 1
EndSplineSet
EndChar

StartChar: nine
Encoding: 28 57 28
Width: 562
Flags: HW
LayerCount: 2
Fore
SplineSet
144 455 m 0
 144 386.4 172 301 284 301 c 0
 327.457 301 379.814 320.782 417 350 c 1
 417.667 360 418 369.5 418 378.5 c 130
 418 403 l 2
 418 600.699 337.6 632 284 632 c 0
 172 632 144 531.05 144 455 c 0
283 685 m 256
 378.6 685 522 639.364 522 384 c 0
 522 116.483 347.34 -14 123 -14 c 1
 123 48 l 1
 156 48 l 2
 180.451 47.4798 308.603 46.205 381.5 192 c 128
 397.167 223.333 407.333 258.667 412 298 c 1
 401.553 288.598 346.8 237 249 237 c 0
 124.119 237 43 324.15 43 442 c 0
 43 587.8 148.872 685 283 685 c 256
EndSplineSet
EndChar

StartChar: colon
Encoding: 29 58 29
Width: 279
Flags: HW
LayerCount: 2
Fore
SplineSet
130 120 m 0
 168.769 120 195 88.0768 195 55 c 0
 195 15.4 164.05 -11 130 -11 c 0
 91 -11 65 20.275 65 55 c 0
 65 87.1773 90.602 120 130 120 c 0
130 490 m 0
 168.769 490 195 458.077 195 425 c 256
 195 386.231 163.077 360 130 360 c 0
 90.5601 360 65 392.827 65 425 c 256
 65 457.177 90.602 490 130 490 c 0
EndSplineSet
EndChar

StartChar: semicolon
Encoding: 30 59 30
Width: 279
Flags: HW
LayerCount: 2
Fore
SplineSet
125 118 m 0
 184.918 118 206 66.0306 206 9 c 0
 206 -96.6 115.474 -162.207 34 -167 c 1
 34 -131 l 1
 111.844 -116.03 142 -74.1485 142 7 c 1
 80 7 l 1
 69.6747 21.4554 65 31.2663 65 51 c 0
 65 82.1064 87.1853 118 125 118 c 0
131 489 m 0
 165.636 489 195 461.1 195 424 c 256
 195 385.231 163.077 359 130 359 c 0
 90.5601 359 65 391.827 65 424 c 256
 65 458.05 91.4 489 131 489 c 0
EndSplineSet
EndChar

StartChar: less
Encoding: 31 60 31
Width: 1000
Flags: HW
LayerCount: 2
Fore
SplineSet
200 269 m 1
 200 331 l 1
 799 560 l 1
 799 498 l 1
 264 299 l 1
 799 101 l 1
 799 39 l 1
 200 269 l 1
EndSplineSet
EndChar

StartChar: equal
Encoding: 32 61 32
Width: 1000
Flags: HW
LayerCount: 2
Fore
SplineSet
200 178 m 1
 200 240 l 1
 799 240 l 1
 799 178 l 1
 200 178 l 1
200 359 m 1
 200 421 l 1
 799 421 l 1
 799 359 l 1
 200 359 l 1
EndSplineSet
EndChar

StartChar: greater
Encoding: 33 62 33
Width: 1000
Flags: HW
LayerCount: 2
Fore
SplineSet
200 39 m 1
 200 101 l 1
 735 299 l 1
 200 498 l 1
 200 560 l 1
 799 331 l 1
 799 269 l 1
 200 39 l 1
EndSplineSet
EndChar

StartChar: question
Encoding: 34 63 34
Width: 485
Flags: HW
LayerCount: 2
Fore
SplineSet
214 684 m 0
 338.484 684 425.931 606.315 416 507 c 1
 416 379.607 301.034 324.33 229 294 c 1
 229 184 l 1
 173 184 l 1
 173 329 l 1
 229.603 346.227 316 397.8 316 501 c 0
 316 610.6 244.5 638 174 638 c 1
 133 536 l 1
 119 536 l 2
 64.7203 536 56 567.2 56 588 c 0
 56 626.4 95.025 684 214 684 c 0
206 108 m 0
 243.241 108 266 79.3202 266 47 c 0
 266 11.4614 235.266 -11 206 -11 c 256
 170.6 -11 147 17.425 147 49 c 256
 147 84.4 175.025 108 206 108 c 0
EndSplineSet
EndChar

StartChar: at
Encoding: 35 64 35
Width: 936
Flags: HW
LayerCount: 2
Fore
SplineSet
367 230 m 0
 367 136.7 413.2 123 444 123 c 0
 483.6 123 518.9 155.015 543 186 c 1
 583 393 l 2
 586.133 411.8 558.48 449 526 449 c 0
 430.6 449 367 355.624 367 230 c 0
525 692 m 0
 715.673 692 869.971 585.553 862 373 c 1
 862 165.475 718 59 622 59 c 0
 577.85 59 545 75.4 545 141 c 1
 472.409 68.4088 429.8 60 401 60 c 0
 327.2 60 278 122.863 278 221 c 0
 278 372.961 398.283 491 525 491 c 0
 546.623 491 570.33 487.112 597 476 c 130
 620 466 l 1
 638 488 l 1
 693 488 l 1
 693 486.667 692 481.333 690 472 c 130
 672 389.5 l 130
 668 371.833 664.333 354.333 661 337 c 2
 630 195 l 2
 627.333 183.667 626 173.333 626 164 c 128
 626 135.771 637.898 119 666 119 c 0
 724.218 119 816 219.951 816 377 c 0
 816 561.9 680.886 650 539 650 c 0
 295.958 650 151 470.404 151 263 c 0
 151 62.9573 276.344 -95 499 -95 c 0
 603.4 -95 681.753 -65.6804 760 -23 c 1
 774 -59 l 1
 700.995 -98.8211 594.6 -145 475 -145 c 0
 266.256 -145 80 -2.60407 80 243 c 0
 80 529.261 291.5 692 525 692 c 0
EndSplineSet
EndChar

StartChar: A
Encoding: 36 65 36
Width: 673
Flags: HW
LayerCount: 2
Fore
SplineSet
313 558 m 1
 216 296 l 1
 411 296 l 1
 313 558 l 1
132 66 m 1
 132 52.4 141.6 49 144 49 c 2
 203 45 l 1
 203 3 l 1
 2 3 l 1
 2 45 l 1
 60 57 l 1
 292 688 l 1
 367 688 l 1
 598 71 l 2
 602.063 57.4551 604.352 55.2407 618 54 c 2
 662 47 l 1
 662 5 l 1
 430 1 l 1
 430 43 l 1
 487 47 l 2
 492.4 47 497.275 59.1738 496 63 c 2
 428 246 l 1
 198 246 l 1
 132 66 l 1
EndSplineSet
EndChar

StartChar: B
Encoding: 37 66 37
Width: 604
Flags: HW
LayerCount: 2
Fore
SplineSet
383 357 m 1
 461.079 357 565 325.2 565 198 c 0
 565 42 429.339 3 313 3 c 2
 34 3 l 1
 34 45 l 1
 86 48 l 2
 102 48 106 62 106 68 c 2
 106 601 l 2
 106 607 102 621 86 621 c 2
 34 624 l 1
 34 666 l 1
 301 666 l 2
 424.772 666 524 631.291 524 508 c 256
 524 415.197 448.411 372.574 383 357 c 1
268 56 m 2
 408.2 56 448.429 100.572 457 192 c 1
 457 270.6 416.612 323 296 323 c 0
 261.2 323 217.7 320 209 320 c 1
 209 56 l 1
 268 56 l 2
238 377 m 2
 391.033 377 407.891 448.949 414 508 c 1
 414 580.6 371.3 629 261 629 c 2
 206 629 l 1
 206 377 l 1
 238 377 l 2
EndSplineSet
EndChar

StartChar: C
Encoding: 38 67 38
Width: 626
Flags: HW
LayerCount: 2
Fore
SplineSet
159 332 m 0
 159 166.612 236.196 36 410 36 c 0
 424.862 36 499.265 40.5893 504 69 c 1
 526 177 l 1
 584 177 l 1
 587 22 l 1
 582.168 22 498.566 -15 390 -15 c 0
 164.759 -15 43 152.252 43 334 c 0
 43 538.463 180.984 682 390 682 c 0
 418.1 682 462.545 679.654 530.5 661 c 130
 586 645 l 1
 586 489 l 1
 526 489 l 1
 512 579 l 1
 512 586.562 503.531 596.734 497 600 c 2
 482.5 606 l 130
 466.688 612.658 431.2 624 397 624 c 0
 254.2 624 159 513.708 159 332 c 0
EndSplineSet
EndChar

StartChar: D
Encoding: 39 68 39
Width: 695
Flags: HW
LayerCount: 2
Fore
SplineSet
290 44 m 2
 492.4 44 543 178.679 543 334 c 0
 543 519.821 465.317 619 285 619 c 2
 209 619 l 1
 209 44 l 1
 290 44 l 2
291 660 m 2
 503.44 660 656 553.968 656 330 c 0
 656 185.48 587 -3 311 -3 c 2
 34 -3 l 1
 34 39 l 1
 86 42 l 2
 102.8 42 107 55.9 107 62 c 2
 107 595 l 2
 107 601.1 102.8 615 86 615 c 2
 34 618 l 1
 34 660 l 1
 291 660 l 2
EndSplineSet
EndChar

StartChar: E
Encoding: 40 69 40
Width: 583
Flags: HW
LayerCount: 2
Fore
SplineSet
462 38 m 2
 471.6 38 478 50.8 478 56 c 2
 496 155 l 1
 549 155 l 1
 549 -11 l 1
 32 0 l 1
 32 42 l 1
 83 45 l 2
 99.8 45 104 58.9 104 65 c 2
 104 598 l 2
 104 604.1 99.8 618 83 618 c 2
 32 621 l 1
 32 663 l 1
 517 663 l 1
 517 515 l 1
 457 515 l 1
 442 597 l 1
 442 607.8 432.4 615 426 615 c 2
 210 615 l 1
 210 366 l 1
 359 366 l 2
 367.6 366 376 375.6 376 382 c 2
 386 450 l 1
 436 450 l 1
 436 227 l 1
 386 227 l 1
 376 296 l 2
 376 302.463 367.827 313 359 313 c 2
 210 313 l 1
 210 38 l 1
 462 38 l 2
EndSplineSet
EndChar

StartChar: F
Encoding: 41 70 41
Width: 541
Flags: HW
LayerCount: 2
Fore
SplineSet
107 597 m 2
 107 603 103 617 87 617 c 2
 26 620 l 1
 26 662 l 1
 512 662 l 1
 512 504 l 1
 452 512 l 1
 438 603 l 2
 436.827 611.21 431.728 620 423 620 c 2
 211 620 l 1
 211 360 l 1
 363 360 l 2
 372.6 360 379 371.8 379 377 c 2
 388 447 l 1
 437 447 l 1
 437 222 l 1
 388 222 l 1
 379 291 l 2
 379 296.2 372.6 308 363 308 c 2
 211 308 l 1
 211 64 l 2
 211 58 215 44 231 44 c 2
 297 41 l 1
 297 -1 l 1
 35 -1 l 1
 35 41 l 1
 87 44 l 2
 103 44 107 58 107 64 c 2
 107 597 l 2
EndSplineSet
EndChar

StartChar: G
Encoding: 42 71 42
Width: 694
Flags: HW
LayerCount: 2
Fore
SplineSet
499 252 m 2
 499 257.6 495 271 479 271 c 2
 413 275 l 1
 413 318 l 1
 673 318 l 1
 673 275 l 1
 619 275 l 2
 603 275 599 261.6 599 256 c 2
 599 26 l 1
 559.874 11.6537 474.2 -12 391 -12 c 0
 171.4 -12 45 148.903 45 338 c 0
 45 561.506 195.053 686 404 686 c 0
 488.547 686 555.622 663.404 597 654 c 1
 597 493 l 1
 537 493 l 1
 521 582 l 2
 519.315 595.477 514.737 602.081 463 618 c 128
 445.771 623.301 424.577 627 402 627 c 0
 286.926 627 160 554.664 160 340 c 0
 160 173.762 239.293 40 414 40 c 0
 463.037 40 491.298 53 499 53 c 1
 499 252 l 2
EndSplineSet
EndChar

StartChar: H
Encoding: 43 72 43
Width: 743
Flags: HW
LayerCount: 2
Fore
SplineSet
638 65 m 2
 638 58.9 642.2 45 659 45 c 2
 710 42 l 1
 710 0 l 1
 458 0 l 1
 458 42 l 1
 515 45 l 2
 531 45 535 59 535 65 c 2
 535 323 l 1
 206 323 l 1
 206 65 l 2
 206 59 210 45 226 45 c 2
 283 42 l 1
 283 0 l 1
 31 0 l 1
 31 42 l 1
 82 45 l 2
 98.8 45 103 58.9 103 65 c 2
 103 598 l 2
 103 603.9 98.8 617 82 617 c 2
 31 620 l 1
 31 663 l 1
 283 663 l 1
 283 620 l 1
 226 617 l 2
 210 617 206 603.6 206 598 c 2
 206 373 l 1
 535 373 l 1
 535 598 l 2
 535 603.6 531 617 515 617 c 2
 458 620 l 1
 458 663 l 1
 710 663 l 1
 710 620 l 1
 659 617 l 2
 642.2 617 638 603.9 638 598 c 2
 638 65 l 2
EndSplineSet
EndChar

StartChar: I
Encoding: 44 73 44
Width: 330
Flags: W
HStem: 0 45<33 112 215 296> 617 46<33 112 215 296>
VStem: 112 103<45.0102 616.99>
LayerCount: 2
Fore
SplineSet
215 65 m 2
 215 59 219 45 235 45 c 2
 296 42 l 1
 296 0 l 1
 33 0 l 1
 33 42 l 1
 92 45 l 2
 108 45 112 59 112 65 c 2
 112 598 l 2
 112 603.6 108 617 92 617 c 2
 33 620 l 1
 33 663 l 1
 296 663 l 1
 296 620 l 1
 235 617 l 2
 219 617 215 603.6 215 598 c 2
 215 65 l 2
EndSplineSet
EndChar

StartChar: J
Encoding: 45 74 45
Width: 484
Flags: HW
LayerCount: 2
Fore
SplineSet
280 602 m 2
 280 608 276 622 260 622 c 2
 198 625 l 1
 198 667 l 1
 462 667 l 1
 462 625 l 1
 400 624 l 2
 384 624 380 610 380 604 c 2
 380 255 l 2
 380 53.691 293.2 -12 163 -12 c 0
 95.2123 -12 37.4399 14 31 14 c 1
 31 184 l 1
 91 184 l 1
 112 62 l 2
 113.696 50.128 123.798 38 156 38 c 0
 255.2 38 280 123.344 280 247 c 2
 280 602 l 2
EndSplineSet
EndChar

StartChar: K
Encoding: 46 75 46
Width: 638
Flags: HW
LayerCount: 2
Fore
SplineSet
613 624 m 1
 560.148 620.891 553.582 619 547 619 c 1
 343 375 l 1
 567 47 l 1
 639 43 l 1
 639 1 l 1
 462 0 l 1
 462 30 l 1
 276 297 l 1
 207 297 l 1
 207 68 l 2
 207 61.9 211.2 48 228 48 c 2
 285 45 l 1
 285 3 l 1
 32 3 l 1
 32 45 l 1
 84 48 l 2
 100 48 104 62 104 68 c 2
 104 601 l 2
 104 607 100 621 84 621 c 2
 32 624 l 1
 32 666 l 1
 285 666 l 1
 285 624 l 1
 228 621 l 2
 211.2 621 207 607.1 207 601 c 2
 207 339 l 1
 243 339 l 1
 460 605 l 2
 464.131 610.508 458.236 620 453 620 c 2
 402 624 l 1
 402 666 l 1
 613 666 l 1
 613 624 l 1
EndSplineSet
EndChar

StartChar: L
Encoding: 47 76 47
Width: 530
Flags: HW
LayerCount: 2
Fore
SplineSet
416 45 m 2
 422.4 45 436 51.4 436 61 c 1
 452 181 l 1
 510 181 l 1
 510 -5 l 1
 26 0 l 1
 26 42 l 1
 84 45 l 2
 100 45 104 59 104 65 c 2
 104 598 l 2
 104 604 100 618 84 618 c 2
 26 621 l 1
 26 663 l 1
 281 663 l 1
 281 621 l 1
 228 618 l 2
 211.2 618 207 604.1 207 598 c 2
 207 45 l 1
 416 45 l 2
EndSplineSet
EndChar

StartChar: M
Encoding: 48 77 48
Width: 875
Flags: HW
LayerCount: 2
Fore
SplineSet
768 65 m 2
 768 58.9 772.2 45 789 45 c 2
 843 42 l 1
 843 0 l 1
 592 0 l 1
 592 42 l 1
 645 45 l 2
 661.8 45 666 58.9 666 65 c 2
 666 616 l 1
 437 -4 l 1
 388 -4 l 1
 166 606 l 1
 166 65 l 2
 166 58.9 170.2 45 187 45 c 2
 244 42 l 1
 244 0 l 1
 28 0 l 1
 28 42 l 1
 85 45 l 2
 101 45 105 59 105 65 c 2
 105 598 l 2
 105 604 101 618 85 618 c 2
 28 621 l 1
 28 663 l 1
 252 663 l 1
 252 637 l 1
 433 146 l 1
 614 634 l 1
 614 663 l 1
 843 663 l 1
 843 621 l 1
 789 618 l 2
 772.2 618 768 604.1 768 598 c 2
 768 65 l 2
EndSplineSet
EndChar

StartChar: N
Encoding: 49 78 49
Width: 721
Flags: HW
LayerCount: 2
Fore
SplineSet
556 601 m 2
 556 607 552 621 536 621 c 2
 479 624 l 1
 479 666 l 1
 692 666 l 1
 692 624 l 1
 636 624 l 2
 620 624 616 610 616 604 c 2
 616 2 l 1
 538 2 l 1
 166 562 l 1
 166 71 l 2
 166 65 170 51 186 51 c 2
 243 48 l 1
 243 6 l 1
 27 6 l 1
 27 48 l 1
 84 51 l 2
 100.8 51 105 64.9 105 71 c 2
 105 604 l 2
 105 610.1 100.8 624 84 624 c 2
 25 627 l 1
 25 669 l 1
 223 669 l 1
 223 645 l 1
 556 143 l 1
 556 601 l 2
EndSplineSet
EndChar

StartChar: O
Encoding: 50 79 50
Width: 730
Flags: W
HStem: -15 56<278.687 452.627> 627 57<279.363 453.34>
VStem: 42 115<201.412 466.162> 576 114<204.335 463.022>
LayerCount: 2
Fore
SplineSet
365 41 m 0
 521.078 41 573.623 192.774 576 333 c 1
 576 471.31 522.235 627 368 627 c 0
 211.873 627 157 477.713 157 336 c 0
 157 196.801 210.238 41 365 41 c 0
365 684 m 256
 560 684 690 530.289 690 334 c 0
 690 140.041 560.4 -15 366 -15 c 256
 171.6 -15 42 133.1 42 335 c 0
 42 535.189 171.2 684 365 684 c 256
EndSplineSet
EndChar

StartChar: P
Encoding: 51 80 51
Width: 579
Flags: HW
LayerCount: 2
Fore
SplineSet
267 301 m 0
 402.2 301 437.921 384.396 436 467 c 1
 436 575.959 374.059 619 261 619 c 2
 214 619 l 1
 214 305 l 1
 235.186 303.234 245.8 301 267 301 c 0
268 664 m 2
 438.43 664 543.934 620.543 541 468 c 1
 541 317.221 421.403 251 281 251 c 2
 261 251 l 130
 241.75 251 237.9 252 222.5 252 c 130
 214 252 l 1
 214 66 l 2
 214 60 218 46 234 46 c 2
 299 43 l 1
 299 1 l 1
 37 1 l 1
 37 43 l 1
 89 46 l 2
 105.8 46 110 59.9 110 66 c 2
 110 599 l 2
 110 605.1 105.8 619 89 619 c 2
 29 622 l 1
 29 664 l 1
 268 664 l 2
EndSplineSet
EndChar

StartChar: Q
Encoding: 52 81 52
Width: 738
Flags: HW
LayerCount: 2
Fore
SplineSet
371 42 m 0
 525.951 42 582 196.396 582 334 c 0
 582 474.706 526.642 628 370 628 c 0
 213.873 628 159 478.713 159 337 c 0
 159 199.767 216.185 42 371 42 c 0
369 684 m 0
 567.6 684 697.215 536.528 700 336 c 1
 700 155.425 596.568 18.6512 426 -8 c 1
 426 -69.6 456.2 -128 562 -128 c 0
 619 -128 647.5 -120 657 -120 c 1
 657 -162 l 1
 643.327 -162 592.215 -176 511 -176 c 0
 367.991 -176 320 -109.6 320 -10 c 1
 148.142 12.9144 44 152.62 44 336 c 0
 44 537.691 174 684 369 684 c 0
EndSplineSet
EndChar

StartChar: R
Encoding: 53 82 53
Width: 648
Flags: HW
LayerCount: 2
Fore
SplineSet
257 347 m 2
 389.464 347 424.523 398.464 429 488 c 1
 429 593.6 351.975 620 255 620 c 2
 210 620 l 1
 210 347 l 1
 257 347 l 2
380 328 m 1
 594.283 279.786 432.422 48 650 48 c 1
 646 -3 l 1
 644 -3 641 -3.5 637 -4.5 c 130
 622.5 -8 l 130
 603.238 -12.5322 590.9 -13 583 -13 c 0
 346.42 -13 501.393 298 257 298 c 2
 215 298 l 1
 215 70 l 2
 215 64 219 50 235 50 c 2
 287 47 l 1
 287 5 l 1
 39 5 l 1
 39 47 l 1
 90 50 l 2
 106.8 50 111 63.9 111 70 c 2
 111 603 l 2
 111 609.1 106.8 623 90 623 c 2
 39 626 l 1
 39 668 l 1
 299 668 l 2
 486.086 668 542 598 542 493 c 0
 542 387.057 461.502 346.404 380 328 c 1
EndSplineSet
EndChar

StartChar: S
Encoding: 54 83 54
Width: 520
Flags: HW
LayerCount: 2
Fore
SplineSet
286 625 m 0
 195.19 625 158 564.95 158 510 c 0
 158 353.442 492.071 397.356 481 187 c 1
 481 95.2184 416.268 -16 218 -16 c 0
 178.674 -16 105.495 -10.7597 43 19 c 1
 43 196 l 1
 105 196 l 1
 118 83 l 1
 118 58.4069 180.643 42 232 42 c 0
 305.314 42 377 77.0552 377 158 c 0
 377 182.8 370.865 231.341 260.5 282 c 129
 203 309 l 2
 129.69 343.211 51 380.6 51 488 c 0
 51 604.4 147.85 682 281 682 c 0
 336.8 682 380.254 672.465 420.5 660.5 c 130
 455 650 l 1
 455 495 l 1
 398 495 l 1
 383 590 l 1
 383 601.12 350.817 625 286 625 c 0
EndSplineSet
EndChar

StartChar: T
Encoding: 55 84 55
Width: 599
Flags: HW
LayerCount: 2
Fore
SplineSet
103 620 m 2
 94 620 88 612.1 88 604 c 1
 75 511 l 1
 17 511 l 1
 17 670 l 1
 583 670 l 1
 583 511 l 1
 523 511 l 1
 509 604 l 2
 507.814 612.304 502.756 620 494 620 c 2
 351 620 l 1
 351 67 l 2
 351 61 355 47 371 47 c 2
 434 44 l 1
 434 2 l 1
 164 2 l 1
 164 44 l 1
 227 47 l 2
 243 47 247 61 247 67 c 2
 247 620 l 1
 103 620 l 2
EndSplineSet
EndChar

StartChar: U
Encoding: 56 85 56
Width: 711
Flags: HW
LayerCount: 2
Fore
SplineSet
547 608 m 2
 547 614.1 542.8 628 526 628 c 2
 469 631 l 1
 469 673 l 1
 686 673 l 1
 686 631 l 1
 626 624 l 1
 610 624 606 610 606 604 c 2
 606 225 l 2
 606 61.0133 515.821 -11 351 -11 c 0
 222.45 -11 107 36.6 107 227 c 2
 107 606 l 2
 107 612 103 626 87 626 c 2
 34 629 l 1
 34 671 l 1
 288 671 l 1
 288 629 l 1
 231 626 l 2
 215 626 211 612 211 606 c 2
 211 252 l 2
 211 129.077 244.4 58 378 58 c 0
 502.489 58 547 126.379 547 254 c 2
 547 608 l 2
EndSplineSet
EndChar

StartChar: V
Encoding: 57 86 57
Width: 666
Flags: HW
LayerCount: 2
Fore
SplineSet
598 617 m 1
 374 -16 l 1
 298 -16 l 1
 69 618 l 1
 10 627 l 1
 10 669 l 1
 249 669 l 1
 249 627 l 1
 190 623 l 2
 183.6 623 180.682 612.271 182 607 c 2
 357 113 l 1
 525 605 l 2
 526.325 611.623 519.581 623 511 623 c 2
 456 627 l 1
 456 669 l 1
 654 669 l 1
 654 627 l 1
 598 617 l 1
EndSplineSet
EndChar

StartChar: W
Encoding: 58 87 58
Width: 931
Flags: HW
LayerCount: 2
Fore
SplineSet
859 616 m 1
 707 -16 l 1
 634 -16 l 1
 468 538 l 1
 305 -16 l 1
 233 -16 l 1
 70 616 l 1
 12 627 l 1
 12 669 l 1
 241 669 l 1
 241 627 l 1
 182 622 l 2
 174.034 622 171.725 611.65 173 604 c 2
 292 153 l 1
 448 673 l 1
 525 673 l 1
 686 137 l 1
 796 604 l 2
 797.241 611.444 793.4 622 783 622 c 2
 721 627 l 1
 721 669 l 1
 925 669 l 1
 925 627 l 1
 859 616 l 1
EndSplineSet
EndChar

StartChar: X
Encoding: 59 88 59
Width: 633
Flags: HW
LayerCount: 2
Fore
SplineSet
367 0 m 1
 367 42 l 1
 424 47 l 2
 433.388 47 440.577 56.2394 435 66 c 2
 303 274 l 1
 149 63 l 2
 144.522 55.5371 146.282 46 161 46 c 2
 221 42 l 1
 221 0 l 1
 9 0 l 1
 9 42 l 1
 69 54 l 1
 270 329 l 1
 88 614 l 1
 23 625 l 1
 23 667 l 1
 273 667 l 1
 273 625 l 1
 223 621 l 1
 208.176 621 206.59 610.349 211 603 c 2
 333 416 l 1
 467 601 l 2
 474.308 611.231 465.634 620 457 620 c 1
 406 626 l 1
 406 668 l 1
 615 668 l 1
 615 626 l 1
 551 617 l 1
 366 362 l 1
 562 55 l 1
 624 43 l 1
 624 1 l 1
 367 0 l 1
EndSplineSet
EndChar

StartChar: Y
Encoding: 60 89 60
Width: 625
Flags: HW
LayerCount: 2
Fore
SplineSet
236 49 m 2
 252.8 49 257 62.9 257 69 c 2
 257 270 l 1
 66 616 l 1
 8 627 l 1
 8 669 l 1
 245 669 l 1
 245 627 l 1
 195 623 l 2
 181.55 621.777 180.975 612.564 184 605 c 2
 325 344 l 1
 479 602 l 2
 484.572 611.751 477.351 621 468 621 c 2
 412 627 l 1
 412 669 l 1
 615 669 l 1
 615 627 l 1
 562 618 l 1
 361 285 l 1
 361 69 l 2
 361 63 365 49 381 49 c 2
 444 46 l 1
 444 4 l 1
 174 4 l 1
 174 46 l 1
 236 49 l 2
EndSplineSet
EndChar

StartChar: Z
Encoding: 61 90 61
Width: 575
Flags: HW
LayerCount: 2
Fore
SplineSet
39 0 m 1
 39 43 l 1
 411 620 l 1
 151 620 l 2
 142.268 620 137.181 612.267 136 604 c 2
 122 512 l 1
 63 512 l 1
 63 671 l 1
 533 671 l 1
 533 626 l 1
 161 52 l 1
 445 52 l 2
 453.705 52 458.833 60.8334 460 69 c 2
 477 185 l 1
 536 185 l 1
 536 0 l 1
 39 0 l 1
EndSplineSet
EndChar

StartChar: bracketleft
Encoding: 62 91 62
Width: 422
Flags: HW
LayerCount: 2
Fore
SplineSet
136 -131 m 1
 136 708 l 1
 378 708 l 1
 378 664 l 1
 223 664 l 1
 223 -85 l 1
 378 -85 l 1
 378 -130 l 1
 136 -131 l 1
EndSplineSet
EndChar

StartChar: backslash
Encoding: 63 92 63
Width: 488
Flags: HW
LayerCount: 2
Fore
SplineSet
424 -92 m 1
 0 671 l 1
 63 671 l 1
 487 -92 l 1
 424 -92 l 1
EndSplineSet
EndChar

StartChar: bracketright
Encoding: 64 93 64
Width: 422
Flags: HW
LayerCount: 2
Fore
SplineSet
43 -131 m 1
 43 -86 l 1
 200 -86 l 1
 200 663 l 1
 43 663 l 1
 43 707 l 1
 287 707 l 1
 287 -132 l 1
 43 -131 l 1
EndSplineSet
EndChar

StartChar: asciicircum
Encoding: 65 94 65
Width: 327
Flags: HW
LayerCount: 2
Fore
SplineSet
267 550 m 1
 164 649 l 1
 60 550 l 1
 0 550 l 1
 125 719 l 1
 200 719 l 1
 325 550 l 1
 267 550 l 1
EndSplineSet
EndChar

StartChar: glyph66
Encoding: 66 95 66
Width: 334
Flags: HW
LayerCount: 2
Fore
SplineSet
0 -148 m 1
 0 -85 l 1
 334 -85 l 1
 334 -148 l 1
 0 -148 l 1
EndSplineSet
EndChar

StartChar: grave
Encoding: 67 96 67
Width: 350
Flags: HW
LayerCount: 2
Fore
SplineSet
1 685 m 0
 1 710.779 16.1872 728 44 728 c 0
 62.8968 728 74.6441 723.84 83.5 714 c 130
 226 548 l 1
 174 550 l 1
 23 647 l 2
 10.7348 654.359 1 666.324 1 685 c 0
EndSplineSet
EndChar

StartChar: a
Encoding: 68 97 68
Width: 508
Flags: HW
LayerCount: 2
Fore
SplineSet
134 132 m 0
 134 92.9783 160.39 51 208 51 c 0
 245.457 51 290.755 71.1407 329 96 c 1
 331 267 l 1
 161.532 224.001 134 186 134 132 c 0
425 63 m 2
 425 47 439 43 445 43 c 2
 493 41 l 1
 493 2 l 1
 342 2 l 1
 329 61 l 1
 284.997 27.1517 221.825 -7 166 -7 c 0
 88.6 -7 37 48.6188 37 126 c 0
 37 197.6 65.1314 247.736 331 305 c 1
 331 347 l 2
 331 412.901 304.282 445 239 445 c 0
 225 445 209.574 445.593 169 434 c 1
 169 348 l 1
 97 348 l 2
 80.3801 348 62 349.161 62 375 c 0
 62 444.6 148.017 491 269 491 c 0
 376.962 491 425 444.799 425 343 c 2
 425 63 l 2
EndSplineSet
EndChar

StartChar: b
Encoding: 69 98 69
Width: 555
Flags: HW
LayerCount: 2
Fore
SplineSet
318 492 m 0
 398.8 492 503.415 450.576 520 264 c 1
 520 145.329 463 1 235 1 c 2
 91 1 l 1
 91 666 l 1
 16 666 l 1
 16 699 l 1
 144 737 l 1
 184 737 l 1
 184 458 l 1
 206.595 466.473 257.53 492 318 492 c 0
229 50 m 2
 333.672 50 414 88.8 414 244 c 0
 414 407.4 322.8 434 262 434 c 0
 230 434 189.787 423.225 182 421 c 1
 182 50 l 1
 229 50 l 2
EndSplineSet
EndChar

StartChar: c
Encoding: 70 99 70
Width: 465
Flags: HW
LayerCount: 2
Fore
SplineSet
307 50 m 0
 362.198 50 403.89 70.928 436 92 c 1
 432 37 l 1
 396.5 20 l 130
 366.289 5.30283 317.459 -10 265 -10 c 0
 125.713 -10 38 95.1844 38 237 c 0
 38 398.416 145.064 490 277 490 c 0
 343.617 490 430 467.065 430 391 c 0
 430 360.016 407.888 334 373 334 c 0
 363.2 334 354.825 332.875 324 350 c 1
 324 436 l 1
 316.43 439.785 298.611 448 284 448 c 0
 199.4 448 143 370.163 143 249 c 0
 143 143.245 192.682 50 307 50 c 0
EndSplineSet
EndChar

StartChar: d
Encoding: 71 100 71
Width: 563
Flags: HW
LayerCount: 2
Fore
SplineSet
137 244 m 0
 137 129.119 194.2 57 280 57 c 0
 287.945 57 317.121 56.3676 360.5 79 c 130
 381 90 l 1
 380 431 l 1
 362.38 433.937 336.15 443 298 443 c 0
 185.89 443 137 349.662 137 244 c 0
474 64 m 2
 474 52 482 44 494 44 c 2
 536 42 l 1
 536 3 l 1
 381 0 l 1
 381 53 l 1
 342.549 23.5966 289.8 -10 229 -10 c 0
 96.7637 -10 40 112.47 40 228 c 0
 40 363.571 122.019 492 293 492 c 0
 300.304 492 337.385 490.723 366 485 c 130
 381 482 l 1
 381 665 l 1
 306 665 l 1
 306 698 l 1
 434 736 l 1
 474 736 l 1
 474 64 l 2
EndSplineSet
EndChar

StartChar: e
Encoding: 72 101 72
Width: 490
Flags: HW
LayerCount: 2
Fore
SplineSet
300 51 m 0
 350.35 51 406.373 78.8887 456 111 c 1
 456 49 l 1
 418.203 24.4317 347.652 -11 269 -11 c 0
 140.633 -11 40 76.7551 40 235 c 0
 40 385.688 133.2 491 273 491 c 0
 397.691 491 458 405.216 458 288 c 2
 458 262 l 1
 134 262 l 1
 134 167.484 167.2 51 300 51 c 0
356 328 m 1
 356 390.197 328.322 443 262 443 c 256
 190.6 443 145.329 379.541 143 305 c 1
 362 305 l 1
 356 328 l 1
EndSplineSet
EndChar

StartChar: f
Encoding: 73 102 73
Width: 326
Flags: HW
LayerCount: 2
Fore
SplineSet
304 733 m 0
 372 733 385.229 696.74 389 676 c 1
 389 634.4 347.8 624 344 624 c 1
 256 686 l 1
 235.04 675.52 199 641.446 199 538 c 2
 199 475 l 1
 323 475 l 1
 323 424 l 1
 199 424 l 1
 199 66 l 2
 199 50 213 46 219 46 c 2
 278 44 l 1
 278 5 l 1
 35 5 l 1
 35 44 l 1
 84 46 l 2
 90 46 104 50 104 66 c 2
 104 424 l 1
 41 424 l 1
 41 459 l 1
 104 477 l 1
 104 661.532 214.344 733 304 733 c 0
EndSplineSet
EndChar

StartChar: g
Encoding: 74 103 74
Width: 524
Flags: HW
LayerCount: 2
Fore
SplineSet
257 -182 m 0
 351.705 -182 400.108 -114.53 395 -66 c 1
 395 6 298.249 11.1668 202 24 c 1
 148.897 6.29913 128 -30.6 128 -67 c 0
 128 -115.195 166.738 -182 257 -182 c 0
250 211 m 0
 314.583 211 341 274.574 341 331 c 0
 341 385.656 313.792 451 250 451 c 0
 194.2 451 157 404.925 157 331 c 0
 157 272.756 183.95 211 250 211 c 0
260 491 m 0
 305.2 491 341.425 477.033 373 463 c 1
 507 463 l 1
 507 415 l 1
 409 416 l 1
 437.002 370.179 435 335.85 435 327 c 0
 435 226.405 336.653 163.358 221 169 c 1
 217.137 162.046 212 148.677 212 128.5 c 128
 212 116.772 212.44 112.841 213 105 c 1
 263.5 100.5 l 130
 398.234 88.6813 481 47.9 481 -31 c 0
 481 -123.962 367.896 -218 223 -218 c 0
 86.6215 -218 38 -141.855 38 -77 c 0
 38 -7.19929 84.2148 31.4392 142 40 c 1
 138.5 52 l 130
 135.189 63.0367 135 67.2 135 71 c 130
 135 84 l 2
 135 102.4 143.326 135.326 184 176 c 1
 124.305 188.436 62 240.005 62 324 c 0
 62 424.2 138.069 491 260 491 c 0
EndSplineSet
EndChar

StartChar: h
Encoding: 75 104 75
Width: 574
Flags: HW
LayerCount: 2
Fore
SplineSet
479 63 m 2
 479 51 489.4 43 500 43 c 2
 544 41 l 1
 544 2 l 1
 328 0 l 1
 328 39 l 1
 369 41 l 2
 379.6 41 390 49 390 61 c 2
 390 318 l 2
 390 371.95 370.6 416 293 416 c 0
 250.6 416 210.78 401.89 187 390 c 1
 187 62 l 2
 187 54 190.8 42 206 42 c 2
 248 40 l 1
 248 1 l 1
 23 1 l 1
 23 40 l 1
 70 42 l 2
 82 42 90 50 90 62 c 2
 90 663 l 1
 16 663 l 1
 16 696 l 1
 143 734 l 1
 183 734 l 1
 183 430 l 1
 222.502 454.309 297.879 491 346 491 c 0
 406.7 491 479 457.675 479 341 c 2
 479 63 l 2
EndSplineSet
EndChar

StartChar: i
Encoding: 76 105 76
Width: 303
Flags: HW
LayerCount: 2
Fore
SplineSet
195 60 m 2
 195 44 209 40 215 40 c 2
 266 38 l 1
 266 -1 l 1
 34 0 l 1
 34 39 l 1
 82 41 l 2
 94 41 102 49 102 61 c 2
 102 417 l 1
 34 417 l 1
 34 452 l 1
 156 490 l 1
 195 490 l 1
 195 60 l 2
157 704 m 256
 192.194 704 215 675.037 215 645 c 256
 215 614.96 192.177 586 157 586 c 256
 121.6 586 98 614.025 98 645 c 256
 98 680.4 126.025 704 157 704 c 256
EndSplineSet
EndChar

StartChar: j
Encoding: 77 106 77
Width: 291
Flags: HW
LayerCount: 2
Fore
SplineSet
65 -184 m 1
 105.813 -162.024 111 -82.8058 111 -25 c 2
 111 418 l 1
 41 418 l 1
 41 451 l 1
 164 489 l 1
 205 489 l 1
 202 63 l 2
 202 -20.5658 193.343 -87.7613 165 -135 c 1
 111.481 -218.847 31.7277 -227 1 -227 c 0
 -35.5325 -227 -73 -213.612 -73 -174 c 0
 -73 -140.4 -50.387 -123.253 -32 -118 c 1
 65 -184 l 1
156 700 m 256
 191.4 700 215 671.975 215 641 c 256
 215 605.6 186.975 582 156 582 c 256
 124.425 582 96 605.6 96 641 c 256
 96 676.4 124.425 700 156 700 c 256
EndSplineSet
EndChar

StartChar: k
Encoding: 78 107 78
Width: 534
Flags: HW
LayerCount: 2
Fore
SplineSet
66 43 m 2
 78 43 86 51 86 63 c 2
 86 664 l 1
 11 664 l 1
 11 697 l 1
 138 735 l 1
 179 735 l 1
 179 255 l 1
 199 255 l 1
 345 421 l 2
 349.435 426.914 344.502 436 337 436 c 2
 296 439 l 1
 296 478 l 1
 490 478 l 1
 490 439 l 1
 427 433 l 1
 295 292 l 1
 467 42 l 1
 519 37 l 1
 519 -2 l 1
 363 0 l 1
 363 39 l 1
 238 226 l 1
 183 226 l 1
 183 63 l 2
 183 51 191 43 203 43 c 2
 245 41 l 1
 245 2 l 1
 18 2 l 1
 18 41 l 1
 66 43 l 2
EndSplineSet
EndChar

StartChar: l
Encoding: 79 108 79
Width: 296
Flags: HW
LayerCount: 2
Fore
SplineSet
192 61 m 2
 192 53 204 41 212 41 c 2
 266 39 l 1
 266 0 l 1
 26 0 l 1
 26 39 l 1
 79 41 l 2
 87.4 41 100 53 100 61 c 2
 100 663 l 1
 24 663 l 1
 24 696 l 1
 151 734 l 1
 192 734 l 1
 192 61 l 2
EndSplineSet
EndChar

StartChar: m
Encoding: 80 109 80
Width: 850
Flags: HW
LayerCount: 2
Fore
SplineSet
752 59 m 2
 752 43 766 39 772 39 c 2
 820 37 l 1
 820 -2 l 1
 604 0 l 1
 604 39 l 1
 645 41 l 2
 657 41 665 49 665 61 c 2
 665 315 l 2
 665 373.119 647.8 415 579 415 c 0
 538.666 415 499.918 399.872 476 389 c 1
 476 60 l 2
 476 48 484 40 496 40 c 2
 537 38 l 1
 537 -1 l 1
 318 -1 l 1
 318 38 l 1
 359 40 l 2
 371 40 379 48 379 60 c 2
 379 321 l 2
 379 387.962 345 414 294 414 c 0
 253.35 414 212.733 398.366 190 387 c 1
 190 59 l 2
 190 47 198 39 210 39 c 2
 251 37 l 1
 251 -2 l 1
 25 -2 l 1
 25 37 l 1
 73 39 l 2
 85 39 93 47 93 59 c 2
 93 406 l 1
 25 406 l 1
 25 438 l 1
 146 476 l 1
 187 476 l 1
 187 427 l 1
 198.445 434.153 283 487 347 487 c 0
 411.8 487 444.372 440.256 455 419 c 1
 491 440 l 130
 528.217 461.267 587.29 486 626 486 c 0
 726.8 486 752 408 752 335 c 2
 752 59 l 2
EndSplineSet
EndChar

StartChar: n
Encoding: 81 110 81
Width: 566
Flags: HW
LayerCount: 2
Fore
SplineSet
476 60 m 2
 476 44 490 40 496 40 c 2
 539 38 l 1
 539 -1 l 1
 326 0 l 1
 326 39 l 1
 367 41 l 2
 373 41 387 45 387 61 c 2
 387 321 l 2
 387 397.8 346.6 417 292 417 c 0
 281.348 417 243.22 417.425 184 389 c 1
 184 61 l 2
 184 49 192 41 204 41 c 2
 245 39 l 1
 245 0 l 1
 19 0 l 1
 19 39 l 1
 67 41 l 2
 79 41 87 49 87 61 c 2
 87 408 l 1
 18 408 l 1
 18 440 l 1
 140 478 l 1
 181 478 l 1
 181 429 l 1
 222.5 451 l 130
 233.954 456.86 294.8 489 343 489 c 0
 432.849 489 476 429.393 476 335 c 2
 476 60 l 2
EndSplineSet
EndChar

StartChar: o
Encoding: 82 111 82
Width: 543
Flags: W
HStem: -10 45<211.202 336.797> 448 45<207.395 334.737>
VStem: 39 104<126.722 351.602> 405 105<129.543 352.951>
LayerCount: 2
Fore
SplineSet
274 35 m 0
 375.493 35 407.166 154.353 405 241 c 1
 405 365.712 352.6 448 274 448 c 0
 171.754 448 143 331.509 143 241 c 0
 143 117.912 195.4 35 274 35 c 0
277 493 m 256
 416.8 493 510 388.741 510 241 c 0
 510 96.325 415.2 -10 273 -10 c 256
 132.6 -10 39 91.8625 39 241 c 0
 39 385.878 133.413 493 277 493 c 256
EndSplineSet
EndChar

StartChar: p
Encoding: 83 112 83
Width: 559
Flags: HW
LayerCount: 2
Fore
SplineSet
264 36 m 0
 376.185 36 421.327 134.109 424 233 c 1
 424 335.266 375.009 421 285 421 c 0
 245 421 202.896 402.545 185 393 c 1
 185 49 l 1
 206.563 41.1588 238.362 36 264 36 c 0
331 491 m 0
 436.338 491 514.749 394.77 523 249 c 1
 523 96.0845 434.516 -10 272 -10 c 0
 254.6 -10 210.877 -7.45026 185 -4 c 1
 185 -152 l 2
 185 -163.4 193.4 -171 206 -171 c 1
 265 -177 l 1
 265 -215 l 1
 22 -215 l 1
 22 -177 l 1
 69 -171 l 1
 77 -171 89 -167.2 89 -152 c 2
 89 410 l 1
 21 410 l 1
 21 442 l 1
 144 480 l 1
 183 480 l 1
 183 431 l 1
 212.502 454.882 271.8 491 331 491 c 0
EndSplineSet
EndChar

StartChar: q
Encoding: 84 113 84
Width: 548
Flags: HW
LayerCount: 2
Fore
SplineSet
139 246 m 0
 139 147.923 180.262 50 289 50 c 0
 299.682 50 331.301 52.2145 353.5 57.5 c 130
 372 62 l 1
 372 437 l 1
 345.219 441.12 331.8 447 305 447 c 0
 188.208 447 139 356.617 139 246 c 0
325 491 m 0
 353 491 410.077 487.985 465 477 c 1
 465 -154 l 2
 465 -170 480.569 -173.446 485 -174 c 2
 533 -179 l 1
 533 -216 l 1
 292 -216 l 1
 292 -179 l 1
 351 -174 l 1
 363 -174 371 -166.4 371 -155 c 2
 371 25 l 1
 305.695 -2.98803 260.6 -12 233 -12 c 0
 99.948 -12 37 109.923 37 227 c 0
 37 402.783 158.301 491 325 491 c 0
EndSplineSet
EndChar

StartChar: r
Encoding: 85 114 85
Width: 391
Flags: HW
LayerCount: 2
Fore
SplineSet
317 492 m 0
 340.2 492 364.68 484.16 375 479 c 1
 375 380 l 1
 341 379 l 1
 325.72 397.676 309.8 406 289 406 c 0
 269.4 406 237.368 398.787 191 345 c 1
 191 64 l 2
 191 52 199 44 211 44 c 2
 276 42 l 1
 276 3 l 1
 26 3 l 1
 26 41 l 1
 75 44 l 2
 81 44 95 48 95 64 c 2
 95 411 l 1
 23 411 l 1
 23 443 l 1
 147 481 l 1
 188 481 l 1
 188 393 l 1
 213 421 l 130
 255.235 468.866 291.088 492 317 492 c 0
EndSplineSet
EndChar

StartChar: s
Encoding: 86 115 86
Width: 397
Flags: HW
LayerCount: 2
Fore
SplineSet
216 438 m 0
 148.7 438 136 398.4 136 372 c 0
 136 273.388 307.006 286.32 355 185 c 128
 361 172.333 363.667 159 363 145 c 0
 363 36.6229 278.329 -10 174 -10 c 0
 139.475 -10 103.325 -5.66415 59 7 c 130
 38 13 l 1
 38 145 l 1
 88 145 l 1
 100 61 l 1
 145.971 33.4176 174.868 34 188 34 c 0
 248.9 34 276 76.025 276 110 c 0
 276 143.2 259.806 166.939 206.5 193 c 130
 156 218 l 1
 71.9724 258.458 46 290.203 46 342 c 0
 46 443.403 125.427 485 223 485 c 0
 273.4 485 326.262 474.745 349 465 c 1
 349 347 l 1
 297 347 l 1
 290 416 l 1
 281.719 422.625 252.753 438 216 438 c 0
EndSplineSet
EndChar

StartChar: t
Encoding: 87 116 87
Width: 339
Flags: HW
LayerCount: 2
Fore
SplineSet
267 45 m 0
 286.8 45 308.876 48.2783 333 59 c 1
 333 20 l 1
 291.819 -0.59075 241.348 -12 202 -12 c 0
 125.428 -12 96 23.8008 96 99 c 2
 96 431 l 1
 33 431 l 1
 33 463 l 1
 101 495 l 1
 145 600 l 1
 188 600 l 1
 188 479 l 1
 329 479 l 1
 329 430 l 1
 188 430 l 1
 188 151 l 2
 188 66.2 219.6 45 267 45 c 0
EndSplineSet
EndChar

StartChar: u
Encoding: 88 117 88
Width: 568
Flags: HW
LayerCount: 2
Fore
SplineSet
483 63 m 2
 483 51 493.4 43 504 43 c 2
 547 41 l 1
 547 2 l 1
 389 0 l 1
 389 57 l 1
 317.266 3.1995 263.4 -10 232 -10 c 0
 149.8 -10 95 35.9 95 151 c 2
 95 421 l 1
 26 421 l 1
 26 455 l 1
 149 494 l 1
 189 494 l 1
 189 169 l 2
 189 83.7625 227 58 284 58 c 0
 326.4 58 366.06 74.0298 390 86 c 1
 390 420 l 1
 320 420 l 1
 320 454 l 1
 442 493 l 1
 483 493 l 1
 483 63 l 2
EndSplineSet
EndChar

StartChar: v
Encoding: 89 118 89
Width: 528
Flags: HW
LayerCount: 2
Fore
SplineSet
465 437 m 1
 291 0 l 1
 227 0 l 1
 66 437 l 1
 11 442 l 1
 11 481 l 1
 232 481 l 1
 232 442 l 1
 185 440 l 2
 176 440 166.941 432.235 170 420 c 1
 281 108 l 1
 404 420 l 2
 408.179 429.752 401.452 440 391 440 c 2
 347 442 l 1
 347 481 l 1
 521 481 l 1
 521 442 l 1
 465 437 l 1
EndSplineSet
EndChar

StartChar: w
Encoding: 90 119 90
Width: 783
Flags: HW
LayerCount: 2
Fore
SplineSet
722 437 m 1
 585 0 l 1
 515 0 l 1
 397 374 l 1
 266 0 l 1
 195 0 l 1
 68 437 l 1
 13 442 l 1
 13 481 l 1
 232 481 l 1
 232 442 l 1
 186 440 l 2
 177 440 167.941 432.235 171 420 c 2
 254 109 l 1
 382 484 l 1
 453 484 l 1
 568 109 l 1
 660 420 l 2
 662.759 429.658 656.522 440 646 440 c 2
 601 442 l 1
 601 481 l 1
 775 481 l 1
 775 442 l 1
 722 437 l 1
EndSplineSet
EndChar

StartChar: x
Encoding: 91 120 91
Width: 509
Flags: W
HStem: 0 39<9 66 143.828 199 285 327.116 452.75 500> 441 39<15 66.625 189.872 234 307 355.182 439.625 486>
LayerCount: 2
Fore
SplineSet
285 0 m 1
 285 39 l 1
 318 42 l 2
 326.351 42 329.566 51.5862 327 58 c 1
 242 185 l 1
 144 58 l 2
 140.266 53.0213 140.06 42 149 42 c 2
 199 39 l 1
 199 0 l 1
 9 0 l 1
 9 39 l 1
 66 46 l 1
 209 232 l 1
 74 433 l 1
 15 441 l 1
 15 480 l 1
 234 480 l 1
 234 441 l 1
 200 437 l 2
 192 437 187.146 428.135 190 421 c 1
 269 310 l 1
 355 421 l 2
 358.962 426.283 357.514 437 349 437 c 2
 307 441 l 1
 307 480 l 1
 486 480 l 1
 486 441 l 1
 433 433 l 1
 299 263 l 1
 446 47 l 1
 500 40 l 1
 500 1 l 1
 285 0 l 1
EndSplineSet
EndChar

StartChar: y
Encoding: 92 121 92
Width: 529
Flags: HW
LayerCount: 2
Fore
SplineSet
157 -154 m 1
 191.944 -119.056 227.59 -37.5118 239 -1 c 1
 70 435 l 1
 15 440 l 1
 15 479 l 1
 236 479 l 1
 236 440 l 1
 189 438 l 2
 180 438 170.941 430.235 174 418 c 1
 290 124 l 1
 408 418 l 2
 412.179 427.752 405.452 438 395 438 c 2
 348 440 l 1
 348 479 l 1
 526 479 l 1
 526 440 l 1
 467 437 l 1
 276 -30 l 1
 262.041 -71.8776 225.456 -151.544 189 -188 c 0
 151.8 -225.2 115.816 -226 103 -226 c 0
 60.4 -226 32 -204 32 -171 c 0
 32 -147.4 42.5146 -129.694 64 -112 c 1
 157 -154 l 1
EndSplineSet
EndChar

StartChar: z
Encoding: 93 122 93
Width: 461
Flags: HW
LayerCount: 2
Fore
SplineSet
344 48 m 2
 352.403 48 364 60.4107 364 69 c 1
 374 148 l 1
 428 148 l 1
 428 -2 l 1
 34 0 l 1
 34 53 l 1
 298 434 l 1
 125 434 l 2
 113.6 434 106.751 418.508 106 414 c 2
 97 340 l 1
 46 340 l 1
 46 482 l 1
 416 482 l 1
 416 441 l 1
 143 48 l 1
 344 48 l 2
EndSplineSet
EndChar

StartChar: braceleft
Encoding: 94 123 94
Width: 487
Flags: HW
LayerCount: 2
Fore
SplineSet
295 52 m 130
 295 -42.2129 310.834 -80 418 -80 c 1
 418 -123 l 1
 288.575 -123 207 -101.709 207 45 c 2
 207 130 l 2
 207 256.434 161.475 259 69 259 c 1
 69 303 l 1
 161.906 303 207 305.808 207 432 c 2
 207 517 l 2
 207 668.025 293.364 686 418 686 c 1
 418 645 l 1
 310.834 645 295 607.213 295 513 c 130
 295 472 l 2
 295 374.328 288.833 308.167 163 283 c 1
 289.897 257.621 295 187.046 295 93 c 2
 295 52 l 130
EndSplineSet
EndChar

StartChar: glyph95
Encoding: 95 124 95
Width: 353
Flags: HW
LayerCount: 2
Fore
SplineSet
146 -257 m 1
 146 796 l 1
 206 796 l 1
 206 -257 l 1
 146 -257 l 1
EndSplineSet
EndChar

StartChar: glyph96
Encoding: 96 125 96
Width: 487
Flags: HW
LayerCount: 2
Fore
SplineSet
288 436 m 2
 288 319.028 325.002 305 429 305 c 1
 428 268 l 1
 323.848 268 287 253.862 287 137 c 2
 287 52 l 2
 287 -36.6752 253.447 -79.0228 216.5 -95 c 128
 166.093 -116.797 104.1 -116 76 -116 c 1
 76 -75 l 1
 182.314 -75 198 -38.8781 198 57 c 130
 198 98 l 2
 198 192.452 203.408 262.882 329 288 c 1
 206.24 312.552 199 375.417 199 476 c 2
 199 517 l 130
 199 612.878 183.314 649 77 649 c 1
 77 690 l 1
 215.151 690 288 662.499 288 521 c 2
 288 436 l 2
EndSplineSet
EndChar

StartChar: asciitilde
Encoding: 97 126 97
Width: 833
Flags: HW
LayerCount: 2
Fore
SplineSet
562 296 m 0
 636.4 296 708.667 343.811 748 372 c 1
 747 306 l 1
 654.203 239.716 594.248 238 562 238 c 0
 466.875 238 378.141 303 275 303 c 256
 201.8 303 115.981 243.266 92 226 c 1
 92 290 l 1
 138.742 323.513 204.8 360 280 360 c 0
 375.065 360 477.62 296 562 296 c 0
EndSplineSet
EndChar

StartChar: quoteleft
Encoding: 98 8216 98
Width: 247
Flags: HW
LayerCount: 2
Fore
SplineSet
122 439 m 0
 69.6893 439 40 473.442 40 530 c 0
 40 594.706 78.2715 651.908 120 689 c 130
 147 713 l 1
 186 702 l 1
 160 673 l 130
 145.318 656.22 105 605.913 105 552 c 2
 105 535 l 1
 167 535 l 1
 173 525 l 1
 179.248 509.379 179 500.67 179 498 c 0
 179 465.45 157.675 439 122 439 c 0
EndSplineSet
EndChar

StartChar: quoteright
Encoding: 99 8217 99
Width: 247
Flags: HW
LayerCount: 2
Fore
SplineSet
129 703 m 0
 176.363 703 212.24 669.703 208 616 c 1
 208 542.009 161.448 486.731 128 457 c 130
 101 433 l 1
 64 440 l 1
 83.4306 459.431 145 518.897 145 590 c 2
 145 606 l 1
 83 606 l 1
 73 616 70 635.6 70 643 c 0
 70 673.847 88.785 703 129 703 c 0
EndSplineSet
EndChar

StartChar: quotedblleft
Encoding: 100 8220 100
Width: 453
Flags: HW
LayerCount: 2
Fore
SplineSet
122 439 m 0
 70.132 439 40 474.477 40 530 c 0
 40 603.991 86.5523 659.269 120 689 c 130
 147 713 l 1
 186 702 l 1
 143.777 659.777 105 612 105 552 c 2
 105 535 l 1
 167 535 l 1
 169.196 532.072 179 520.2 179 498 c 0
 179 465.45 157.675 439 122 439 c 0
325 445 m 0
 272.067 445 243 482.195 243 538 c 0
 243 558.401 245.238 626.878 323 696 c 130
 350 720 l 1
 390 707 l 1
 366 679.5 l 130
 342.683 653.685 309 606.6 309 558 c 0
 309 552 309 546 309 540 c 1
 371 540 l 1
 377 530 l 1
 382.876 515.31 383 509.2 383 504 c 0
 383 470.05 359.8 445 325 445 c 0
EndSplineSet
EndChar

StartChar: quotedblright
Encoding: 101 8221 101
Width: 453
Flags: HW
LayerCount: 2
Fore
SplineSet
129 702 m 0
 180.413 702 210.738 665.645 208 615 c 1
 208 594.599 205.762 526.122 128 457 c 130
 101 433 l 1
 64 440 l 1
 88 467.5 l 130
 111.018 492.984 145 539.2 145 587 c 0
 145 593 145 599 145 605 c 1
 83 605 l 1
 73.5561 616.805 70 631.621 70 643 c 0
 70 679.875 96.55 702 129 702 c 0
337 697 m 0
 388.524 697 420.018 659.212 416 611 c 1
 416 537.009 369.448 481.731 336 452 c 130
 309 428 l 1
 272 435 l 1
 311.615 474.615 354 524.4 354 584 c 0
 354 591.329 353 595.041 353 600 c 1
 291 600 l 1
 285.9 605.1 278 618.806 278 638 c 0
 278 669.953 299.403 697 337 697 c 0
EndSplineSet
EndChar

StartChar: u0A81
Encoding: 102 2689 102
Width: 11
Flags: HW
AnchorPoint: "abv" -196 511 mark 0
LayerCount: 2
Fore
SplineSet
-132 707 m 1
 -177 661 l 1
 -222 707 l 1
 -177 752 l 1
 -132 707 l 1
-197 542 m 0
 -295.38 542 -329 602.6 -329 643 c 0
 -329 677 -313 702 -281 718 c 1
 -232 668 l 1
 -253.026 661.816 -270 638.487 -270 610 c 0
 -270 582.8 -255.1 576 -237 576 c 0
 -161.534 576 -105.874 636.992 -95 690 c 1
 -52 613 l 1
 -84.2853 566.678 -142.529 542 -197 542 c 0
EndSplineSet
EndChar

StartChar: u0A82
Encoding: 103 2690 103
Width: 11
Flags: HW
AnchorPoint: "abv" -156 511 basechar 0
LayerCount: 2
Fore
SplineSet
-156 635 m 1
 -113 591 l 1
 -156 547 l 1
 -198 591 l 1
 -156 635 l 1
EndSplineSet
EndChar

StartChar: u0A83
Encoding: 104 2691 104
Width: 279
Flags: HW
LayerCount: 2
Fore
SplineSet
146 241 m 0
 146 216.44 123.232 201 103 201 c 0
 81.2797 201 63 217.919 63 241 c 0
 63 265.942 80.4305 284 103 284 c 256
 127.028 284 146 262.861 146 241 c 0
146 32 m 0
 146 0.8 113.55 -7 103 -7 c 0
 81.7522 -7 63 9.89135 63 32 c 256
 63 56.942 80.4305 75 103 75 c 256
 127.028 75 146 53.861 146 32 c 0
EndSplineSet
EndChar

StartChar: u0A85
Encoding: 105 2693 105
Width: 715
Flags: HW
LayerCount: 2
Fore
SplineSet
260 364 m 0
 260 280.076 211.589 222 105 222 c 1
 105 175.36 165.373 124 215 124 c 0
 284 124 328.234 164.107 332 198 c 1
 329 442 l 1
 383 380 l 1
 383 294 l 1
 391 286 401 282 413 282 c 0
 420.814 282 443.411 284.357 466 309 c 1
 466 510 l 1
 519 452 l 1
 519 51 l 2
 519 45.3 520.8 40 528 40 c 256
 542.4 40 558.414 62.0077 564 81 c 1
 613 24 l 1
 602.696 10.6053 586.65 -2.65496e-19 554 0 c 0
 513.919 2.54313e-06 466.997 16.0537 466.997 80.124 c 0
 467.499 228.7 472.776 228 456 228 c 0
 427.2 228 403.095 239.271 384 261 c 1
 384 160 l 1
 375.123 123.224 318.297 72 240 72 c 0
 172.4 72 109.325 125.203 71 222 c 1
 19.7948 232.862 0 272.6 0 305 c 0
 0 329.5 6.6 347 37 347 c 0
 74.8 347 96.0777 305.458 100 278 c 1
 159.637 278 235 310.536 235 389 c 0
 235 411 224 431.333 214 454 c 1
 72 454 l 1
 40 513 l 1
 190 513 l 1
 235.736 493.943 260 430.368 260 364 c 0
519 51 m 1026
528 40 m 1280
613 24 m 1025
384 261 m 1025
240 72 m 1024
71 222 m 1025
37 347 m 1024
100 278 m 1025
519 51 m 1026
528 40 m 1280
613 24 m 1025
384 261 m 1025
71 222 m 1025
37 347 m 1024
100 278 m 1025
EndSplineSet
EndChar

StartChar: u0A86
Encoding: 106 2694 106
Width: 715
Flags: HW
LayerCount: 2
Back
SplineSet
802 1 m 4
 761.6 1 716 17 716 81 c 6
 716 510 l 5
 770 452 l 5
 770 51 l 6
 770 43.667 773 40 779 40 c 260
 793.4 40 809.414 62.0078 815 81 c 5
 866 26 l 5
 858.825 16.6729 840.4 1 802 1 c 4
260 364 m 4
 260 280.076 211.589 222 105 222 c 5
 119.825 158.748 161.05 123.893 220.768 123.893 c 4
 286.349 123.893 327.141 165.93 332 198 c 5
 329 442 l 5
 383 380 l 5
 383 294 l 5
 391 286 401 282 413 282 c 4
 420.814 282 443.411 284.357 466 309 c 5
 466 513 l 5
 519 454 l 5
 519 55 l 6
 519 49.2998 520.8 40 528 40 c 260
 542.4 40 558.414 62.0078 564 81 c 5
 613 24 l 5
 599.14 5.9834 573.896 -4.23438 548.253 -4.23438 c 4
 510.395 -4.23438 467.004 19.3057 467.004 84.2666 c 5
 467.004 108.784 466.135 101.689 466 229 c 5
 436 231 403.095 239.271 384 261 c 5
 384 160 l 5
 378 122 318.297 72 240 72 c 4
 172.4 72 96 111 71 222 c 5
 19 233 0 272.6 0 305 c 4
 0 329.5 6 345 37 347 c 5
 75 346 88 321 96 274 c 5
 155.637 274 234 313 235 389 c 5
 232.502 417.362 225 440 214 454 c 5
 72 454 l 5
 40 513 l 5
 190 513 l 5
 235 487 260 430.368 260 364 c 4
528 40 m 1284
613 24 m 1029
384 261 m 1029
240 72 m 1028
71 222 m 1029
37 347 m 1028
528 40 m 1284
613 24 m 1029
384 261 m 1029
71 222 m 1029
37 347 m 1028
EndSplineSet
Fore
SplineSet
805 -4 m 0
 764.6 -4 717 12 717 76 c 2
 717 514.286 l 1
 771 454.286 l 1
 771 46 l 2
 771 38.667 776 35 782 35 c 256
 796.4 35 812.414 57.0078 818 76 c 1
 869 21 l 1
 861.825 11.6729 843.4 -4 805 -4 c 0
260 364 m 0
 260 280.076 211.589 222 105 222 c 1
 119.825 158.748 161.05 123.893 220.768 123.893 c 0
 286.349 123.893 327.141 165.93 332 198 c 1
 329 442 l 1
 383 380 l 1
 383 294 l 1
 391 286 401 282 413 282 c 0
 420.814 282 443.411 284.357 466 309 c 1
 466 513 l 1
 519 454 l 1
 519 55 l 2
 519 49.2998 520.8 40 528 40 c 256
 542.4 40 558.414 62.0077 564 81 c 1
 613 24 l 1
 599.14 5.98327 573.897 -4.23436 548.253 -4.23436 c 0
 510.395 -4.23436 467.004 19.3056 467.004 84.2668 c 1
 467.004 108.784 466.135 101.689 466 229 c 1
 436 231 403.095 239.271 384 261 c 1
 384 160 l 1
 378 122 318.297 72 240 72 c 0
 172.4 72 96 111 71 222 c 1
 19 233 0 272.6 0 305 c 0
 0 329.5 6 345 37 347 c 1
 75 346 88 321 96 274 c 1
 155.637 274 234 313 235 389 c 1
 232.502 417.362 225 440 214 454 c 1
 72 454 l 1
 40 513 l 1
 190 513 l 1
 235 487 260 430.368 260 364 c 0
528 40 m 1280
613 24 m 1025
384 261 m 1025
240 72 m 1024
71 222 m 1025
37 347 m 1024
528 40 m 1280
613 24 m 1025
384 261 m 1025
71 222 m 1025
37 347 m 1024
EndSplineSet
EndChar

StartChar: u0A87
Encoding: 107 2695 107
Width: 430
Flags: HW
LayerCount: 2
Fore
SplineSet
258 574 m 0
 258 495.8 340 310.075 340 183 c 0
 340 113.992 324.941 71.2108 285 39 c 1
 251 13.6667 213 1 171 1 c 0
 84.4203 1 1 63.3031 1 189 c 0
 1 262.2 44.6161 296.256 71 311 c 1
 25 366.333 2 413.333 2 452 c 0
 2 490 25.6667 509 73 509 c 2
 154 509 l 1
 170 455 l 1
 63 455 l 1
 54.3333 443.667 50 430.333 50 415 c 0
 50 377.513 73.2086 343.233 96 325 c 1
 108.504 330.835 124.4 336 167 336 c 2
 193 336 l 1
 202 278 l 1
 61.0781 278 28 208.4 28 162 c 0
 28 103.358 78.8031 42 151 42 c 0
 193.8 42 227.739 59.9998 258 84 c 1
 299.384 122.714 307 169.916 307 239 c 0
 307 265.667 300.333 303.667 287 353 c 2
 233 542 l 1
 231.511 553.914 231 566 231 572 c 0
 231 613.212 242.6 659 289 659 c 1
 289 603 l 1
 275.297 601.173 258 591.4 258 574 c 0
EndSplineSet
EndChar

StartChar: u0A87.abvm
Encoding: 108 -1 108
Width: 430
Flags: HW
LayerCount: 2
Back
SplineSet
258 574 m 0
 258 495.8 340 310.075 340 183 c 0
 340 113.992 318.949 69.3252 285 39 c 0
 259.571 16.2861 213 -3 171 -3 c 0
 84.4199 -3 1 63.3027 1 189 c 0
 1 262.2 44.6162 296.256 71 311 c 1
 25 366.333 2 413.333 2 452 c 0
 2 490 25.667 512 73 512 c 2
 154 512 l 1
 170 455 l 1
 63 455 l 1
 54.333 443.667 50 430.333 50 415 c 0
 50 377.513 73.209 343.233 96 325 c 1
 108.504 330.835 124.4 336 167 336 c 2
 193 336 l 1
 202 278 l 1
 61.0781 278 28 208.4 28 162 c 0
 28 103.358 78.8027 41 151 41 c 0
 193.8 41 238.598 63.6514 258 84 c 0
 293.143 120.857 308 143.916 308 213 c 0
 308 241 295.333 303.667 282 353 c 0
 272 390 229.001 520 229.001 572.666 c 0
 229.001 613.878 242.6 659 289 659 c 1
 289 603 l 1
 275.667 603 258 594 258 574 c 0
130.248 660 m 5
 173.501 616 l 5
 130.248 572 l 5
 88.001 616 l 5
 130.248 660 l 5
EndSplineSet
Fore
SplineSet
130.248 660 m 1
 173.501 616 l 1
 130.248 572 l 1
 88.001 616 l 1
 130.248 660 l 1
258 574 m 0
 258 495.8 340 310.075 340 183 c 0
 340 113.992 318.949 69.3256 285 39 c 0
 259.571 16.2857 213 -3 171 -3 c 0
 84.4199 -3 1 63.3031 1 189 c 0
 1 262.2 44.6161 296.256 71 311 c 1
 25 366.333 2 413.333 2 452 c 0
 2 490 25.667 512 73 512 c 2
 154 512 l 1
 170 455 l 1
 63 455 l 1
 54.3333 443.667 50 430.333 50 415 c 0
 50 377.513 73.2086 343.233 96 325 c 1
 108.504 330.835 124.4 336 167 336 c 2
 193 336 l 1
 202 278 l 1
 61.0781 278 28 208.4 28 162 c 0
 28 103.358 78.8027 41 151 41 c 0
 193.8 41 238.598 63.6511 258 84 c 0
 293.143 120.857 308 143.916 308 213 c 0
 308 306.007 229.001 496.167 229.001 572.666 c 0
 229.001 613.878 242.6 659 289 659 c 1
 289 603 l 1
 275.667 603 258 594 258 574 c 0
EndSplineSet
EndChar

StartChar: u0A88
Encoding: 109 2696 109
Width: 430
Flags: HW
LayerCount: 2
Fore
SplineSet
289 607 m 0
 237.302 574.997 310.385 410.662 344.647 238 c 1
 368 128 328 0 171 2 c 1
 72.1597 3.44292 0 84 1 190 c 0
 1.69054 263.197 44.6161 297.256 71 312 c 1
 25 367.333 2 414.333 2 453 c 0
 2 491 25.6667 510 73 510 c 2
 154 510 l 1
 170 456 l 1
 78.3438 457.469 54.593 468.719 50 416 c 1
 48 370 73.2086 344.233 96 326 c 1
 124.181 339.15 155.907 337 193 337 c 1
 202 279 l 1
 -50.1355 279 0 44 151 43 c 1
 202 38 328 80 307 240 c 0
 292.327 351.793 230.625 516.855 230.625 582.643 c 0
 230.625 619.028 246.427 661 289 661 c 0
 322.2 661 349.972 633.041 372 554 c 1
 355 545 l 1
 330 613.714 310 620 289 607 c 0
EndSplineSet
EndChar

StartChar: u0A88.abvm
Encoding: 110 -1 110
Width: 430
Flags: HW
LayerCount: 2
Back
SplineSet
289 607 m 0
 274.707 607 258 591.392 258 575 c 0
 258 496.8 340 311.075 340 184 c 0
 340 114.992 324.941 72.2108 285 40 c 1
 251 14.6667 213 2 171 2 c 0
 84.4203 2 1 64.3031 1 190 c 0
 1 263.2 44.6161 297.256 71 312 c 1
 25 367.333 2 414.333 2 453 c 0
 2 491 25.6667 510 73 510 c 2
 154 510 l 1
 170 456 l 1
 63 456 l 1
 54.3333 444.667 50 431.333 50 416 c 0
 50 378.513 73.2086 344.233 96 326 c 1
 108.504 331.835 124.4 337 167 337 c 2
 193 337 l 1
 202 279 l 1
 61.0781 279 28 209.4 28 163 c 0
 28 104.358 78.8031 43 151 43 c 0
 193.8 43 227.739 60.9998 258 85 c 1
 299.384 123.714 307 170.916 307 240 c 0
 307 266.667 300.333 304.667 287 354 c 2
 233 543 l 1
 231.511 554.914 231 567 231 573 c 0
 231 614.068 242.6 661 289 661 c 0
 322.2 661 349.973 633.041 372 554 c 1
 355 545 l 1
 329.661 602.013 312.868 607 289 607 c 0
133 665 m 5
 177 621 l 5
 133 577 l 5
 91 621 l 5
 133 665 l 5
EndSplineSet
Fore
SplineSet
133 665 m 1
 177 621 l 1
 133 577 l 1
 91 621 l 1
 133 665 l 1
289 661 m 0
 311.197 661 347.429 633.041 372 554 c 1
 356.002 549.435 l 0
 336.525 600.153 307.64 607.532 293.376 607.532 c 0
 277.218 607.532 259.5 593.921 259.5 564.5 c 0
 259.5 486.3 340 310.075 340 183 c 0
 340 113.992 318.949 69.3256 285 39 c 0
 259.571 16.2857 213 -3 171 -3 c 0
 84.4199 -3 1 63.3031 1 189 c 0
 1 262.2 44.6161 296.256 71 311 c 1
 25 366.333 2 413.333 2 452 c 0
 2 490 25.667 512 73 512 c 2
 154 512 l 1
 170 455 l 1
 63 455 l 1
 54.3333 443.667 50 430.333 50 415 c 0
 50 377.513 73.2086 343.233 96 325 c 1
 108.504 330.835 124.4 336 167 336 c 2
 193 336 l 1
 202 278 l 1
 61.0781 278 28 208.4 28 162 c 0
 28 103.358 78.8027 41 151 41 c 0
 193.8 41 238.598 63.6511 258 84 c 0
 293.143 120.857 308 143.916 308 213 c 0
 308 306.007 229.001 496.167 229.001 572.666 c 0
 229.001 613.5 241.5 661 289 661 c 0
EndSplineSet
EndChar

StartChar: u0A89
Encoding: 111 2697 111
Width: 499
Flags: HW
LayerCount: 2
Back
SplineSet
215 55 m 4
 289.05 55 334 97.4 334 161 c 4
 334 200.025 318.416 232.944 289 253 c 5
 273.844 244.085 247.804 236 197 236 c 5
 185 300 l 5
 304.734 300 341 359.4 341 399 c 4
 341 420.333 331.667 439.333 313 456 c 5
 192 456 l 5
 177 510 l 5
 263 510 l 6
 311.736 510 370 457.665 370 394 c 4
 370 328.451 354.7 296.972 313 267 c 5
 343.051 237.919 375 194.238 375 136 c 4
 375 72.6156 331.987 1 219 1 c 4
 79.4896 1 1 168.298 1 339 c 4
 1 501.728 74.2639 630 218 630 c 4
 281.089 630 326.991 610.394 364 554 c 5
 348 543 l 5
 330.528 570.455 301.465 594 240 594 c 4
 114.86 594 45 452.909 45 304 c 4
 45 152.342 113 55 215 55 c 4
EndSplineSet
Fore
SplineSet
215 52 m 0
 289.05 52 334 97.4 334 161 c 0
 334 200.025 318.416 232.944 289 253 c 1
 273.844 244.085 247.804 236 197 236 c 1
 185 300 l 1
 304.734 300 341 356.4 341 396 c 0
 341 417.333 331.667 437.333 313 454 c 1
 192 454 l 1
 177 513 l 1
 263 513 l 2
 311.736 513 372 448.418 372 388 c 0
 372 320 354.7 296.972 313 267 c 1
 343.051 237.919 375 194.238 375 136 c 0
 375 72.6156 331.987 -4 219 -4 c 0
 79.4893 -4 1 168.298 1 339 c 0
 1 501.728 74.2639 630 218 630 c 0
 281.089 630 326.991 610.394 364 554 c 1
 348 543 l 1
 330.528 570.455 301.465 594 240 594 c 0
 114.86 594 45 452.909 45 304 c 0
 45 152.342 113 52 215 52 c 0
EndSplineSet
EndChar

StartChar: u0A89.abvm
Encoding: 112 -1 112
Width: 499
Flags: HW
LayerCount: 2
Back
SplineSet
203 765 m 1
 247 721 l 1
 203 677 l 1
 161 721 l 1
 203 765 l 1
215 52 m 0
 289.05 52 334 97.4 334 161 c 0
 334 200.025 318.416 232.944 289 253 c 1
 273.844 244.085 247.804 236 197 236 c 1
 185 300 l 1
 304.734 300 341 356.4 341 396 c 0
 341 417.333 331.667 437.333 313 454 c 1
 192 454 l 1
 177 513 l 1
 263 513 l 2
 311.736 513 372 448.418 372 388 c 0
 372 320 354.7 296.972 313 267 c 1
 343.051 237.919 375 194.238 375 136 c 0
 375 72.6156 331.987 -4 219 -4 c 0
 79.4893 -4 1 168.298 1 339 c 0
 1 501.728 74.2639 630 218 630 c 0
 281.089 630 326.991 610.394 364 554 c 1
 348 543 l 1
 330.528 570.455 301.465 594 240 594 c 0
 114.86 594 45 452.909 45 304 c 0
 45 152.342 113 52 215 52 c 0
215 55 m 0
 289.05 55 334 97.4 334 161 c 0
 334 200.025 318.416 232.944 289 253 c 1
 273.844 244.085 247.804 236 197 236 c 1
 185 300 l 1
 304.734 300 341 359.4 341 399 c 0
 341 420.333 331.667 439.333 313 456 c 1
 192 456 l 1
 177 510 l 1
 263 510 l 2
 311.736 510 370 457.665 370 394 c 0
 370 328.451 354.7 296.972 313 267 c 1
 343.051 237.919 375 194.238 375 136 c 0
 375 72.6156 331.987 1 219 1 c 0
 79.4896 1 1 168.298 1 339 c 0
 1 501.728 74.2639 630 218 630 c 0
 281.089 630 326.991 610.394 364 554 c 1
 348 543 l 1
 337.145 560.057 312.4 593 259 593 c 128
 251 593 244.667 593.333 240 594 c 0
 114.86 594 45 452.909 45 304 c 0
 45 152.342 113 55 215 55 c 0
203 765 m 1
 247 721 l 1
 203 677 l 1
 161 721 l 1
 203 765 l 1
EndSplineSet
Fore
SplineSet
203 765 m 1
 247 721 l 1
 203 677 l 1
 161 721 l 1
 203 765 l 1
203 765 m 1
 247 721 l 1
 203 677 l 1
 161 721 l 1
 203 765 l 1
215 52 m 0
 289.05 52 334 97.4 334 161 c 0
 334 200.025 318.416 232.944 289 253 c 1
 273.844 244.085 247.804 236 197 236 c 1
 185 300 l 1
 304.734 300 341 356.4 341 396 c 0
 341 417.333 331.667 437.333 313 454 c 1
 192 454 l 1
 177 513 l 1
 263 513 l 2
 311.736 513 372 448.418 372 388 c 0
 372 320 354.7 296.972 313 267 c 1
 343.051 237.919 375 194.238 375 136 c 0
 375 72.6156 331.987 -4 219 -4 c 0
 79.4893 -4 1 168.298 1 339 c 0
 1 501.728 74.2639 630 218 630 c 0
 281.089 630 326.991 610.394 364 554 c 1
 348 543 l 1
 330.528 570.455 301.465 594 240 594 c 0
 114.86 594 45 452.909 45 304 c 0
 45 152.342 113 52 215 52 c 0
EndSplineSet
EndChar

StartChar: u0A8A
Encoding: 113 2698 113
Width: 499
Flags: HW
LayerCount: 2
Back
SplineSet
219 1 m 4
 79.4896 1 1 168.298 1 339 c 4
 1 508.954 91.9911 661 239 661 c 4
 390.25 661 467 548.478 467 456 c 6
 467 51 l 6
 467 43.6667 470 40 476 40 c 260
 490 40 506.208 60.6355 511 81 c 5
 562 26 l 5
 550.191 10.6477 526.816 1 499 1 c 4
 458.6 1 413 17 413 81 c 6
 413 510 l 6
 413 568.043 335.286 619 268 619 c 4
 197.864 619 48 544.873 48 307 c 4
 48 172.25 100.523 55 215 55 c 4
 289.05 55 334 97.4 334 161 c 4
 334 200.025 318.416 232.944 289 253 c 5
 273.844 244.085 247.804 236 197 236 c 5
 185 300 l 5
 304.734 300 341 359.4 341 399 c 4
 341 420.333 331.667 439.333 313 456 c 5
 192 456 l 5
 177 510 l 5
 263 510 l 6
 311.736 510 370 457.665 370 394 c 4
 370 328.451 354.7 296.972 313 267 c 5
 343.051 237.919 375 194.238 375 136 c 4
 375 72.6156 331.987 1 219 1 c 4
EndSplineSet
Fore
SplineSet
219 -3 m 0
 79.4893 -3 1 168.298 1 339 c 0
 1 508.954 91.9911 661 239 661 c 0
 390.25 661 467 548.479 467 456 c 2
 467 47 l 2
 467 39.667 470 36 476 36 c 256
 490 36 506.208 56.6357 511 77 c 1
 562 22 l 1
 550.191 6.64746 526.816 -3 499 -3 c 0
 458.6 -3 413 13 413 77 c 2
 413 510 l 2
 413 568.043 335.286 619 268 619 c 0
 197.864 619 48 544.873 48 307 c 0
 48 172.25 100.523 51 215 51 c 0
 289.05 51 334 97.4 334 161 c 0
 334 200.025 318.416 232.944 289 253 c 1
 273.844 244.085 247.804 236 197 236 c 1
 185 300 l 1
 304.734 300 341 359.4 341 399 c 0
 341 420.333 331.667 439.333 313 456 c 1
 192 456 l 1
 177 510 l 1
 263 510 l 2
 311.736 510 370 457.665 370 394 c 0
 370 328.451 354.7 296.972 313 267 c 1
 343.051 237.919 375 194.238 375 136 c 0
 375 72.6156 331.987 -3 219 -3 c 0
EndSplineSet
EndChar

StartChar: u0A8A.abvm
Encoding: 114 -1 114
Width: 663
Flags: HW
LayerCount: 2
Back
SplineSet
219 1 m 4
 79.4896 1 1 168.298 1 339 c 4
 1 508.954 91.9911 661 239 661 c 4
 390.25 661 467 548.478 467 456 c 6
 467 51 l 6
 467 43.6667 470 40 476 40 c 260
 490 40 506.208 60.6355 511 81 c 5
 562 26 l 5
 550.191 10.6477 526.816 1 499 1 c 4
 458.6 1 413 17 413 81 c 6
 413 510 l 6
 413 568.043 335.286 619 268 619 c 4
 201.502 619 136.49 566.554 97 508 c 4
 75.5945 475.426 48 406.889 48 307 c 4
 48 172.25 100.523 55 215 55 c 4
 289.05 55 334 97.4 334 161 c 4
 334 200.025 318.416 232.944 289 253 c 5
 273.844 244.085 247.804 236 197 236 c 5
 185 300 l 5
 304.734 300 341 359.4 341 399 c 4
 341 420.333 331.667 439.333 313 456 c 5
 192 456 l 5
 177 510 l 5
 263 510 l 6
 311.736 510 370 457.665 370 394 c 4
 370 328.451 354.7 296.972 313 267 c 5
 343.051 237.919 375 194.238 375 136 c 4
 375 72.6156 331.987 1 219 1 c 4
473 684 m 5
 516 640 l 5
 473 596 l 5
 431 640 l 5
 473 684 l 5
EndSplineSet
Fore
SplineSet
219 -4 m 0
 79.4893 -4 1 168.298 1 339 c 0
 1 508.954 91.9911 661 239 661 c 0
 390.25 661 467 548.479 467 456 c 2
 467 46 l 2
 467 38.667 470 35 476 35 c 256
 490 35 506.208 55.6357 511 76 c 1
 562 21 l 1
 550.191 5.64746 526.816 -4 499 -4 c 0
 458.6 -4 413 12 413 76 c 2
 413 510 l 2
 413 568.043 335.286 619 268 619 c 0
 197.864 619 48 544.873 48 307 c 0
 48 172.25 100.523 50 215 50 c 0
 289.05 50 334 97.4 334 161 c 0
 334 200.025 318.416 232.944 289 253 c 1
 273.844 244.085 247.804 236 197 236 c 1
 185 300 l 1
 304.734 300 341 359.4 341 399 c 0
 341 420.333 331.667 439.333 313 456 c 1
 192 456 l 1
 177 510 l 1
 263 510 l 2
 311.736 510 370 457.665 370 394 c 0
 370 328.451 354.7 296.972 313 267 c 1
 343.051 237.919 375 194.238 375 136 c 0
 375 72.6156 331.987 -4 219 -4 c 0
473 684 m 1
 516 640 l 1
 473 596 l 1
 431 640 l 1
 473 684 l 1
EndSplineSet
EndChar

StartChar: u0A8B
Encoding: 115 2699 115
Width: 741
Flags: HW
LayerCount: 2
Fore
SplineSet
572 442 m 4
 572 409.6 542.342 380.171 504 361 c 5
 504 291 l 5
 570.899 291 607.455 279.491 629.5 216 c 132
 637.833 192 642 166.333 642 139 c 4
 642 106.333 636.333 79.3333 625 58 c 4
 605.503 17.8587 564.222 1 487 1 c 5
 482.288 7.28211 469.157 70.5297 463 89 c 5
 493 77 517.667 71 537 71 c 4
 584.116 71 608 102.704 608 145 c 4
 608 213 554.412 230 524 230 c 4
 504 230 485.667 224.333 469 213 c 5
 469 341 l 5
 316 240 l 5
 316 51 l 6
 316 43.6667 319 40 325 40 c 260
 339.4 40 355.414 62.0076 361 81 c 5
 412 26 l 5
 404.825 16.6729 386.4 1 348 1 c 4
 307.6 1 262 17 262 81 c 6
 262 194 l 5
 255 194 l 5
 74 72 l 5
 42 124 l 5
 232 254 l 5
 147 396 l 5
 130.558 415.432 86.2494 419 48 419 c 6
 33.5 419 l 134
 29.8333 419 26.6667 418.667 24 418 c 5
 3 474 l 5
 120 474 l 6
 158.192 474 244.66 296.68 263 260 c 5
 263 510 l 5
 317 452 l 5
 317 313 l 5
 466 415 l 5
 465.333 421 465 425.333 465 428 c 4
 465 477.6 493.8 493 513 493 c 4
 547.988 493 572 473.966 572 442 c 4
EndSplineSet
EndChar

StartChar: u0A8D
Encoding: 116 2701 116
Width: 715
Flags: HW
LayerCount: 2
Back
SplineSet
484 537 m 4
 383.325 537 355 597.6 355 638 c 4
 355 673.333 371.333 699.333 404 716 c 5
 459 668 l 5
 434.48 661.189 415 632.982 415 607 c 4
 415 581.979 430.879 575 455 575 c 4
 522.2 575 557.709 647.672 567 690 c 5
 609 613 l 5
 565.97 546.663 518.884 537 484 537 c 4
260 364 m 0
 260 280.076 211.589 222 105 222 c 1
 119.825 158.748 161.05 123.893 220.768 123.893 c 0
 286.349 123.893 327.141 165.93 332 198 c 1
 329 442 l 1
 383 380 l 1
 383 294 l 1
 391 286 401 282 413 282 c 0
 420.814 282 443.411 284.357 466 309 c 1
 466 513 l 1
 519 454 l 1
 519 55 l 2
 519 49.2998 520.8 40 528 40 c 256
 542.4 40 558.414 62.0078 564 81 c 1
 613 24 l 1
 599.14 5.9834 573.896 -4.23438 548.253 -4.23438 c 0
 510.395 -4.23438 467.004 19.3057 467.004 84.2666 c 1
 467.004 108.784 466.135 101.689 466 229 c 1
 436 231 403.095 239.271 384 261 c 1
 384 160 l 1
 378 122 318.297 72 240 72 c 0
 172.4 72 96 111 71 222 c 1
 19 233 0 272.6 0 305 c 0
 0 329.5 6 345 37 347 c 1
 75 346 88 321 96 274 c 1
 155.637 274 234 313 235 389 c 1
 232.502 417.362 225 440 214 454 c 1
 72 454 l 1
 40 513 l 1
 190 513 l 1
 235 487 260 430.368 260 364 c 0
528 40 m 1280
613 24 m 1025
384 261 m 1025
240 72 m 1024
71 222 m 1025
37 347 m 1024
528 40 m 1280
613 24 m 1025
384 261 m 1025
71 222 m 1025
37 347 m 1024
EndSplineSet
Fore
SplineSet
484 537 m 0
 383.325 537 355 597.6 355 638 c 0
 355 673.333 371.333 699.333 404 716 c 1
 459 668 l 1
 434.48 661.189 415 632.982 415 607 c 0
 415 581.979 430.879 575 455 575 c 0
 522.2 575 557.709 647.672 567 690 c 1
 609 613 l 1
 565.97 546.663 518.884 537 484 537 c 0
260 364 m 0
 260 280.076 211.589 222 105 222 c 1
 119.825 158.748 161.05 123.893 220.768 123.893 c 0
 286.349 123.893 327.141 165.93 332 198 c 1
 329 442 l 1
 383 380 l 1
 383 294 l 1
 391 286 401 282 413 282 c 0
 420.814 282 443.411 284.357 466 309 c 1
 466 513 l 1
 519 454 l 1
 519 55 l 2
 519 49.2998 520.8 40 528 40 c 256
 542.4 40 558.414 62.0077 564 81 c 1
 613 24 l 1
 599.14 5.98327 573.897 -4.23436 548.253 -4.23436 c 0
 510.395 -4.23436 467.004 19.3056 467.004 84.2668 c 1
 467.004 108.784 466.135 101.689 466 229 c 1
 436 231 403.095 239.271 384 261 c 1
 384 160 l 1
 378 122 318.297 72 240 72 c 0
 172.4 72 96 111 71 222 c 1
 19 233 0 272.6 0 305 c 0
 0 329.5 6 345 37 347 c 1
 75 346 88 321 96 274 c 1
 155.637 274 234 313 235 389 c 1
 232.502 417.362 225 440 214 454 c 1
 72 454 l 1
 40 513 l 1
 190 513 l 1
 235 487 260 430.368 260 364 c 0
528 40 m 1280
613 24 m 1025
384 261 m 1025
240 72 m 1024
71 222 m 1025
37 347 m 1024
528 40 m 1280
613 24 m 1025
384 261 m 1025
71 222 m 1025
37 347 m 1024
EndSplineSet
EndChar

StartChar: u0A8F
Encoding: 117 2703 117
Width: 715
Flags: HW
LayerCount: 2
Back
SplineSet
324 666 m 4
 302.8 666 280.096 652.593 271 637 c 5
 216 714 l 5
 227.333 730.667 246 739 272 739 c 4
 304.086 739 333.374 725.812 350 708 c 6
 500 539 l 5
 470 522 l 5
 342 662 l 5
 336.667 664.667 330.667 666 324 666 c 4
260 364 m 0
 260 280.076 211.589 222 105 222 c 1
 119.825 158.748 161.05 123.893 220.768 123.893 c 0
 286.349 123.893 327.141 165.93 332 198 c 1
 329 442 l 1
 383 380 l 1
 383 294 l 1
 391 286 401 282 413 282 c 0
 420.814 282 443.411 284.357 466 309 c 1
 466 513 l 1
 519 454 l 1
 519 55 l 2
 519 49.2998 520.8 40 528 40 c 256
 542.4 40 558.414 62.0078 564 81 c 1
 613 24 l 1
 599.14 5.9834 573.896 -4.23438 548.253 -4.23438 c 0
 510.395 -4.23438 467.004 19.3057 467.004 84.2666 c 1
 467.004 108.784 466.135 101.689 466 229 c 1
 436 231 403.095 239.271 384 261 c 1
 384 160 l 1
 378 122 318.297 72 240 72 c 0
 172.4 72 96 111 71 222 c 1
 19 233 0 272.6 0 305 c 0
 0 329.5 6 345 37 347 c 1
 75 346 88 321 96 274 c 1
 155.637 274 234 313 235 389 c 1
 232.502 417.362 225 440 214 454 c 1
 72 454 l 1
 40 513 l 1
 190 513 l 1
 235 487 260 430.368 260 364 c 0
528 40 m 1280
613 24 m 1025
384 261 m 1025
240 72 m 1024
71 222 m 1025
37 347 m 1024
528 40 m 1280
613 24 m 1025
384 261 m 1025
71 222 m 1025
37 347 m 1024
EndSplineSet
Fore
SplineSet
320 666 m 0
 298.8 666 276.096 652.593 267 637 c 1
 212 714 l 1
 223.333 730.667 242 739 268 739 c 0
 300.086 739 329.374 725.812 346 708 c 2
 496 539 l 1
 466 522 l 1
 338 662 l 1
 332.667 664.667 326.667 666 320 666 c 0
260 364 m 0
 260 280.076 211.589 222 105 222 c 1
 119.825 158.748 161.05 123.893 220.768 123.893 c 0
 286.349 123.893 327.141 165.93 332 198 c 1
 329 442 l 1
 383 380 l 1
 383 294 l 1
 391 286 401 282 413 282 c 0
 420.814 282 443.411 284.357 466 309 c 1
 466 513 l 1
 519 454 l 1
 519 55 l 2
 519 49.2998 520.8 40 528 40 c 256
 542.4 40 558.414 62.0077 564 81 c 1
 613 24 l 1
 599.14 5.98327 573.897 -4.23436 548.253 -4.23436 c 0
 510.395 -4.23436 467.004 19.3056 467.004 84.2668 c 1
 467.004 108.784 466.135 101.689 466 229 c 1
 436 231 403.095 239.271 384 261 c 1
 384 160 l 1
 378 122 318.297 72 240 72 c 0
 172.4 72 96 111 71 222 c 1
 19 233 0 272.6 0 305 c 0
 0 329.5 6 345 37 347 c 1
 75 346 88 321 96 274 c 1
 155.637 274 234 313 235 389 c 1
 232.502 417.362 225 440 214 454 c 1
 72 454 l 1
 40 513 l 1
 190 513 l 1
 235 487 260 430.368 260 364 c 0
528 40 m 1280
613 24 m 1025
384 261 m 1025
240 72 m 1024
71 222 m 1025
37 347 m 1024
528 40 m 1280
613 24 m 1025
384 261 m 1025
71 222 m 1025
37 347 m 1024
EndSplineSet
EndChar

StartChar: u0A90
Encoding: 118 2704 118
Width: 715
Flags: HW
HStem: -4.23438 44.2344<519.293 581.161> 72 51.8926<157.482 294.149> 222 125<27.0736 76.2752> 222 52<105 174.186> 454 59<72 216.608> 664 20G<181.333 210> 713 88<327.448 398.797>
VStem: 0 96<275.177 331.611> 235 25<343.252 438.994> 332 52<158.955 261 282.495 380> 466 53<40.9333 231.532 291.237 454>
LayerCount: 2
Back
SplineSet
370 713 m 4xcfe0
 356.118 713 340.33 705.95 332 700 c 5
 307 791 l 5
 316.333 797.667 327.667 801 341 801 c 4
 377 801 416.635 772.953 431 739 c 5
 513 529 l 5
 480 524 l 5
 406 699 l 5
 396.667 708.333 384.667 713 370 713 c 4xcfe0
123 640 m 5
 132.086 667.259 162.667 684 200 684 c 4
 220 684 237.667 679.333 253 670 c 6
 442 545 l 5
 418 520 l 5
 255.692 621.82 259.155 621.859 248.338 621.859 c 4
 221.552 621.859 199.101 597.577 196 580 c 5
 123 640 l 5
260 364 m 0
 260 280.076 211.589 222 105 222 c 1xdfe0
 119.825 158.748 161.05 123.893 220.768 123.893 c 0
 286.349 123.893 327.141 165.93 332 198 c 1
 329 442 l 1
 383 380 l 1
 383 294 l 1
 391 286 401 282 413 282 c 0
 420.814 282 443.411 284.357 466 309 c 1
 466 513 l 1
 519 454 l 1
 519 55 l 2
 519 49.2998 520.8 40 528 40 c 256
 542.4 40 558.414 62.0078 564 81 c 1
 613 24 l 1
 599.14 5.9834 573.896 -4.23438 548.253 -4.23438 c 0
 510.395 -4.23438 467.004 19.3057 467.004 84.2666 c 1
 467.004 108.784 466.135 101.689 466 229 c 1
 436 231 403.095 239.271 384 261 c 1
 384 160 l 1
 378 122 318.297 72 240 72 c 0
 172.4 72 96 111 71 222 c 1
 19 233 0 272.6 0 305 c 0
 0 329.5 6 345 37 347 c 1xefe0
 75 346 88 321 96 274 c 1xdfe0
 155.637 274 234 313 235 389 c 1
 232.502 417.362 225 440 214 454 c 1
 72 454 l 1
 40 513 l 1
 190 513 l 1
 235 487 260 430.368 260 364 c 0
528 40 m 1280
613 24 m 1025
384 261 m 1025
240 72 m 1024
71 222 m 1025xefe0
37 347 m 1024
528 40 m 1280
613 24 m 1025
384 261 m 1025
71 222 m 1025
37 347 m 1024
EndSplineSet
Fore
SplineSet
365 710 m 0xcfe0
 351.118 710 335.33 702.95 327 697 c 1
 302 788 l 1
 311.333 794.667 322.667 798 336 798 c 0
 372 798 411.635 769.953 426 736 c 1
 519 527 l 1
 486 521 l 1
 401 696 l 1
 391.667 705.333 379.667 710 365 710 c 0xcfe0
131 640 m 1
 140.086 667.259 170.667 684 208 684 c 0
 228 684 245.667 679.333 261 670 c 2
 450 545 l 1
 426 520 l 1
 263.692 621.82 267.155 621.858 256.338 621.858 c 0
 229.553 621.858 207.102 597.577 204 580 c 1
 131 640 l 1
260 364 m 0
 260 280.076 211.589 222 105 222 c 5
 119.825 158.748 161.05 123.893 220.768 123.893 c 4
 286.349 123.893 327.141 165.93 332 198 c 5
 329 442 l 5
 383 380 l 5
 383 294 l 5
 391 286 401 282 413 282 c 4
 420.814 282 443.411 284.357 466 309 c 5
 466 513 l 5
 519 454 l 5
 519 55 l 6
 519 49.2998 520.8 40 528 40 c 260
 542.4 40 558.414 62.0077 564 81 c 5
 613 24 l 5
 599.14 5.98327 573.897 -4.23436 548.253 -4.23436 c 4
 510.395 -4.23436 467.004 19.3056 467.004 84.2668 c 5
 467.004 108.784 466.135 101.689 466 229 c 5
 436 231 403.095 239.271 384 261 c 5
 384 160 l 5
 378 122 318.297 72 240 72 c 4
 172.4 72 96 111 71 222 c 5
 19 233 0 272.6 0 305 c 4
 0 329.5 6 345 37 347 c 5
 75 346 88 321 96 274 c 5
 177.18 274 235.326 333.258 235.326 394.032 c 4
 235.326 414.593 228.671 435.328 214 454 c 5
 72 454 l 5
 40 513 l 5
 190 513 l 5
 235 487 260 430.368 260 364 c 0
528 40 m 1284
613 24 m 1029
384 261 m 1029
240 72 m 1028
71 222 m 1029
37 347 m 1028
528 40 m 1284
613 24 m 1029
384 261 m 1029
71 222 m 1029
37 347 m 1028
EndSplineSet
EndChar

StartChar: u0A91
Encoding: 119 2705 119
Width: 715
Flags: HW
LayerCount: 2
Back
SplineSet
686 537 m 0
 585.325 537 557 597.6 557 638 c 0
 557 673.333 573.333 699.333 606 716 c 1
 661 668 l 1
 636.48 661.189 617 632.982 617 607 c 0
 617 581.979 632.879 575 657 575 c 0
 724.2 575 759.709 647.672 769 690 c 1
 811 613 l 1
 767.97 546.663 720.884 537 686 537 c 0
802 1 m 4
 761.6 1 716 17 716 81 c 6
 716 514 l 5
 770 454 l 5
 770 51 l 6
 770 43.667 773 40 779 40 c 260
 793.4 40 809.414 62.0078 815 81 c 5
 866 26 l 5
 858.825 16.6729 840.4 1 802 1 c 4
260 364 m 0
 260 280.076 211.589 222 105 222 c 1
 119.825 158.748 161.05 123.893 220.768 123.893 c 0
 286.349 123.893 327.141 165.93 332 198 c 1
 329 442 l 1
 383 380 l 1
 383 294 l 1
 391 286 401 282 413 282 c 0
 420.814 282 443.411 284.357 466 309 c 1
 466 513 l 1
 519 454 l 1
 519 55 l 2
 519 49.2998 520.8 40 528 40 c 256
 542.4 40 558.414 62.0078 564 81 c 1
 613 24 l 1
 599.14 5.9834 573.896 -4.23438 548.253 -4.23438 c 0
 510.395 -4.23438 467.004 19.3057 467.004 84.2666 c 1
 467.004 108.784 466.135 101.689 466 229 c 1
 436 231 403.095 239.271 384 261 c 1
 384 160 l 1
 378 122 318.297 72 240 72 c 0
 172.4 72 96 111 71 222 c 1
 19 233 0 272.6 0 305 c 0
 0 329.5 6 345 37 347 c 1
 75 346 88 321 96 274 c 1
 155.637 274 234 313 235 389 c 1
 232.502 417.362 225 440 214 454 c 1
 72 454 l 1
 40 513 l 1
 190 513 l 1
 235 487 260 430.368 260 364 c 0
528 40 m 1280
613 24 m 1025
384 261 m 1025
240 72 m 1024
71 222 m 1025
37 347 m 1024
528 40 m 1280
613 24 m 1025
384 261 m 1025
71 222 m 1025
37 347 m 1024
EndSplineSet
Fore
SplineSet
802 -4 m 0
 761.6 -4 716 12 716 76 c 2
 716 514 l 1
 770 454 l 1
 770 46 l 2
 770 38.667 773 35 779 35 c 256
 793.4 35 809.414 57.0078 815 76 c 1
 866 21 l 1
 858.825 11.6729 840.4 -4 802 -4 c 0
691 537 m 0
 590.325 537 562 597.6 562 638 c 0
 562 673.333 578.333 699.333 611 716 c 1
 666 668 l 1
 641.48 661.189 622 632.982 622 607 c 0
 622 581.979 637.879 575 662 575 c 0
 729.2 575 764.709 647.672 774 690 c 1
 816 613 l 1
 772.97 546.663 725.884 537 691 537 c 0
716 514 m 1025
105 222 m 1
 119.825 158.748 161.05 123.893 220.768 123.893 c 0
 286.349 123.893 327.141 165.93 332 198 c 1
 329 442 l 1
 383 380 l 1
 383 294 l 1
 391 286 401 282 413 282 c 0
 420.814 282 443.411 284.357 466 309 c 1
 466 513 l 1
 519 454 l 1
 519 55 l 2
 519 49.2998 520.8 40 528 40 c 256
 542.4 40 558.414 62.0077 564 81 c 1
 613 24 l 1
 599.14 5.98327 573.897 -4.23436 548.253 -4.23436 c 0
 510.395 -4.23436 467.004 19.3056 467.004 84.2668 c 1
 467.004 108.784 466.135 101.689 466 229 c 1
 436 231 403.095 239.271 384 261 c 1
 384 160 l 1
 378 122 318.297 72 240 72 c 0
 172.4 72 96 111 71 222 c 1
 19 233 0 272.6 0 305 c 0
 0 329.5 6 345 37 347 c 1
 75 346 88 321 96 274 c 1
 155.637 274 234 313 235 389 c 1
 232.502 417.362 225 440 214 454 c 1
 72 454 l 1
 40 513 l 1
 190 513 l 1
 230.671 489.501 261.119 425.653 261.119 363.731 c 0
 261.119 291.557 219.754 222 105 222 c 1
528 40 m 1280
613 24 m 1025
384 261 m 1025
240 72 m 1024
71 222 m 1025
37 347 m 1024
528 40 m 1280
613 24 m 1025
384 261 m 1025
71 222 m 1025
37 347 m 1024
EndSplineSet
EndChar

StartChar: u0A93
Encoding: 120 2707 120
Width: 715
Flags: HW
LayerCount: 2
Back
SplineSet
526 666 m 4
 504.8 666 482.096 652.593 473 637 c 5
 418 714 l 5
 429.333 730.667 448 739 474 739 c 4
 506.086 739 535.374 725.812 552 708 c 6
 702 539 l 5
 672 522 l 5
 544 662 l 5
 538.667 664.667 532.667 666 526 666 c 4
802 1 m 0
 761.6 1 716 17 716 81 c 2
 716 514 l 1
 770 454 l 1
 770 51 l 2
 770 43.667 773 40 779 40 c 256
 793.4 40 809.414 62.0078 815 81 c 1
 866 26 l 1
 858.825 16.6729 840.4 1 802 1 c 0
260 364 m 0
 260 280.076 211.589 222 105 222 c 1
 119.825 158.748 161.05 123.893 220.768 123.893 c 0
 286.349 123.893 327.141 165.93 332 198 c 1
 329 442 l 1
 383 380 l 1
 383 294 l 1
 391 286 401 282 413 282 c 0
 420.814 282 443.411 284.357 466 309 c 1
 466 513 l 1
 519 454 l 1
 519 55 l 2
 519 49.2998 520.8 40 528 40 c 256
 542.4 40 558.414 62.0078 564 81 c 1
 613 24 l 1
 599.14 5.9834 573.896 -4.23438 548.253 -4.23438 c 0
 510.395 -4.23438 467.004 19.3057 467.004 84.2666 c 1
 467.004 108.784 466.135 101.689 466 229 c 1
 436 231 403.095 239.271 384 261 c 1
 384 160 l 1
 378 122 318.297 72 240 72 c 0
 172.4 72 96 111 71 222 c 1
 19 233 0 272.6 0 305 c 0
 0 329.5 6 345 37 347 c 1
 75 346 88 321 96 274 c 1
 155.637 274 234 313 235 389 c 1
 232.502 417.362 225 440 214 454 c 1
 72 454 l 1
 40 513 l 1
 190 513 l 1
 235 487 260 430.368 260 364 c 0
528 40 m 1280
613 24 m 1025
384 261 m 1025
240 72 m 1024
71 222 m 1025
37 347 m 1024
528 40 m 1280
613 24 m 1025
384 261 m 1025
71 222 m 1025
37 347 m 1024
EndSplineSet
Fore
SplineSet
563 676 m 0
 541.8 676 519.096 662.593 510 647 c 1
 455 724 l 1
 466.333 740.667 485 749 511 749 c 0
 543.086 749 572.374 735.812 589 718 c 2
 739 549 l 1
 709 532 l 1
 581 672 l 1
 575.667 674.667 569.667 676 563 676 c 0
802 1 m 0
 761.6 1 716 17 716 81 c 2
 716 514 l 1
 770 454 l 1
 770 51 l 2
 770 43.667 773 40 779 40 c 256
 793.4 40 809.414 62.0078 815 81 c 1
 866 26 l 1
 858.825 16.6729 840.4 1 802 1 c 0
260 364 m 0
 260 280.076 211.589 222 105 222 c 1
 119.825 158.748 161.05 123.893 220.768 123.893 c 0
 286.349 123.893 327.141 165.93 332 198 c 1
 329 442 l 1
 383 380 l 1
 383 294 l 1
 391 286 401 282 413 282 c 0
 420.814 282 443.411 284.357 466 309 c 1
 466 513 l 1
 519 454 l 1
 519 55 l 2
 519 49.2998 520.8 40 528 40 c 256
 542.4 40 558.414 62.0077 564 81 c 1
 613 24 l 1
 599.14 5.98327 573.897 -4.23436 548.253 -4.23436 c 0
 510.395 -4.23436 467.004 19.3056 467.004 84.2668 c 1
 467.004 108.784 466.135 101.689 466 229 c 1
 436 231 403.095 239.271 384 261 c 1
 384 160 l 1
 378 122 318.297 72 240 72 c 0
 172.4 72 96 111 71 222 c 1
 19 233 0 272.6 0 305 c 0
 0 329.5 6 345 37 347 c 1
 75 346 88 321 96 274 c 1
 155.637 274 234 313 235 389 c 1
 232.502 417.362 225 440 214 454 c 1
 72 454 l 1
 40 513 l 1
 190 513 l 1
 235 487 260 430.368 260 364 c 0
528 40 m 1280
613 24 m 1025
384 261 m 1025
240 72 m 1024
71 222 m 1025
37 347 m 1024
528 40 m 1280
613 24 m 1025
384 261 m 1025
71 222 m 1025
37 347 m 1024
EndSplineSet
EndChar

StartChar: u0A94
Encoding: 121 2708 121
Width: 715
Flags: HW
LayerCount: 2
Back
SplineSet
572 713 m 0
 558.118 713 542.33 705.95 534 700 c 1
 509 791 l 1
 518.333 797.667 529.667 801 543 801 c 0
 579 801 618.635 772.953 633 739 c 1
 715 529 l 1
 682 524 l 1
 608 699 l 1
 598.667 708.333 586.667 713 572 713 c 0
325 640 m 1
 334.086 667.259 364.667 684 402 684 c 0
 422 684 439.667 679.333 455 670 c 2
 644 545 l 1
 620 520 l 1
 459 621 l 1
 428.539 627.092 401.431 599.443 398 580 c 1
 325 640 l 1
802 1 m 4
 761.6 1 716 17 716 81 c 6
 716 514 l 5
 770 454 l 5
 770 51 l 6
 770 43.667 773 40 779 40 c 260
 793.4 40 809.414 62.0078 815 81 c 5
 866 26 l 5
 858.825 16.6729 840.4 1 802 1 c 4
260 364 m 0
 260 280.076 211.589 222 105 222 c 1
 119.825 158.748 161.05 123.893 220.768 123.893 c 0
 286.349 123.893 327.141 165.93 332 198 c 1
 329 442 l 1
 383 380 l 1
 383 294 l 1
 391 286 401 282 413 282 c 0
 420.814 282 443.411 284.357 466 309 c 1
 466 513 l 1
 519 454 l 1
 519 55 l 2
 519 49.2998 520.8 40 528 40 c 256
 542.4 40 558.414 62.0078 564 81 c 1
 613 24 l 1
 599.14 5.9834 573.896 -4.23438 548.253 -4.23438 c 0
 510.395 -4.23438 467.004 19.3057 467.004 84.2666 c 1
 467.004 108.784 466.135 101.689 466 229 c 1
 436 231 403.095 239.271 384 261 c 1
 384 160 l 1
 378 122 318.297 72 240 72 c 0
 172.4 72 96 111 71 222 c 1
 19 233 0 272.6 0 305 c 0
 0 329.5 6 345 37 347 c 1
 75 346 88 321 96 274 c 1
 155.637 274 234 313 235 389 c 1
 232.502 417.362 225 440 214 454 c 1
 72 454 l 1
 40 513 l 1
 190 513 l 1
 235 487 260 430.368 260 364 c 0
528 40 m 1280
613 24 m 1025
384 261 m 1025
240 72 m 1024
71 222 m 1025
37 347 m 1024
528 40 m 1280
613 24 m 1025
384 261 m 1025
71 222 m 1025
37 347 m 1024
EndSplineSet
Fore
SplineSet
260 364 m 0
 260 280.076 211.589 222 105 222 c 1
 119.825 158.748 161.05 123.893 220.768 123.893 c 0
 286.349 123.893 327.141 165.93 332 198 c 1
 329 442 l 1
 383 380 l 1
 383 294 l 1
 391 286 401 282 413 282 c 0
 420.814 282 443.411 284.357 466 309 c 1
 466 513 l 1
 519 454 l 1
 519 55 l 2
 519 49.2998 520.8 40 528 40 c 256
 542.4 40 558.414 62.0077 564 81 c 1
 613 24 l 1
 599.14 5.98327 573.897 -4.23436 548.253 -4.23436 c 0
 510.395 -4.23436 467.004 19.3056 467.004 84.2668 c 1
 467.004 108.784 466.135 101.689 466 229 c 1
 436 231 403.095 239.271 384 261 c 1
 384 160 l 1
 378 122 318.297 72 240 72 c 0
 172.4 72 96 111 71 222 c 1
 19 233 0 272.6 0 305 c 0
 0 329.5 6 345 37 347 c 1
 75 346 88 321 96 274 c 1
 155.637 274 234 313 235 389 c 1
 232.502 417.362 225 440 214 454 c 1
 72 454 l 1
 40 513 l 1
 190 513 l 1
 235 487 260 430.368 260 364 c 0
528 40 m 1280
613 24 m 1025
384 261 m 1025
240 72 m 1024
71 222 m 1025
37 347 m 1024
528 40 m 1280
613 24 m 1025
384 261 m 1025
71 222 m 1025
37 347 m 1024
802 1 m 0
 761.6 1 716 17 716 81 c 2
 716 514 l 1
 770 454 l 1
 770 51 l 2
 770 43.667 773 40 779 40 c 256
 793.4 40 809.414 62.0078 815 81 c 1
 866 26 l 1
 858.825 16.6729 840.4 1 802 1 c 0
613 24 m 1025
613 24 m 1025
613 24 m 1025
587 713 m 0xcfe0
 573.118 713 557.33 705.95 549 700 c 1
 524 791 l 1
 533.333 797.667 544.667 801 558 801 c 0
 594 801 633.635 772.953 648 739 c 1
 741 530 l 1
 708 524 l 1
 623 699 l 1
 613.667 708.333 601.667 713 587 713 c 0xcfe0
353 643 m 1
 362.086 670.259 392.667 687 430 687 c 0
 450 687 467.667 682.333 483 673 c 2
 672 548 l 1
 648 523 l 1
 485.692 624.82 489.155 624.858 478.338 624.858 c 0
 451.553 624.858 429.102 600.577 426 583 c 1
 353 643 l 1
EndSplineSet
EndChar

StartChar: u0A95
Encoding: 122 2709 122
Width: 491
Flags: HW
HStem: 1 55<141.472 292.17> 461 59<181.676 273.258>
VStem: 115 55<369.625 447.348> 332 47<93.7758 218.463>
AnchorPoint: "abv" 217 551.5 basechar 0
AnchorPoint: "nkt" 418 76 basechar 0
AnchorPoint: "vtu" 256 248 basechar 0
LayerCount: 2
Fore
SplineSet
115 437 m 4
 115 488.103 153.155 520 209 520 c 4
 229.667 520 250.333 516.667 271 510 c 5
 296 456 l 5
 266.908 460.849 256.8 461 247 461 c 4
 182.8 461 170 429.8 170 409 c 4
 170 377.667 188.667 348 226 320 c 5
 364 372 l 5
 391 324 l 5
 294 288 l 5
 340.775 258.766 379 202.028 379 133 c 4
 379 52.825 327.084 1 241 1 c 4
 103.1 1 42.6624 96.8855 1 200 c 5
 21 209 l 5
 57.1577 123.854 106.113 56 218 56 c 4
 289.369 56 332 98.4047 332 156 c 4
 332 202.4 301.906 244.086 257 272 c 5
 124 222 l 5
 96 272 l 5
 196 308 l 5
 127.262 357.35 115 411.2 115 437 c 4
EndSplineSet
EndChar

StartChar: u0A95.half
Encoding: 123 -1 123
Width: 491
Flags: HW
LayerCount: 2
Fore
SplineSet
115 437 m 4
 115 488.103 153.155 520 209 520 c 4
 229.667 520 250.333 516.667 271 510 c 5
 296 456 l 5
 266.908 460.849 256.8 461 247 461 c 4
 182.8 461 170 429.8 170 409 c 4
 170 377.667 188.667 348 226 320 c 5
 364 315 l 5
 391 287 l 5
 294 288 l 5
 340.775 258.766 379 202.028 379 133 c 4
 379 52.825 327.084 1 241 1 c 4
 103.1 1 42.6624 96.8855 1 200 c 5
 21 209 l 5
 57.1577 123.854 106.113 56 218 56 c 4
 289.369 56 332 98.4047 332 156 c 4
 332 202.4 301.906 244.086 257 272 c 5
 124 222 l 5
 96 272 l 5
 196 308 l 5
 127.262 357.35 115 411.2 115 437 c 4
EndSplineSet
LCarets2: 1 0
Ligature2: "'half' Half Forms in Gujarati lookup 4 subtable" u0A95 u0ACD
EndChar

StartChar: u0A95.pres
Encoding: 124 -1 124
Width: 831
Flags: HW
LayerCount: 2
Back
SplineSet
579 1 m 0
 521.037 1 441.064 15.6041 379 122 c 1
 379 66.8617 343.034 1 241 1 c 0
 103.1 1 42.6624 96.8855 1 200 c 1
 21 209 l 1
 57.1577 123.854 106.113 56 218 56 c 0
 289.369 56 332 98.4047 332 156 c 0
 332 202.4 301.906 244.086 257 272 c 1
 124 222 l 1
 96 272 l 1
 196 308 l 1
 127.262 357.35 115 411.2 115 437 c 0
 115 488.103 153.155 520 209 520 c 0
 229.667 520 250 516.667 270 510 c 1
 295 456 l 1
 265.908 460.849 255.8 461 246 461 c 0
 181.8 461 169 429.8 169 409 c 0
 169 377.667 187.667 348 225 320 c 1
 363 372 l 1
 390 324 l 1
 293 288 l 1
 328.063 267.222 355.568 230.639 369 189 c 1
 405.811 114.19 455.172 56 557 56 c 0
 628.369 56 671 98.4047 671 156 c 0
 671 202.4 640.906 244.086 596 272 c 1
 464 222 l 1
 436 272 l 1
 535 308 l 1
 494.811 337.613 455 385.4 455 437 c 0
 455 487.679 493.095 520 548 520 c 0
 568.667 520 589 516.667 609 510 c 1
 634 456 l 1
 604.908 460.849 594.8 461 585 461 c 0
 520.3 461 509 429.8 509 409 c 0
 509 377.667 527.333 348 564 320 c 1
 702 372 l 1
 729 324 l 1
 632 288 l 1
 678.775 258.766 717 202.028 717 133 c 0
 717 52.825 665.084 1 579 1 c 0
EndSplineSet
Fore
SplineSet
579 -3 m 0
 521.037 -3 441.064 15.6041 379 122 c 1
 379 66.8617 343.034 -3 241 -3 c 0
 103.1 -3 42.6624 96.8855 1 200 c 1
 21 209 l 1
 57.1577 123.854 106.113 52 218 52 c 0
 289.369 52 332 98.4047 332 156 c 0
 332 202.4 301.906 244.086 257 272 c 1
 124 222 l 1
 96 272 l 1
 196 308 l 1
 127.262 357.35 115 411.2 115 437 c 0
 115 488.103 153.155 520 209 520 c 0
 229.667 520 250 517 270 513 c 1
 295 456 l 1
 265.908 460.849 255.8 461 246 461 c 0
 181.8 461 169 429.8 169 409 c 0
 169 377.667 187.667 348 225 320 c 1
 363 372 l 1
 390 324 l 1
 293 288 l 1
 328.063 267.222 355.568 230.639 369 189 c 1
 405.811 114.19 455.172 52 557 52 c 0
 628.369 52 671 98.4047 671 156 c 0
 671 202.4 640.906 244.086 596 272 c 1
 464 222 l 1
 436 272 l 1
 535 308 l 1
 494.811 337.613 455 385.4 455 437 c 0
 455 487.679 493.095 520 548 520 c 0
 568.667 520 588 517 609 513 c 1
 634 456 l 1
 604.908 460.849 594.8 461 585 461 c 0
 520.3 461 509 429.8 509 409 c 0
 509 377.667 527.333 348 564 320 c 1
 702 372 l 1
 729 324 l 1
 632 288 l 1
 678.775 258.766 717 202.028 717 133 c 0
 717 52.825 665.084 -3 579 -3 c 0
EndSplineSet
LCarets2: 1 0
Ligature2: "'pres' Pre Base Substitutions in Gujarati lookup 5 subtable" u0A95.half u0A95
EndChar

StartChar: u0A95.vatu
Encoding: 125 -1 125
Width: 491
Flags: HW
LayerCount: 2
Back
SplineSet
218 56 m 0
 303.013 56 332 112.194 332 155 c 256
 332 183 321 210 299 236 c 1
 180 107 l 1
 142 140 l 1
 256 271 l 1
 125 222 l 1
 97 272 l 1
 197 308 l 1
 128.262 357.35 116 411.2 116 437 c 0
 116 488.103 154.155 520 210 520 c 0
 230.667 520 251 516.667 271 510 c 1
 296 456 l 1
 266.908 460.849 256.8 461 247 461 c 0
 182.8 461 170 429.8 170 409 c 0
 170 377.667 188.667 348 226 320 c 1
 364 372 l 1
 391 324 l 1
 294 288 l 1
 340.775 258.766 379 202.028 379 133 c 0
 379 52.825 327.084 1 241 1 c 0
 103.1 1 42.6624 96.8855 1 200 c 1
 21 209 l 1
 57.1577 123.854 106.113 56 218 56 c 0
EndSplineSet
Fore
SplineSet
218 51 m 0
 303.013 51 332 112.194 332 155 c 256
 332 183 321 210 299 236 c 1
 180 107 l 1
 142 140 l 1
 256 271 l 1
 125 222 l 1
 97 272 l 1
 197 308 l 1
 128.262 357.35 116 411.2 116 437 c 0
 116 488.103 154.155 520 210 520 c 0
 230.667 520 251.333 517.667 271 513 c 1
 296 454 l 1
 268 461 256.8 461 247 461 c 0
 182.8 461 170 429.8 170 409 c 0
 170 377.667 188.667 348 226 320 c 1
 364 372 l 1
 391 324 l 1
 294 288 l 1
 340.775 258.766 379 202.028 379 133 c 0
 379 52.825 327.084 -4 241 -4 c 0
 103.1 -4 42.6624 96.8855 1 200 c 1
 21 209 l 1
 57.1577 123.854 106.113 51 218 51 c 0
EndSplineSet
LCarets2: 1 0
Ligature2: "'vatu' Vattu Variants in Gujarati lookup 3 subtable" u0A95 u0ACD_u0AB0
EndChar

StartChar: u0A95_u0AB7.akhn
Encoding: 126 -1 126
Width: 530
Flags: HW
HStem: 1 39<383.759 445.559> 1 58<69.8333 179.602> 242 43<203.02 314.625> 450 61<121.37 187.641>
VStem: 1 24<118.424 205.078> 74 44<376.186 471.843> 182 91<65.9715 152.021> 199 28<359.047 438.057> 329 54<41.5 452>
LayerCount: 2
Back
SplineSet
420 0 m 1050,0,0
159 450 m 0,0,1
 143.575 450 118 442.2 118 411 c 0,2,3
 118 396.6 123.53 363.706 150 339 c 1,4,5
 197.954 352.987 199 383 199 394 c 0,6,7
 199 405.333 195.667 417.667 189 431 c 1,8,9
 184.333 443.667 174.333 450 159 450 c 0,0,1
329 242 m 1,0,0
 329 86.501 l 2,2,-1
 329 22.1279 379.6 0 420 0 c 0,0,1
 458.4 0 471.825 21.7988 479 31.1807 c 1,10,11
 428 86.501 l 1,9,-1
 422.414 67.3984 406.9 40 392.5 40 c 256,7,8
 386.5 40 383 47.25 383 56.3262 c 2,5,6
 383 461.674 l 1,4,-1
 329 518 l 1,3,-1
 329 313 l 1,0,0
 307.586 298.913 274.05 285 245 285 c 0,10,11
 224.333 285 205.333 291 188 303 c 1,50,51
 212.397 318.858 227 348.478 227 386 c 0,48,49
 227 449.343 188.193 511 141 511 c 0,46,47
 122.65 511 74 497.8 74 445 c 0,44,45
 74 399.8 107.271 353.666 131 332 c 1,42,43
 83.873 319.237 1 274.4 1 188 c 0,40,41
 1 35.5508 86.7998 1 144 1 c 0,38,39
 168.667 1 191.333 6.66699 212 18 c 1,36,37
 252.453 -47.7363 198.818 -50.0908 189 -73 c 1,34,35
 228 -115 l 1,33,-1
 249.838 -104.601 266 -88.085 266 -55 c 0,31,32
 266 -21.4004 246.581 12.5088 233 29 c 1,29,30
 271.316 49.0703 273 94.002 273 108 c 0,27,28
 273 144.509 258.612 179 225 179 c 0,25,26
 186.606 179 174 152.6 174 135 c 0,23,24
 174 117 182 99 182 90 c 0,21,22
 182 68.5498 148.196 59 128 59 c 0,19,20
 72.4854 59 25 108.805 25 164 c 0,17,18
 25 245.331 130.501 264.334 172 292 c 1,15,16
 201.509 248.967 260.058 242.738 329 242 c 1,0,0
EndSplineSet
Fore
SplineSet
420 -1 m 1050,0,0
159 454.286 m 0,0,1
 143.575 454.286 118 444.333 118 415.285 c 0,2,3
 118 383.619 127 367.619 151.666 340.286 c 1,4,5
 198.413 353.921 199.001 385.636 199.001 397.414 c 0,0,0
 198.993 414.792 191.001 454.286 159 454.286 c 0,0,1
329 242 m 1,0,0
 260.058 242.738 212 257.5 170 291 c 1,15,16
 127 267.5 25 245.331 25 164 c 0,17,18
 25 108.805 72.4854 58 128 58 c 0,19,20
 148.196 58 176 60 191 67 c 1,21,22
 178 84 171.999 95.3184 171.999 127.332 c 0,0,0
 172.003 150.617 182 181.572 218.57 181.572 c 0,25,26
 252.183 181.572 273 143.509 273 107 c 0,27,28
 273 93.002 271.316 48.0703 233 28 c 1,29,30
 246.581 11.5088 266 -22.4004 266 -56 c 0,31,32
 266 -89.085 248.98 -99.4561 227.143 -109.855 c 1,33,-1
 181.714 -60.1426 l 1,34,35
 198.857 -56.7148 226.905 -51.4648 226.905 -23.7383 c 0,0,0
 226.905 -13.6201 222.815 -3.5752 212 14 c 1,36,37
 191.333 2.66699 168.667 0 144 0 c 0,38,39
 86.7998 0 1 35.5508 1 188 c 0,40,41
 1 266.571 60 307.714 131 332 c 1,42,43
 107.271 353.666 74 401.8 74 447 c 1,44,45
 74 498.594 106.366 513.009 139.524 513.009 c 0,0,0
 188.852 513.009 227 452.799 227 389 c 0,48,49
 227 351.478 212.397 318.858 188 303 c 1,50,51
 205.333 291 224.333 285 245 285 c 0,10,11
 274.05 285 307.586 298.913 329 313 c 1,0,0
 329 511 l 1,3,-1
 383 454.674 l 1,4,-1
 383 55.3262 l 2,5,6
 383 46.25 386.5 39 392.5 39 c 256,7,8
 406.9 39 422.414 66.3984 428 85.501 c 1,9,-1
 479 30.1807 l 1,10,11
 471.825 20.7988 458.4 -1 420 -1 c 0,0,1
 379.6 -1 329 21.1279 329 85.501 c 2,2,-1
 329 242 l 1,0,0
EndSplineSet
LCarets2: 2 0 0
Ligature2: "'akhn' Akhand in Gujarati lookup 0 subtable" u0A95 u0ACD u0AB7
EndChar

StartChar: u0A96
Encoding: 127 2710 127
Width: 396
Flags: HW
LayerCount: 2
Back
SplineSet
483 1 m 4
 442.6 1 397 17 397 81 c 6
 397 514 l 5
 451 454 l 5
 451 51 l 6
 451 43.667 454 40 460 40 c 260
 474.4 40 490.414 62.0078 496 81 c 5
 547 26 l 5
 539.825 16.6729 521.4 1 483 1 c 4
340 282 m 260
 362.956 282 392.471 293.118 405 314 c 5
 405 236 l 5
 395.667 234.667 388.667 234 384 234 c 4
 358 234 335.333 245 316 267 c 5
 316 140 l 6
 316 86.0127 273.05 52 221 52 c 4
 166.141 52 106 89.2393 106 178 c 6
 106 457 l 5
 100.667 460.333 95.333 462 90 462 c 5
 72 462 54 435 45 426 c 5
 1 480 l 5
 19 500 41 510 67 510 c 4
 104.2 510 160 492.448 160 393 c 6
 160 130.67 l 6
 161.333 99.3359 179.974 85.332 213.331 85.332 c 4
 242.333 85.332 263.667 112.667 263.668 158.682 c 5
 263 456 l 5
 316 398 l 5
 316 291 l 5
 320 285 328 282 340 282 c 260
EndSplineSet
Fore
SplineSet
483 -4 m 0
 442.6 -4 397 12 397 76 c 2
 397 234.953 l 1
 391.555 234.318 387.222 234 384 234 c 0
 358 234 335.333 245 316 267 c 1
 316 140 l 2
 316 86.0127 273.05 52 221 52 c 0
 166.141 52 106 89.2393 106 178 c 2
 106 457 l 1
 100.667 460.333 95.333 462 90 462 c 0
 72 462 54 435 45 426 c 1
 1 480 l 1
 19 500 41 514 67 514 c 0
 104.2 514 160 492.448 160 393 c 2
 160 130.67 l 1
 161.333 99.3359 179.974 85.332 213.331 85.332 c 0
 242.333 85.332 263.667 112.667 263.668 158.682 c 2
 263 456 l 1
 316 398 l 1
 316 291 l 1
 320 285 328 282 340 282 c 0
 358.944 282 382.354 289.572 397 303.953 c 1
 397 514 l 1
 451 454 l 1
 451 46 l 2
 451 38.667 454 35 460 35 c 0
 474.4 35 490.414 57.0078 496 76 c 1
 547 21 l 1
 539.825 11.6729 521.4 -4 483 -4 c 0
EndSplineSet
EndChar

StartChar: u0A96.half
Encoding: 128 -1 128
Width: 396
Flags: HW
LayerCount: 2
Back
SplineSet
340 282 m 260
 362.956 282 392.471 293.118 405 314 c 5
 405 236 l 5
 395.667 234.667 388.667 234 384 234 c 4
 358 234 335.333 245 316 267 c 5
 316 140 l 6
 316 86.0125 273.05 52 221 52 c 4
 166.141 52 106 89.2391 106 178 c 6
 106 457 l 5
 100.667 460.333 95.3333 462 90 462 c 4
 82.6667 462 74.6667 458 66 450 c 5
 45 426 l 5
 1 480 l 5
 19 500 41 510 67 510 c 4
 92.2921 510 138.112 497.5 152.5 450.5 c 132
 157.5 434.167 160 415 160 393 c 6
 160 122 l 6
 160 99.6 180.4 94 194 94 c 4
 214.986 94 247.622 104.47 263 126 c 5
 263 456 l 5
 316 398 l 5
 316 291 l 5
 320 285 328 282 340 282 c 260
EndSplineSet
Fore
SplineSet
340 282 m 260
 362.956 282 392.471 293.118 405 314 c 5
 405 236 l 5
 395.667 234.667 388.667 234 384 234 c 4
 358 234 335.333 245 316 267 c 5
 316 140 l 6
 316 86.0125 273.05 52 221 52 c 4
 166.141 52 106 89.2391 106 178 c 6
 106 457 l 5
 100.667 460.333 95.3333 462 90 462 c 5
 72 462 54 435 45 426 c 5
 1 480 l 5
 19 500 41 510 67 510 c 4
 104.2 510 160 492.448 160 393 c 6
 160 130.67 l 6
 161.333 99.3359 179.973 85.332 213.331 85.332 c 4
 242.333 85.332 263.667 112.667 263.668 158.682 c 5
 263 456 l 5
 316 398 l 5
 316 291 l 5
 320 285 328 282 340 282 c 260
EndSplineSet
LCarets2: 1 0
Ligature2: "'half' Half Forms in Gujarati lookup 4 subtable" u0A96 u0ACD
EndChar

StartChar: u0A96.vatu
Encoding: 129 -1 129
Width: 598
Flags: HW
LayerCount: 2
Back
SplineSet
483 1 m 4
 442.6 1 397 17 397 81 c 2
 397 514 l 5
 451 454 l 5
 451 51 l 6
 451 43.667 454 40 460 40 c 260
 474.4 40 490.414 62.0078 496 81 c 5
 547 26 l 5
 539.825 16.6729 521.4 1 483 1 c 4
340 282 m 260
 362.956 282 392.471 293.118 405 314 c 1
 405 236 l 1
 395.667 234.667 388.667 234 384 234 c 4
 358 234 335.333 245 316 267 c 5
 316 140 l 6
 316 86.0127 273.05 52 221 52 c 4
 166.141 52 106 89.2393 106 178 c 6
 106 457 l 5
 100.667 460.333 95.333 462 90 462 c 4
 72 462 56.9785 439.69 45 426 c 5
 1 480 l 5
 19 500 41 510 67 510 c 4
 104.2 510 160 492.449 160 393 c 6
 160 122 l 6
 160 99.5996 180.4 94 194 94 c 4
 214.986 94 247.622 104.47 263 126 c 5
 263 456 l 5
 316 398 l 5
 316 291 l 5
 320 285 328 282 340 282 c 260
444 116 m 1
 325 -13 l 5
 287 20 l 5
 400 151 l 1
 444 116 l 1
EndSplineSet
Fore
SplineSet
397 147.522 m 1
 397 234.953 l 1
 391.555 234.318 387.222 234 384 234 c 0
 358 234 335.333 245 316 267 c 1
 316 140 l 2
 316 86.0127 273.05 52 221 52 c 0
 166.141 52 106 89.2393 106 178 c 2
 106 455 l 1
 100.667 458.333 95.333 460 90 460 c 0
 72 460 56.9785 439.69 45 426 c 1
 1 480 l 1
 19 500 41 508 67 508 c 0
 104.2 508 160 492.449 160 393 c 2
 160 122 l 2
 160 99.5996 180.4 94 194 94 c 0
 214.986 94 247.622 104.47 263 126 c 1
 263 456 l 1
 316 398 l 1
 316 291 l 1
 320 285 328 282 340 282 c 0
 358.944 282 382.354 289.572 397 303.953 c 1
 397 514 l 1
 451 454 l 1
 451 51 l 2
 451 43.667 454 40 460 40 c 0
 474.4 40 490.414 57.0078 496 76 c 1
 547 21 l 1
 539.825 11.6729 521.4 -4 483 -4 c 0
 445.952 -4 404.532 14.4547 397.913 66.0402 c 1
 325 -13 l 1
 287 20 l 1
 397 147.522 l 1
EndSplineSet
LCarets2: 1 0
Ligature2: "'vatu' Vattu Variants in Gujarati lookup 3 subtable" u0A96 u0ACD_u0AB0
EndChar

StartChar: u0A97
Encoding: 130 2711 130
Width: 583
Flags: HW
AnchorPoint: "blw" 456 -14 basechar 0
LayerCount: 2
Back
SplineSet
468 1 m 0
 427.6 1 382 17 382 81 c 2
 382 514 l 1
 436 454 l 1
 436 51 l 2
 436 43.667 439 40 445 40 c 256
 459.4 40 475.414 62.0078 481 81 c 1
 532 26 l 1
 524.825 16.6729 506.4 1 468 1 c 0
148.545 455.009 m 0
 139.89 455.009 131.235 455 62 455 c 1
 33 513 l 1
 159 513 l 0
 240 512 294 420 294 272 c 0
 294 128 213.562 84.9688 159.938 84.9688 c 0
 72.624 84.9688 13.2754 160.838 -1 240 c 1
 18 245 l 1
 34.1885 191.455 84.1523 148 144 148 c 0
 223.796 148 264.046 227.712 264.046 306.426 c 0
 264.046 383.192 225.763 455.009 148.545 455.009 c 0
EndSplineSet
Fore
SplineSet
148.545 455.009 m 0
 139.89 455.009 131.235 455 62 455 c 1
 33 513 l 1
 159 513 l 0
 240 512 306 412 306 264 c 0
 306 121.864 212.469 84.9501 161.905 84.9501 c 0
 72.5665 84.9501 13.0167 162.271 -1 240 c 1
 18 245 l 1
 34.1885 191.455 84.1523 148 144 148 c 0
 223.796 148 264.046 227.712 264.046 306.426 c 0
 264.046 383.192 225.763 455.009 148.545 455.009 c 0
468 1 m 0
 427.6 1 382 17 382 81 c 2
 382 514 l 1
 436 454 l 1
 436 51 l 2
 436 43.667 439 40 445 40 c 256
 459.4 40 475.414 62.0078 481 81 c 1
 532 26 l 1
 524.825 16.6729 506.4 1 468 1 c 0
EndSplineSet
EndChar

StartChar: u0A97.half
Encoding: 131 -1 131
Width: 583
Flags: HW
LayerCount: 2
Fore
SplineSet
265 295 m 260
 265 379.013 221.04 456 149 456 c 6
 64 456 l 5
 35 510 l 5
 161 510 l 5
 244.5 498.867 296 381.971 296 267 c 4
 296 164.823 254.611 80 165 80 c 4
 78.6812 80 15.4413 154.916 1 235 c 5
 20 240 l 5
 36.188 186.455 86.1527 143 146 143 c 4
 222.824 143 265 209.971 265 295 c 260
EndSplineSet
LCarets2: 1 0
Ligature2: "'half' Half Forms in Gujarati lookup 4 subtable" u0A97 u0ACD
EndChar

StartChar: u0A97.vatu
Encoding: 132 -1 132
Width: 583
Flags: HW
LayerCount: 2
Back
SplineSet
468 1 m 4
 427.6 1 382 17 382 81 c 6
 382 514 l 5
 436 454 l 5
 436 51 l 6
 436 43.667 439 40 445 40 c 260
 459.4 40 475.414 62.0078 481 81 c 5
 532 26 l 5
 524.825 16.6729 506.4 1 468 1 c 4
266 295 m 256
 266 379.013 222.04 456 150 456 c 2
 64 456 l 1
 35 510 l 1
 161 510 l 1
 244.5 498.867 296 381.971 296 267 c 0
 296 164.823 254.611 80 165 80 c 0
 78.6816 80 15.4414 154.916 1 235 c 1
 20 240 l 1
 37.3379 186.748 88.2979 143 147 143 c 0
 223.824 143 266 209.971 266 295 c 256
428 116 m 5
 309 -13 l 5
 271 20 l 5
 384 151 l 5
 428 116 l 5
EndSplineSet
Fore
SplineSet
148.545 454 m 0
 139.89 454 131.235 454 62 454 c 1
 33 514 l 1
 159 514 l 1
 240 513 306 412 306 264 c 0
 306 121.864 212.469 84.9501 161.905 84.9501 c 0
 72.5665 84.9501 13.0167 162.271 -1 240 c 1
 18 245 l 1
 34.1885 191.455 84.1523 148 144 148 c 0
 223.796 148 264.046 227.712 264.046 306.426 c 0
 264.046 383.192 225.763 454 148.545 454 c 0
382 148.681 m 1
 382 514 l 1
 436 454 l 1
 436 51 l 2
 436 43.667 439 40 445 40 c 0
 459.4 40 475.414 62.0078 481 81 c 1
 532 26 l 1
 524.825 16.6729 505.4 -4 467 -4 c 0
 429.711 -4 388.844 13.8904 382.771 66.9703 c 1
 309 -13 l 1
 271 20 l 1
 382 148.681 l 1
EndSplineSet
LCarets2: 1 0
Ligature2: "'vatu' Vattu Variants in Gujarati lookup 3 subtable" u0A97 u0ACD_u0AB0
EndChar

StartChar: u0A97_u0AA8.pres
Encoding: 133 -1 133
Width: 811
Flags: HW
LayerCount: 2
Back
SplineSet
265 300 m 260
 265 384.013 221.04 461 149 461 c 6
 64 461 l 5
 35 515 l 5
 161 515 l 5
 244.5 503.867 296 386.971 296 272 c 4
 296 169.823 254.611 85 165 85 c 4
 78.6816 85 15.4414 159.916 1 240 c 5
 20 245 l 5
 36.1885 191.455 86.1523 148 146 148 c 4
 222.824 148 265 214.971 265 300 c 260
695 1 m 4
 654.6 1 609 22 609 86 c 6
 609 302 l 5
 446 302 l 5
 447.333 290 448 280.667 448 274 c 4
 448 239.6 429.545 233.807 420 231 c 5
 379.425 225.403 327 281.571 327 324 c 4
 327 355.2 348.523 363 377 363 c 6
 387 363 l 6
 387 362.333 387.333 362 388 362 c 6
 609 362 l 5
 609 515 l 5
 663 457 l 5
 663 56 l 6
 663 48.667 666 45 672 45 c 260
 686.4 45 702.414 67.0078 708 86 c 5
 759 31 l 5
 751.825 21.6729 733.4 1 695 1 c 4
EndSplineSet
Fore
SplineSet
148.545 455.009 m 0
 139.89 455.009 131.235 455 62 455 c 1
 33 513 l 1
 159 513 l 0
 240 512 306 412 306 264 c 0
 306 121.864 212.469 84.9501 161.905 84.9501 c 0
 72.5665 84.9501 13.0167 162.271 -1 240 c 1
 18 245 l 1
 34.1885 191.455 84.1523 148 144 148 c 0
 223.796 148 264.046 227.712 264.046 306.426 c 0
 264.046 383.192 225.763 455.009 148.545 455.009 c 0
695 -4 m 0
 654.6 -4 609 17 609 81 c 2
 609 302 l 1
 446 302 l 1
 447.491 288.575 448.219 277.65 448.219 268.769 c 0
 448.219 241 438.214 231 420 231 c 0
 375 231 327 281.571 327 324 c 0
 327 355.2 348.523 362 377 362 c 2
 609 362 l 1
 609 515 l 1
 663 457 l 1
 663 51 l 2
 663 43.667 666 40 672 40 c 256
 686.4 40 702.414 62.0078 708 81 c 1
 759 26 l 1
 751.825 16.6729 733.4 -4 695 -4 c 0
EndSplineSet
LCarets2: 1 0
Ligature2: "'pres' Pre Base Substitutions in Gujarati lookup 5 subtable" u0A97.half u0AA8
EndChar

StartChar: u0A98
Encoding: 134 2712 134
Width: 474
Flags: HW
AnchorPoint: "abv" 326 520 basechar 0
LayerCount: 2
Back
SplineSet
379 1 m 0
 338.6 1 293 17 293 81 c 2
 293 514 l 1
 347 454 l 1
 347 51 l 2
 347 43.667 350 40 356 40 c 256
 370.4 40 386.414 62.0078 392 81 c 1
 443 26 l 1
 435.825 16.6729 417.4 1 379 1 c 0
154 38 m 0
 69.2686 38 -1 96.7998 -1 185 c 0
 -1 236.113 23.71 283.694 65 309 c 1
 35.7852 343.625 15 372.6 15 415 c 0
 15 468.4 41.6113 503.994 148.077 504 c 0
 159.818 504 182.33 503.939 204 500 c 1
 226 445 l 1
 208 449.667 189.667 452 171 452 c 0
 108.95 452 62 425.2 62 385 c 0
 62 365.667 72 345.667 92 325 c 1
 107.922 338.269 153.249 356 176 356 c 1
 196 287 l 1
 86.0693 259.518 30.9844 215.83 30.9844 168.384 c 0
 30.9844 117.338 77.8213 86 127 86 c 0
 190.62 86 278.489 137.099 299 200 c 1
 299 99 l 1
 264.954 67.1514 218.382 38 154 38 c 0
EndSplineSet
Fore
SplineSet
154 34 m 0
 69.2686 34 -1 96.8 -1 185 c 0
 -1 236.113 23.7104 283.694 65 309 c 1
 35.7852 343.625 15 372.6 15 415 c 0
 15 468.4 41.6114 503.994 148.077 504 c 0
 159.819 504 182.33 503.94 204 500 c 1
 226 445 l 1
 208 449.667 189.667 452 171 452 c 0
 108.95 452 62 425.2 62 385 c 0
 62 365.667 72 345.667 92 325 c 1
 107.922 338.269 153.249 356 176 356 c 1
 196 287 l 1
 86.0689 259.517 30.9844 215.83 30.9844 168.384 c 0
 30.9844 117.338 77.8213 82 127 82 c 0
 185.647 82 264.902 129.424 293 185.486 c 1
 293 514 l 1
 347 454 l 1
 347 46 l 2
 347 38.667 350 35 356 35 c 0
 370.4 35 386.414 57.0078 392 76 c 1
 443 21 l 1
 435.825 11.6729 417.4 -4 379 -4 c 0
 338.6 -4 293 12 293 76 c 2
 293 88.5361 l 1
 259.538 58.8936 214.679 34 154 34 c 0
EndSplineSet
EndChar

StartChar: u0A98.half
Encoding: 135 -1 135
Width: 292
Flags: HW
LayerCount: 2
Back
SplineSet
154 38 m 4
 69.2688 38 -1 96.8 -1 185 c 4
 -1 236.113 23.7104 283.694 65 309 c 5
 35.7852 343.625 15 372.6 15 415 c 4
 15 468.4 41.6114 503.994 148.077 504 c 4
 159.819 504 182.33 503.94 204 500 c 5
 226 445 l 5
 208 449.667 189.667 452 171 452 c 4
 108.95 452 62 425.2 62 385 c 4
 62 365.667 72 345.667 92 325 c 5
 107.922 338.269 153.249 356 176 356 c 5
 196 287 l 5
 86.0689 259.517 30.9844 215.83 30.9844 168.384 c 4
 30.9844 117.338 77.8215 86 127 86 c 4
 190.62 86 278.489 137.099 299 200 c 5
 299 99 l 5
 264.954 67.1509 218.382 38 154 38 c 4
EndSplineSet
Fore
SplineSet
154 38 m 0
 69.2688 38 -1 96.8 -1 185 c 0
 -1 236.113 23.7104 283.694 65 309 c 1
 35.7852 343.625 15 372.6 15 415 c 0
 15 468.4 41.6114 503.994 148.077 504 c 0
 159.819 504 182.33 503.94 204 500 c 1
 226 445 l 1
 208 449.667 189.667 452 171 452 c 0
 108.95 452 62 425.2 62 385 c 0
 62 365.667 72 345.667 92 325 c 1
 107.922 338.269 153.249 356 176 356 c 1
 196 287 l 1
 92 264 30.9844 215.83 30.9844 168.384 c 0
 30.9844 117.338 77.8215 86 127 86 c 0
 190.62 86 278.489 137.099 299 200 c 1
 299 99 l 1
 264.954 67.1509 218.382 38 154 38 c 0
EndSplineSet
LCarets2: 1 0
Ligature2: "'half' Half Forms in Gujarati lookup 4 subtable" u0A98 u0ACD
EndChar

StartChar: u0A98.vatu
Encoding: 136 -1 136
Width: 483
Flags: HW
LayerCount: 2
Back
SplineSet
298 200 m 5
 298 100 l 5
 174 -33 l 5
 136 0 l 5
 169 38 l 1029
379 1 m 4
 338.6 1 293 17 293 81 c 6
 293 93.5362 l 5
 259.538 63.894 214.679 38 154 38 c 4
 69.2688 38 -1 96.8 -1 185 c 4
 -1 236.113 23.7104 283.694 65 309 c 5
 35.7852 343.625 15 372.6 15 415 c 4
 15 468.4 41.6114 503.994 148.077 504 c 4
 159.819 504 182.33 503.94 204 500 c 5
 226 445 l 5
 208 449.667 189.667 452 171 452 c 4
 108.95 452 62 425.2 62 385 c 4
 62 365.667 72 345.667 92 325 c 5
 107.922 338.269 153.249 356 176 356 c 5
 196 287 l 5
 86.0689 259.517 30.9844 215.83 30.9844 168.384 c 4
 30.9844 117.338 77.8215 86 127 86 c 4
 185.648 86 264.902 129.424 293 185.486 c 5
 293 514 l 5
 347 454 l 5
 347 51 l 6
 347 43.667 350 40 356 40 c 4
 370.4 40 386.414 62.0078 392 81 c 5
 443 26 l 5
 435.825 16.6729 417.4 1 379 1 c 4
EndSplineSet
Fore
SplineSet
298 93.5361 m 1
 179 -33 l 1
 141 0 l 1
 173.995 37.9951 l 1
 172.312 38 165.808 38 159 38 c 0
 74.2686 38 4 96.7998 4 185 c 0
 4 236.113 28.71 283.694 70 309 c 1
 40.7852 343.625 20 372.6 20 415 c 0
 20 468.4 46.2857 504 153.077 504 c 0
 164.819 504 187.33 503.94 209 500 c 1
 231 445 l 1
 213 449.667 194.667 452 176 452 c 0
 113.95 452 67 425.2 67 385 c 0
 67 365.667 77 345.667 97 325 c 1
 112.922 338.269 158.249 356 181 356 c 1
 201 287 l 1
 91.0693 259.517 35.9844 215.83 35.9844 168.384 c 0
 35.9844 117.338 82.8213 86 132 86 c 0
 190.648 86 269.902 129.424 298 185.486 c 1
 298 514 l 1
 352 454 l 1
 352 51 l 2
 352 43.667 355 40 361 40 c 0
 375.4 40 391.414 62.0078 397 81 c 1
 448 26 l 1
 440.825 16.6729 422.4 1 384 1 c 0
 293.367 1 298.286 77.1429 298 93.5361 c 1
EndSplineSet
LCarets2: 1 0
Ligature2: "'vatu' Vattu Variants in Gujarati lookup 3 subtable" u0A98 u0ACD_u0AB0
EndChar

StartChar: u0A99
Encoding: 137 2713 137
Width: 457
Flags: HW
AnchorPoint: "abv" 152 527 basechar 0
LayerCount: 2
Back
SplineSet
208 56 m 4
 279.575 56 314 115.232 314 148 c 4
 314 176.667 291.667 210 247 248 c 5
 124 344 l 5
 80.6667 380.667 60.3333 412.333 63 439 c 4
 69.6667 495.667 99 524 151 524 c 4
 183 524 226 513.333 280 492 c 5
 272 434 l 5
 227.714 451.398 197.6 459 179 459 c 4
 139.312 459 127 422.1 127 408 c 4
 127 359.287 264.763 284.237 297 252 c 5
 337 214.667 357 177 357 139 c 4
 357 48.2969 323.878 1 235 1 c 4
 107.282 1 34.1638 105.651 1 223 c 5
 22 228 l 5
 40.9583 135.917 127.485 56 208 56 c 4
273 351 m 5
 313 390 l 5
 352 351 l 5
 313 312 l 5
 273 351 l 5
EndSplineSet
Fore
SplineSet
210 62 m 0
 297 62 329 101 329 122 c 0
 329 210 68.5215 231 68.5215 410.667 c 0
 68.5215 465 95 512.429 149 513 c 0
 180.998 513.338 224 502.333 278 481 c 1
 270 423 l 1
 226.594 440.052 199.537 454.008 178.244 454.008 c 0
 123.757 453.652 107.808 429.262 107.808 402.138 c 0
 107.808 303 369 289 369 121 c 0
 369 39 314 -3 233 -3 c 0
 105.282 -3 35.1641 83.6514 2 201 c 1
 22 220 l 1
 40.958 127.917 129.485 62 210 62 c 0
231 359 m 1
 271 398 l 1
 310 359 l 1
 271 320 l 1
 231 359 l 1
EndSplineSet
EndChar

StartChar: u0A9A
Encoding: 138 2714 138
Width: 560
Flags: HW
AnchorPoint: "abv" 390 528 basechar 0
LayerCount: 2
Back
SplineSet
445 1 m 4
 404.6 1 359 17 359 81 c 6
 359 514 l 5
 413 454 l 5
 413 51 l 6
 413 43.667 416 40 422 40 c 260
 436.4 40 452.414 62.0078 458 81 c 5
 509 26 l 5
 501.825 16.6729 483.4 1 445 1 c 4
221 134 m 4
 279.4 134 346.619 184.32 367 234 c 5
 368 134 l 5
 339.969 102.465 292.016 72 237 72 c 4
 141 72 90.8984 185.169 77 222 c 5
 38.5811 231.314 2 259.82 2 303 c 4
 2 321.925 10.5996 353 45 353 c 4
 71.0771 353 77.1904 341.183 85 324.5 c 132
 92.333 308.833 97.333 293.667 100 279 c 5
 168.489 279 239 321.119 239 389 c 4
 239 410.333 233 432.667 221 456 c 5
 79 456 l 5
 50 510 l 5
 196 510 l 5
 243.359 489.703 274 429.441 274 365 c 4
 274 297.863 239.119 222 113 222 c 5
 124.742 176.335 171.13 134 221 134 c 4
EndSplineSet
Fore
SplineSet
445 -4 m 0
 404.6 -4 359 12 359 76 c 2
 359 119.596 l 1
 330.302 91.6729 286.511 72 237 72 c 0
 141 72 90.8984 185.169 77 222 c 1
 38.5811 231.314 2 259.82 2 303 c 0
 2 321.925 10.5996 353 45 353 c 0
 64.159 353 88.1523 344.156 100 279 c 1
 168.489 279 239 321.119 239 389 c 0
 239 410.333 233 431.667 221 455 c 1
 79 455 l 1
 50 513 l 1
 196 513 l 1
 243.359 492.703 274 429.441 274 365 c 0
 274 297.863 239.119 222 113 222 c 1
 124.742 176.335 171.13 134 221 134 c 0
 273.206 134 332.458 174.211 359 218.23 c 1
 359 514 l 1
 413 454 l 1
 413 46 l 2
 413 38.667 416 35 422 35 c 0
 436.4 35 452.414 57.0078 458 76 c 1
 509 21 l 1
 501.825 11.6729 483.4 -4 445 -4 c 0
EndSplineSet
EndChar

StartChar: u0A9A.half
Encoding: 139 -1 139
Width: 360
Flags: HW
LayerCount: 2
Back
SplineSet
221 134 m 4
 279.4 134 346.619 184.32 367 234 c 5
 368 134 l 5
 339.969 102.465 292.016 72 237 72 c 4
 141 72 90.8984 185.169 77 222 c 5
 38.5814 231.314 2 259.82 2 303 c 4
 2 321.925 10.6 353 45 353 c 4
 71.077 353 77.1907 341.183 85 324.5 c 132
 92.3333 308.833 97.3333 293.667 100 279 c 5
 168.489 279 239 321.119 239 389 c 4
 239 410.333 233 432.667 221 456 c 5
 79 456 l 5
 50 510 l 5
 196 510 l 5
 243.359 489.703 274 429.441 274 365 c 4
 274 297.863 239.119 222 113 222 c 5
 124.742 176.335 171.13 134 221 134 c 4
EndSplineSet
Fore
SplineSet
221 134 m 0
 279.4 134 346 196 367 234 c 1
 367 134 l 1
 338.969 102.465 292.016 72 237 72 c 0
 141 72 90.8984 185.169 77 222 c 1
 38.5814 231.314 2 259.82 2 303 c 0
 2 321.925 10.6 353 45 353 c 0
 64.1591 353 88.1537 344.155 100 279 c 1
 135.549 279 239.174 293.108 239.174 402.82 c 0
 239.174 416 236 429 221 454 c 1
 79 454 l 1
 50 513 l 1
 196 513 l 1
 243.359 492.703 274 429.441 274 365 c 0
 274 297.863 239.119 222 113 222 c 1
 124.742 176.335 171.13 134 221 134 c 0
EndSplineSet
LCarets2: 1 0
Ligature2: "'half' Half Forms in Gujarati lookup 4 subtable" u0A9A u0ACD
EndChar

StartChar: u0A9A.vatu
Encoding: 140 -1 140
Width: 560
Flags: HW
LayerCount: 2
Back
SplineSet
445 1 m 4
 404.6 1 359 17 359 81 c 6
 359 514 l 5
 413 454 l 5
 413 51 l 6
 413 43.667 416 40 422 40 c 260
 436.4 40 452.414 62.0078 458 81 c 5
 509 26 l 5
 501.825 16.6729 483.4 1 445 1 c 4
222 134 m 4
 280.4 134 347.619 184.32 368 234 c 5
 368 134 l 5
 239 -4 l 5
 201 29 l 5
 238 72 l 5
 215.838 74.4629 132.694 74.4121 77 222 c 5
 38.5811 231.314 2 259.82 2 303 c 4
 2 321.9 10.7998 353 46 353 c 4
 65.1592 353 89.1533 344.155 101 279 c 5
 169.489 279 240 321.119 240 389 c 4
 240 410.333 234 432.667 222 456 c 5
 80 456 l 5
 51 510 l 5
 197 510 l 5
 244.359 489.703 275 429.441 275 365 c 4
 275 297.863 240.119 222 114 222 c 5
 125.742 176.335 172.13 134 222 134 c 4
EndSplineSet
Fore
SplineSet
445 -4 m 0
 404.6 -4 359 12 359 76 c 2
 359 124.372 l 1
 239 -4 l 1
 201 29 l 1
 238 72 l 1
 215.838 74.4629 132.694 74.4121 77 222 c 1
 38.5811 231.314 2 259.82 2 303 c 0
 2 321.9 10.7998 353 46 353 c 0
 65.1592 353 89.1533 344.155 101 279 c 1
 169.489 279 240 321.119 240 389 c 0
 240 410.333 234 430.667 222 454 c 1
 80 454 l 1
 51 513 l 1
 197 513 l 1
 244.359 492.703 275 429.441 275 365 c 0
 275 297.863 240.119 222 114 222 c 1
 125.742 176.335 172.13 134 222 134 c 0
 273.56 134 331.993 173.223 359 216.599 c 1
 359 514 l 1
 413 454 l 1
 413 46 l 2
 413 38.667 416 35 422 35 c 0
 436.4 35 452.414 57.0078 458 76 c 1
 509 21 l 1
 501.825 11.6729 483.4 -4 445 -4 c 0
EndSplineSet
LCarets2: 1 0
Ligature2: "'vatu' Vattu Variants in Gujarati lookup 3 subtable" u0A9A u0ACD_u0AB0
EndChar

StartChar: u0A9B
Encoding: 141 2715 141
Width: 521
Flags: HW
AnchorPoint: "abv" 298 528 basechar 0
LayerCount: 2
Back
SplineSet
298 446 m 4
 288.823 446 265 442.241 265 408 c 4
 265 344.053 335.075 233 369 233 c 4
 381 233 389 245.2 389 284 c 4
 389 356.602 344.209 446 298 446 c 4
169 1 m 4
 61.0178 1 2 76.0472 2 190 c 4
 2 242 22.6667 282.667 64 312 c 5
 52.7114 325.379 1 383.29 1 433 c 4
 1 473.667 18.3333 499.333 53 510 c 5
 146 510 l 5
 165 456 l 5
 63 456 l 5
 50.3333 448 44 435.333 44 418 c 4
 44 382.827 67.3692 344.867 93 329 c 5
 113.667 344.333 138 353.333 166 356 c 5
 187 286 l 5
 125.458 270.814 39 234.4 39 157 c 4
 39 100.015 90.8129 48 158 48 c 4
 172.667 48 186 50.3333 198 55 c 4
 269.675 78.4796 365.647 143.837 381 222 c 5
 300.627 246.112 217 351.879 217 431 c 4
 217 495.981 273.387 510 293 510 c 4
 355.693 510 422 386.611 422 259 c 4
 422 97.5727 326.247 1 169 1 c 4
EndSplineSet
Fore
SplineSet
380 301 m 1
 374.139 406.511 319.999 454.555 291.185 454.555 c 0
 276.691 454.555 251.949 446.56 251.949 414.58 c 0
 251.949 359.838 327.581 301 380 301 c 1
169 1 m 0
 61.0178 1 2 76.0472 2 190 c 0
 2 242 22.6667 282.667 64 312 c 1
 52.7114 325.379 1 383.29 1 433 c 0
 1 473.667 18.333 502.333 53 513 c 1
 146 513 l 1
 165 454 l 1
 63 454 l 1
 50.333 446 44 435.333 44 418 c 0
 44 382.827 67.3692 344.867 93 329 c 1
 113.667 344.333 138 353.333 166 356 c 1
 187 286 l 1
 125.458 270.814 39 234.4 39 157 c 0
 39 100.015 90.8129 48 158 48 c 0
 221.32 48 362.374 127.175 381 222 c 1
 300.627 246.112 217 351.879 217 431 c 0
 217 495 248 516 293 516 c 0
 355.693 516 422 386.611 422 259 c 0
 422 97.5727 326.247 1 169 1 c 0
EndSplineSet
EndChar

StartChar: u0A9C
Encoding: 142 2716 142
Width: 471
Flags: HW
AnchorPoint: "abv" 512 536 basechar 0
LayerCount: 2
Back
SplineSet
48 371 m 0
 48 343.401 59.8113 321 89 321 c 0
 126.752 321 158 359.348 158 400 c 0
 158 434.2 136.6 456 111 456 c 0
 73.8743 456 48 412.475 48 371 c 0
262 45 m 0
 301.682 45 338 92.8063 338 154 c 0
 338 171.303 336.245 198.511 328 215 c 1
 226 94 l 1
 224.667 87.3333 224 82.6667 224 80 c 0
 224 52 246.8 45 262 45 c 0
  Spiro
    262 45 o
    299.306 59.6326 o
    327.135 98.592 o
    338 154 o
    337.241 173.819 o
    334.253 195.723 o
    328 215 v
    226 94 v
    224.89 88.0053 o
    224.222 83.3293 o
    224 80 o
    230.462 58.497 o
    245.409 47.8456 o
    0 0 z
  EndSpiro
328 299 m 1
 495 510 l 1
 537 473 l 1
 353 239 l 1
 363.667 207 369 173.667 369 139 c 0
 369 79.45 351.6 1 282 1 c 0
 222.054 1 185 30.9911 185 90 c 0
 185 115.248 191.365 133.111 197 141 c 1
 305 272 l 1
 282.271 328.824 246.542 404.626 187 426 c 1
 195.667 408 200 387.333 200 368 c 0
 200 306.15 162.4 263 106 263 c 0
 58.3477 263 2 312.834 2 397 c 0
 2 449.771 43.5585 513.152 108.117 513.152 c 0
 166.98 513.152 244.963 460.462 328 299 c 1
EndSplineSet
Fore
SplineSet
48 371 m 4
 48 343.401 59.8113 321 89 321 c 4
 126.752 321 158 359.348 158 400 c 4
 158 434.2 136.6 456 111 456 c 4
 73.8743 456 48 412.475 48 371 c 4
338 154 m 0
 338 171.303 333 199 328 215 c 1
 328 215 260 130 229 94 c 1
 229 60.5479 244.341 44.9855 261.842 44.9855 c 0
 297.584 44.9855 338 94.42 338 154 c 0
328 299 m 1
 495 509.857 l 1
 536.999 473.5 l 1
 353 239 l 1
 363.667 207 369 173.667 369 139 c 0
 369 79.4502 351.6 -4 282 -4 c 0
 222.054 -4 178 33 178 82 c 0
 178 108.077 191.365 133.111 197 141 c 2
 305 272 l 1
 282.271 328.824 246.542 404.626 187 426 c 1
 195.667 408 200 389.333 200 370 c 0
 200 308.15 162.4 263 106 263 c 0
 58.3477 263 2 312.834 2 397 c 0
 2 449.771 43.5586 513.151 108.117 513.151 c 0
 166.979 513.151 244.963 460.462 328 299 c 1
EndSplineSet
EndChar

StartChar: u0A9C.half
Encoding: 143 -1 143
Width: 471
Flags: HW
LayerCount: 2
Back
SplineSet
48 371 m 0
 48 343.401 59.8113 321 89 321 c 0
 126.752 321 175 358.348 175 399 c 0
 175 433.2 136.6 456 111 456 c 0
 73.8743 456 48 412.475 48 371 c 0
262 45 m 0
 301.682 45 338 92.8063 338 154 c 0
 338 171.303 336.245 198.511 328 215 c 1
 226 94 l 1
 224.667 87.3333 224 82.6667 224 80 c 0
 224 52 246.8 45 262 45 c 0
111 510 m 2
 206.182 510 270.836 410.153 328 299 c 1
 407 393 l 1
 450 356 l 1
 353 239 l 1
 363.667 207 369 173.667 369 139 c 0
 369 79.45 351.6 1 282 1 c 0
 222.054 1 185 30.9911 185 90 c 0
 185 115.248 191.365 133.111 197 141 c 2
 305 272 l 1
 282.271 328.824 246.542 404.626 187 426 c 1
 195.667 408 200 389.333 200 370 c 0
 200 308.15 162.4 263 106 263 c 0
 58.3477 263 2 312.834 2 397 c 0
 2 459.046 45.766 510 103.5 510 c 130
 111 510 l 2
EndSplineSet
Fore
SplineSet
48 371 m 4
 48 343.401 59.8113 321 89 321 c 4
 126.752 321 158 359.348 158 400 c 4
 158 434.2 136.6 456 111 456 c 4
 73.8743 456 48 412.475 48 371 c 4
338 154 m 0
 338 171.303 333 199 328 215 c 1
 328 215 260 130 229 94 c 1
 229 60.5479 244.341 44.9855 261.842 44.9855 c 0
 297.584 44.9855 338 94.42 338 154 c 0
328 299 m 1
 407 393 l 1
 450 356 l 1
 353 239 l 1
 363.667 207 369 173.667 369 139 c 0
 369 79.45 351.6 -4 282 -4 c 0
 222.054 -4 178 33 178 82 c 0
 178 108.077 191.365 133.111 197 141 c 2
 305 272 l 1
 282.271 328.824 246.542 404.626 187 426 c 1
 195.667 408 200 389.333 200 370 c 0
 200 308.15 162.4 263 106 263 c 0
 58.3477 263 2 312.834 2 397 c 0
 2 449.771 43.5585 513.152 108.117 513.152 c 0
 166.98 513.152 244.963 460.462 328 299 c 1
EndSplineSet
LCarets2: 1 0
Ligature2: "'half' Half Forms in Gujarati lookup 4 subtable" u0A9C u0ACD
EndChar

StartChar: u0A9C.vatu
Encoding: 144 -1 144
Width: 471
Flags: HW
LayerCount: 2
Back
SplineSet
371 45 m 4
 410.682 45 447 92.8063 447 154 c 4
 447 171.303 445.245 198.511 437 215 c 5
 335 94 l 5
 333.667 87.3333 333 82.6667 333 80 c 4
 333 52 355.8 45 371 45 c 4
48 371 m 4
 48 343.401 59.8113 321 89 321 c 4
 126.752 321 175 358.348 175 399 c 4
 175 433.2 136.6 456 111 456 c 4
 73.8743 456 48 412.475 48 371 c 4
392 1 m 4
 332.054 1 295 30.9911 295 90 c 4
 295 115.248 301.365 133.111 307 141 c 6
 415 272 l 5
 407.667 290.667 392.667 311.333 370 334 c 5
 211 163 l 5
 173 196 l 5
 330 370 l 5
 322.831 375.775 246.6 437 191 437 c 5
 206.931 410.448 208 387.4 208 375 c 4
 208 315.387 164.706 264 106 264 c 4
 54.2438 264 2 321.119 2 394 c 4
 2 451.145 40.2828 510 101 510 c 4
 223.204 510 393.452 388.096 438 299 c 5
 604 501 l 5
 647 464 l 5
 463 239 l 5
 473.667 207 479 173.667 479 139 c 4
 479 79.45 461.6 1 392 1 c 4
EndSplineSet
Fore
SplineSet
51 373.286 m 0
 51 345.688 62.8115 323.286 92 323.286 c 0
 129.752 323.286 161 361.634 161 402.286 c 0
 161 436.486 137.6 454.286 112 454.286 c 0
 74.874 454.286 51 414.761 51 373.286 c 0
371 43 m 0
 410.682 43 447 92.8063 447 154 c 0
 447 171.303 445.245 198.511 437 215 c 1
 335 94 l 1
 333.667 87.3333 333 81.667 333 79 c 0
 333 51 355.8 43 371 43 c 0
392 -1 m 0
 332.054 -1 295 30.9911 295 90 c 0
 295 115.248 301.365 133.111 307 141 c 2
 415 272 l 1
 407.667 290.667 392.667 311.333 370 334 c 1
 211 163 l 1
 173 196 l 1
 330 370 l 1
 322.831 375.775 246.6 437 191 437 c 1
 206.931 410.448 208 387.4 208 375 c 0
 208 315.387 164.706 264 106 264 c 0
 54.2438 264 2 321.119 2 394 c 0
 2 451.145 40.2828 510 101 510 c 0
 223.204 510 393.452 388.096 438 299 c 1
 604 501 l 1
 647 464 l 1
 463 239 l 1
 473.667 207 479 173.667 479 139 c 0
 479 79.45 461.6 -1 392 -1 c 0
EndSplineSet
LCarets2: 1 0
Ligature2: "'vatu' Vattu Variants in Gujarati lookup 3 subtable" u0A9C u0ACD_u0AB0
EndChar

StartChar: u0A9C_u0A9E.akhn
Encoding: 145 -1 145
Width: 520
Flags: HW
LayerCount: 2
Back
SplineSet
405 1 m 0
 364.6 1 319 17 319 81 c 2
 319 514 l 1
 373 454 l 1
 373 51 l 2
 373 43.667 376 40 382 40 c 256
 396.4 40 412.414 62.0078 418 81 c 1
 469 26 l 1
 461.825 16.6729 443.4 1 405 1 c 0
247 380 m 0
 273.421 380 298.707 384.177 322 390 c 1
 324 322 l 1
 315.333 318.667 305.333 317 294 317 c 0
 234 317 145.2 382 102 382 c 0
 67.5996 382 59 352.675 59 344 c 0
 59 334 92 315.667 158 289 c 128
 224 262.333 257 222 257 168 c 0
 257 77.9893 207.218 11.8027 134 1 c 1
 147.755 -24.2178 178.293 -52 214 -52 c 0
 234.667 -52 253.333 -44 270 -28 c 1
 297 -82 l 1
 273.667 -101.333 251 -111 229 -111 c 0
 178.955 -111 142.007 -56.9238 105 1 c 1
 50.6816 1 20 38.2002 20 63 c 0
 20 83.9502 37.2002 110 63 110 c 0
 97.2002 110 114.518 69.249 120 56 c 1
 167.446 56 231 101.98 231 169 c 0
 231 197.667 197 224 129 248 c 128
 61 272 27 308.667 27 358 c 0
 27 398.335 55.6514 424 95 424 c 0
 131.1 424 174.8 380 247 380 c 0
EndSplineSet
Fore
SplineSet
405 -4 m 0
 364.6 -4 319 12 319 76 c 2
 319 320.306 l 1
 311.548 318.102 303.215 317 294 317 c 0
 234 317 145.2 382 102 382 c 0
 67.5996 382 59 352.675 59 344 c 0
 59 305.741 257 297.112 257 168 c 0
 257 77.9893 207.218 11.8027 134 1 c 1
 147.755 -24.2178 178.293 -52 214 -52 c 0
 234.667 -52 253.333 -44 270 -28 c 1
 297 -82 l 1
 273.667 -101.333 251 -111 229 -111 c 0
 178.955 -111 142.007 -56.9238 105 1 c 1
 50.6816 1 20 38.2002 20 63 c 0
 20 83.9502 37.2002 110 63 110 c 0
 97.2002 110 114.518 69.249 120 56 c 1
 167.446 56 231 101.98 231 169 c 0
 231 251.154 27 233.346 27 358 c 0
 27 398.335 55.6514 424 95 424 c 0
 131.1 424 174.8 380 247 380 c 0
 272.291 380 296.542 383.827 319 389.262 c 1
 319 514 l 1
 373 454 l 1
 373 46 l 2
 373 38.667 376 35 382 35 c 0
 396.4 35 412.414 57.0078 418 76 c 1
 469 21 l 1
 461.825 11.6729 443.4 -4 405 -4 c 0
EndSplineSet
LCarets2: 2 0 0
Ligature2: "'akhn' Akhand in Gujarati lookup 0 subtable" u0A9C u0ACD u0A9E
EndChar

StartChar: u0A9C_u0A9E.half
Encoding: 146 -1 146
Width: 318
Flags: HW
LayerCount: 2
Back
SplineSet
247 380 m 4
 273.421 380 298.707 384.177 322 390 c 5
 324 322 l 5
 315.333 318.667 305.333 317 294 317 c 4
 234 317 145.2 382 102 382 c 4
 67.6 382 59 352.675 59 344 c 4
 59 305.741 257 297.112 257 168 c 4
 257 77.9892 207.218 11.8026 134 1 c 5
 147.755 -24.2179 178.293 -52 214 -52 c 4
 234.667 -52 253.333 -44 270 -28 c 5
 297 -82 l 5
 273.667 -101.333 251 -111 229 -111 c 4
 178.955 -111 142.007 -56.9238 105 1 c 5
 50.682 1 20 38.2 20 63 c 4
 20 83.95 37.2 110 63 110 c 4
 97.2 110 114.518 69.2487 120 56 c 5
 167.446 56 231 101.98 231 169 c 4
 231 251.154 27 233.346 27 358 c 4
 27 398.335 55.6516 424 95 424 c 4
 131.1 424 174.8 380 247 380 c 4
EndSplineSet
Fore
SplineSet
247 380 m 0
 273.421 380 298.707 384.177 322 390 c 1
 322 321 l 1
 313.333 317.667 305.333 317 294 317 c 0
 234 317 145.2 382 102 382 c 0
 67.6 382 59 352.675 59 344 c 0
 59 305.741 257 297.112 257 168 c 0
 257 77.9892 207.218 11.8026 134 1 c 1
 147.755 -24.2179 178.293 -52 214 -52 c 0
 234.667 -52 253.333 -44 270 -28 c 1
 297 -82 l 1
 273.667 -101.333 251 -111 229 -111 c 0
 178.955 -111 142.007 -56.9238 105 1 c 1
 50.682 1 20 38.2 20 63 c 0
 20 83.95 37.2 110 63 110 c 0
 97.2 110 114.518 69.2487 120 56 c 1
 167.446 56 231 101.98 231 169 c 0
 231 251.154 27 233.346 27 358 c 0
 27 398.335 55.6516 424 95 424 c 0
 131.1 424 174.8 380 247 380 c 0
EndSplineSet
EndChar

StartChar: u0A9C_u0ABE.psts
Encoding: 147 -1 147
Width: 471
Flags: HW
LayerCount: 2
Back
SplineSet
48 371 m 4
 48 343.401 59.8113 321 89 321 c 4
 126.752 321 175 358.348 175 399 c 4
 175 433.2 136.6 456 111 456 c 4
 73.8743 456 48 412.475 48 371 c 4
262 45 m 4
 301.682 45 338 92.8063 338 154 c 4
 338 171.303 336.245 198.511 328 215 c 5
 226 94 l 5
 224.667 87.3333 224 82.6667 224 80 c 4
 224 52 246.8 45 262 45 c 4
111 510 m 6
 206.969 510 271.399 408.532 329 298 c 5
 495 510 l 5
 548 452 l 5
 548 51 l 6
 548 43.6667 551 40 557 40 c 260
 571.4 40 587.414 62.0076 593 81 c 5
 644 26 l 5
 636.825 16.6729 618.4 1 580 1 c 4
 525.124 1 495 29.3147 495 81 c 6
 495 420 l 5
 353 239 l 5
 363.667 207 369 173.667 369 139 c 4
 369 79.45 351.6 1 282 1 c 4
 222.054 1 185 30.9911 185 90 c 4
 185 115.248 191.365 133.111 197 141 c 6
 305 272 l 5
 282.271 328.824 246.542 404.626 187 426 c 5
 195.667 408 200 389.333 200 370 c 4
 200 308.15 162.4 263 106 263 c 4
 58.3477 263 2 312.834 2 397 c 4
 2 459.046 45.766 510 103.5 510 c 134
 111 510 l 6
EndSplineSet
Fore
SplineSet
48 371 m 0
 48 343.401 59.8113 321 89 321 c 0
 126.752 321 158 359.348 158 400 c 0
 158 434.2 136.6 456 111 456 c 0
 73.8743 456 48 412.475 48 371 c 0
262 45 m 0
 301.682 45 338 92.8063 338 154 c 0
 338 171.303 336.245 198.511 328 215 c 1
 226 94 l 1
 224.667 87.3333 224 82.6667 224 80 c 0
 224 52 246.8 45 262 45 c 0
111 510 m 2
 206.969 510 271.399 408.532 329 298 c 1
 495 510 l 1
 548 452 l 1
 548 51 l 2
 548 43.6667 551 40 557 40 c 256
 571.4 40 587.414 62.0076 593 81 c 1
 644 26 l 1
 636.825 16.6729 618.4 1 580 1 c 0
 525.124 1 495 29.3147 495 81 c 2
 495 420 l 1
 353 239 l 1
 363.667 207 369 173.667 369 139 c 0
 369 79.45 351.6 1 282 1 c 0
 222.054 1 185 30.9911 185 90 c 0
 185 115.248 191.365 133.111 197 141 c 2
 305 272 l 1
 282.271 328.824 246.542 404.626 187 426 c 1
 195.667 408 200 389.333 200 370 c 0
 200 308.15 162.4 263 106 263 c 0
 58.3477 263 2 312.834 2 397 c 0
 2 459.046 45.766 510 103.5 510 c 130
 111 510 l 2
EndSplineSet
LCarets2: 1 0
Ligature2: "'psts' Post Base Substitutions in Gujarati lookup 7 subtable" u0A9C u0ABE
EndChar

StartChar: u0A9C_u0AC0.psts
Encoding: 148 -1 148
Width: 668
Flags: HW
LayerCount: 2
Back
SplineSet
134 511 m 4
 210.635 511 272.109 435.47 322 355 c 5
 491 510 l 5
 497 510 l 5
 532.296 456.487 565 369.6 565 276 c 4
 565 203.596 548.202 148.588 516 104 c 5
 469.399 33.4686 399.734 2 287 2 c 4
 154.11 2 72.6973 110.563 1 244 c 5
 19 256 l 5
 85.665 138.272 170.8 56 272 56 c 4
 437.01 56 530 154.007 530 309 c 4
 530 341.667 525.667 374 517 406 c 4
 513.667 418 505.667 424 493 424 c 4
 485.667 424 479.667 421.667 475 417 c 6
 361 307 l 5
 368.476 293.116 375 275.8 375 255 c 4
 375 214.523 348.489 187 310 187 c 4
 275.678 187 247 214.858 247 255 c 4
 247 287.523 275.914 313.914 300 338 c 5
 259.055 395.107 237.532 428.962 192 440 c 5
 204.667 412.667 211 386.667 211 362 c 4
 211 289.2 166.043 271 126 271 c 4
 63.3375 271 25 337.641 25 398 c 4
 25 453.087 58.3428 511 134 511 c 4
65 366 m 4
 65 341.016 72.2 320 101 320 c 4
 136.988 320 181 362.044 181 402 c 4
 181 435.35 146.725 453 126 453 c 4
 89.4 453 65 405.375 65 366 c 4
EndSplineSet
Fore
SplineSet
66 369 m 0
 66 341.401 77.8115 319 107 319 c 0
 144.752 319 176 357.348 176 398 c 0
 176 432.2 154.6 454 129 454 c 0
 91.874 454 66 410.475 66 369 c 0
134 513 m 0
 210.635 513 272.109 437.47 322 357 c 1
 375 410 448 466 497 512 c 1
 532.296 458.487 565 371.6 565 278 c 0
 565 152.165 509.4 -4 287 -4 c 0
 154.11 -4 72.6973 110.563 1 244 c 1
 19 256 l 1
 85.665 138.272 170.8 50 272 50 c 0
 437.01 50 530 156.007 530 311 c 0
 530 350 512 407 493 426 c 1
 492.8 426 487.872 421.646 481.604 415.597 c 2
 361 309 l 1
 368.476 295.116 375 275.8 375 255 c 0
 375 214.523 348.489 187 310 187 c 0
 275.678 187 247 214.858 247 255 c 0
 247 287.523 275.914 315.914 300 340 c 1
 259.055 397.107 237.532 430.962 192 442 c 1
 204.667 414.667 211 388.667 211 364 c 0
 211 304 166.043 273 126 273 c 0
 63.3379 273 25 339.641 25 400 c 0
 25 455.087 58.3428 513 134 513 c 0
EndSplineSet
LCarets2: 1 0
Ligature2: "'psts' Post Base Substitutions in Gujarati lookup 7 subtable" u0A9C u0AC0
EndChar

StartChar: u0A9D
Encoding: 149 2717 149
Width: 608
Flags: HW
AnchorPoint: "abv" 450 526 basechar 0
LayerCount: 2
Back
SplineSet
322 69 m 1
 414.334 69 469 126.91 469 199 c 0
 469 276.6 409.246 296 366 296 c 0
 329.213 296 303.56 281.48 289 256 c 1
 279.775 200.651 249.029 131.252 174 125 c 1
 79.883 125 23.4696 220.88 1 317 c 1
 22 323 l 1
 37.6244 259.2 75.6 185 156 185 c 0
 225.455 185 260 251.51 260 332 c 0
 260 414 208.4 454.286 174 454.286 c 2
 73.0908 454.286 l 1
 43 513 l 1
 169 513 l 1
 237.911 497.098 279.62 424.899 296 343 c 1
 308 351 327.667 355 355 355 c 0
 359.667 355 366 354.333 374 353 c 1
 398.962 380.458 422 434.55 422 490 c 0
 422 498.667 421.667 505.333 421 510 c 1
 484 451 l 1
 472 407 452 368.667 424 336 c 1
 499.711 280.118 506 211.64 506 183 c 0
 506 86.0091 430.359 1 345 1 c 1
 322 69 l 1
EndSplineSet
Fore
SplineSet
322 69 m 5
 414.334 69 469 126.91 469 199 c 4
 469 276.6 409.246 296 366 296 c 4
 329.213 296 303.56 281.48 289 256 c 5
 279.775 200.651 249.029 131.252 174 125 c 5
 79.883 125 23.4696 220.88 1 317 c 5
 22 323 l 5
 37.6244 259.2 75.6 185 156 185 c 4
 225.455 185 260 251.51 260 332 c 4
 260 414 208.4 454.286 174 454.286 c 6
 73.0908 454.286 l 5
 43 513 l 5
 169 513 l 5
 237.911 497.098 279.62 424.899 296 343 c 5
 308 351 327.667 355 355 355 c 4
 359.667 355 366 354.333 374 353 c 5
 398.962 380.458 422 434.55 422 490 c 4
 422 498.667 421.667 505.333 421 510 c 5
 484 451 l 5
 472 407 452 368.667 424 336 c 5
 499.711 280.118 506 211.64 506 183 c 4
 506 86.0091 430.359 1 345 1 c 5
 322 69 l 5
EndSplineSet
EndChar

StartChar: u0A9D.half
Encoding: 150 -1 150
Width: 608
Flags: HW
AnchorPoint: "abv" 450 526 basechar 0
LayerCount: 2
Back
SplineSet
309 69 m 5
 401.334 69 469 126.91 469 199 c 4
 469 216.333 465 234 457 252 c 4
 446.234 276.224 406.548 296 366 296 c 4
 329.213 296 303.56 281.48 289 256 c 5
 279.775 200.651 249.029 131.252 174 125 c 5
 79.883 125 23.4696 220.88 1 317 c 5
 22 323 l 5
 37.6244 259.2 75.6 185 156 185 c 4
 225.455 185 260 251.51 260 332 c 4
 260 373.256 250.935 411.36 232 433 c 132
 218.26 448.703 169.167 457 101 457 c 6
 83 457 l 134
 78.3333 457 74.3333 456.667 71 456 c 5
 43 510 l 5
 169 510 l 5
 237.911 494.098 279.62 424.899 296 343 c 5
 314 351 333 355 353 355 c 4
 450.199 355 506 264.66 506 182 c 4
 506 82.3514 444.367 12.1788 345 1 c 5
 309 69 l 5
EndSplineSet
Fore
SplineSet
506 183 m 0
 506 86.0091 430.359 1 345 1 c 1
 312 67 l 1
 401.694 67 469.015 124.644 469.015 196.951 c 0
 469.015 246 428 296 366 296 c 0
 329.213 296 303.56 281.48 289 256 c 1
 279.775 200.651 249.029 131.252 174 125 c 1
 79.883 125 23.4696 220.88 1 317 c 1
 22 323 l 1
 37.6244 259.2 75.6 185 156 185 c 0
 225.455 185 260 251.51 260 332 c 0
 260 414 208.4 454.286 174 454.286 c 2
 73.0908 454.286 l 1
 43 513 l 1
 169 513 l 1
 237.911 497.098 279.62 424.899 296 343 c 1
 308 351 338.667 356 366 356 c 0
 428 356 506 281.331 506 183 c 0
EndSplineSet
LCarets2: 1 0
Ligature2: "'half' Half Forms in Gujarati lookup 4 subtable" u0A9D u0ACD
EndChar

StartChar: u0A9D.vatu
Encoding: 151 -1 151
Width: 608
Flags: HW
LayerCount: 2
Back
SplineSet
314 69 m 5
 406.334 69 469 126.91 469 199 c 4
 469 215.667 459.667 236.667 453 252 c 5
 358 137 l 5
 320 170 l 5
 417 284 l 5
 400.333 291.333 385.333 296 366 296 c 4
 350.8 296 310.683 293.576 291 256 c 5
 288 193 241.206 130.486 174 125 c 5
 79.883 125 23.4696 220.88 1 317 c 5
 22 323 l 5
 37.6244 259.2 75.6 185 156 185 c 4
 225.455 185 260 251.51 260 332 c 4
 260 409 225.46 454.286 173.649 454.286 c 6
 173.649 454.286 77 454 71 454 c 5
 43 513 l 5
 169 513 l 5
 243 494 281 433 296 343 c 5
 308 351 327.667 355 355 355 c 4
 359.667 355 366 354.333 374 353 c 5
 398.962 380.458 422 434.55 422 490 c 4
 422 498.667 421.667 505.333 421 510 c 5
 484 451 l 5
 472 407 451 368.667 423 336 c 5
 505 281 506 213 506 183 c 4
 506 86.0091 430.359 1 345 1 c 5
 314 69 l 5
EndSplineSet
Fore
SplineSet
314 69 m 1
 406.334 69 469 126.91 469 199 c 0
 469 215.667 459.667 236.667 453 252 c 1
 358 137 l 1
 320 170 l 1
 417 284 l 1
 400.333 291.333 385.333 296 366 296 c 0
 350.8 296 310.683 293.576 291 256 c 5
 288 193 241.206 130.486 174 125 c 5
 79.883 125 23.4696 220.88 1 317 c 5
 22 323 l 5
 37.6244 259.2 75.6 185 156 185 c 4
 225.455 185 260 251.51 260 332 c 4
 260 409 225.46 454.286 173.649 454.286 c 6
 173.649 454.286 77 454 71 454 c 5
 43 513 l 5
 169 513 l 5
 243 494 281 433 296 343 c 5
 308 351 327.667 355 355 355 c 0
 359.667 355 366 354.333 374 353 c 1
 398.962 380.458 422 434.55 422 490 c 0
 422 498.667 421.667 505.333 421 510 c 1
 484 451 l 1
 472 407 451 368.667 423 336 c 1
 505 281 506 213 506 183 c 0
 506 86.0091 430.359 1 345 1 c 1
 314 69 l 1
EndSplineSet
LCarets2: 1 0
Ligature2: "'vatu' Vattu Variants in Gujarati lookup 3 subtable" u0A9D u0ACD_u0AB0
EndChar

StartChar: u0A9E
Encoding: 152 2718 152
Width: 583
Flags: HW
AnchorPoint: "abv" 416 530 basechar 0
LayerCount: 2
Back
SplineSet
468 2 m 4
 427.6 2 382 18 382 82 c 6
 382 515 l 5
 436 455 l 5
 436 52 l 6
 436 44.667 439 41 445 41 c 260
 459.4 41 475.414 63.0078 481 82 c 5
 532 27 l 5
 524.825 17.6729 506.4 2 468 2 c 4
161 511 m 5
 220.021 503.465 269.117 438.414 289 339 c 5
 385 339 l 5
 385 281 l 5
 296 281 l 5
 296 171.857 259.081 81 165 81 c 4
 78.6816 81 15.4414 155.916 1 236 c 5
 20 241 l 5
 37.3379 187.748 88.2979 144 147 144 c 4
 223.824 144 266 210.971 266 296 c 260
 266 380.013 222.04 457 150 457 c 6
 64 457 l 5
 35 511 l 5
 161 511 l 5
EndSplineSet
Fore
SplineSet
296 321 m 1
 382 321 l 1
 382 77 l 2
 382 13 427.6 -4 468 -4 c 0
 506.4 -4 524.825 11.6729 532 21 c 1
 481 76 l 1
 475.414 57.0078 459.4 35 445 35 c 0
 439 35 436 38.667 436 46 c 2
 436 454 l 1
 382 514 l 1
 382 379 l 1
 291 379 l 1
 279 461 245 494.429 171 513.429 c 1
 45 513.429 l 1
 73 454.429 l 1
 79 454.429 175.649 454.715 175.649 454.715 c 2
 227.46 454.715 262 409.429 262 332.429 c 0
 262 251.939 227.455 178.429 158 178.429 c 0
 77.5996 178.429 39.624 252.629 24 316.429 c 1
 3 310.429 l 1
 25.4055 214.583 70.9472 118.426 171.137 118.426 c 0
 275.99 118.426 294.997 259.836 296 321 c 1
EndSplineSet
EndChar

StartChar: u0A9F
Encoding: 153 2719 153
Width: 430
Flags: HW
AnchorPoint: "abv" 130 530 basechar 0
LayerCount: 2
Back
SplineSet
330 52 m 5
 272.358 10.1826 210.071 -4.43945 152.87 -4.43945 c 4
 73.2206 -4.43945 0.329102 46.5234 0.329102 156.484 c 4
 0.329102 271.957 231.575 310.036 238 410 c 5
 238 433.237 227.05 443.682 211 454 c 5
 72 454 l 5
 39 513 l 5
 187 513 l 5
 238.727 502.298 272 444.937 272 387 c 4
 272 247.442 34.874 206.784 34.874 127.192 c 4
 34.874 98.3154 56.0948 56 142 56 c 4
 175 56 253 84 292 123 c 5
 330 52 l 5
EndSplineSet
Fore
SplineSet
330 52 m 1
 272.358 10.1826 210.071 -4.43945 152.87 -4.43945 c 0
 73.2206 -4.43945 0.329102 46.5234 0.329102 156.484 c 0
 0.329102 271.957 231.575 310.036 238 410 c 1
 238 433.237 227.05 443.682 211 454 c 1
 72 454 l 1
 39 513 l 1
 187 513 l 1
 238.727 502.298 272 444.937 272 387 c 0
 272 247.442 26.874 206.784 26.874 127.192 c 0
 26.874 98.3154 56.0948 56 142 56 c 0
 175 56 253 84 292 123 c 1
 330 52 l 1
EndSplineSet
EndChar

StartChar: u0A9F.blws
Encoding: 154 -1 154
Width: 371
Flags: HW
LayerCount: 2
Back
SplineSet
0 4 m 0
 0 58.4414 63.2016 72 106 72 c 2
 118 72 l 1
 123.333 70.6667 127.333 70 130 70 c 1
 130 102 l 1
 38.8984 102 1 185.104 1 260 c 0
 1 297.333 32.1667 327.167 94.5 349.5 c 128
 156.833 371.833 190 392.333 194 411 c 1
 199.215 427.95 181.662 459 159 459 c 2
 55 459 l 1
 32 510 l 1
 150 510 l 1
 189.198 501.834 224.608 456.627 226.5 415 c 128
 226.833 407.667 227.333 402 228 398 c 0
 228 355.333 194.833 323.333 128.5 302 c 128
 62.1667 280.667 29 259.333 29 238 c 0
 29 178.203 82.9266 154 126 154 c 0
 170.8 154 214.313 188.006 238 216 c 1
 264 161 l 1
 257.108 152.486 224.292 113.756 156 104 c 1
 156 37 l 1
 52.5 37 30 4.6 30 -17 c 0
 30 -44.9781 62.5859 -64 101 -64 c 0
 164.171 -64 211.481 -17.4788 237 15 c 1
 271 -7 l 1
 237.75 -61.9911 178.6 -96 117 -96 c 0
 52.6594 -96 1.77974e-18 -58.925 0 4 c 0
EndSplineSet
Fore
SplineSet
0 4 m 0
 0 58.4414 63.2016 72 106 72 c 0
 127.6 72 120.4 70 130 70 c 1
 130 102 l 1
 38.8984 102 1 185.104 1 260 c 0
 1 297.333 32.1667 327.167 94.5 349.5 c 128
 186.216 382.361 194.924 404.012 194.924 417.64 c 0
 194.924 434.961 178.939 456 159 456 c 2
 55 456 l 1
 32 512 l 1
 150 512 l 1
 228.071 495.735 227.998 398.015 228 398 c 0
 228 355.333 194.833 323.333 128.5 302 c 128
 62.1667 280.667 29 259.333 29 238 c 0
 29 178.203 82.9266 154 126 154 c 0
 170.8 154 214.313 188.006 238 216 c 1
 264 161 l 1
 257.108 152.486 224.292 113.756 156 104 c 1
 156 37 l 1
 52.5 37 30 4.6 30 -17 c 0
 30 -44.9781 62.5859 -64 101 -64 c 0
 164.171 -64 211.481 -17.4788 237 15 c 1
 271 -7 l 1
 237.75 -61.9911 178.6 -96 117 -96 c 0
 52.6594 -96 1.77974e-18 -58.925 0 4 c 0
EndSplineSet
LCarets2: 2 0 0
Ligature2: "'blws' Below Base Substitutions in Gujarati lookup 6 subtable" u0A9F u0ACD u0A9F
EndChar

StartChar: u0A9F_u0AA0.blws
Encoding: 155 -1 155
Width: 371
Flags: HW
LayerCount: 2
Back
SplineSet
68 -20 m 4
 68 -42.6026 89.4753 -61 120 -61 c 4
 162.846 -61 211 -25.3031 211 9 c 4
 211 32.2964 183.488 50 155 50 c 4
 111.784 50 68 15.4873 68 -20 c 4
36 -12 m 4
 36 36.9344 76.5133 72.5405 125 80 c 5
 125 102 l 5
 46.2797 102 1 172.078 1 260 c 4
 1 297.333 32.1667 327.167 94.5 349.5 c 132
 186.216 382.361 194.924 404.012 194.924 417.64 c 4
 194.924 434.961 178.939 454 159 454 c 6
 55 454 l 5
 32 513 l 5
 150 513 l 5
 228.071 496.735 227.998 398.015 228 398 c 4
 228 355.333 194.833 323.333 128.5 302 c 132
 62.1667 280.667 29 259.333 29 238 c 4
 29 178.203 82.9266 154 126 154 c 4
 170.8 154 214.313 188.006 238 216 c 5
 264 161 l 5
 244.269 136.007 203.055 111.783 161 105 c 5
 161 80 l 5
 208.694 72.4694 249 36.6494 249 -12 c 4
 249 -64.6443 206.137 -106 143 -106 c 4
 82.3366 -106 36 -63.4008 36 -12 c 4
EndSplineSet
Fore
SplineSet
68 -20 m 0
 68 -42.6026 89.4753 -61 120 -61 c 0
 162.846 -61 211 -25.3031 211 9 c 0
 211 32.2964 183.488 50 155 50 c 0
 111.784 50 68 15.4873 68 -20 c 0
36 -12 m 0
 36 36.9344 76.5133 72.5405 125 80 c 1
 125 102 l 1
 46.2797 102 1 172.078 1 260 c 0
 1 297.333 32.1667 327.167 94.5 349.5 c 128
 186.216 382.361 194.924 404.012 194.924 417.64 c 0
 194.924 434.961 178.939 454 159 454 c 2
 55 454 l 1
 32 513 l 1
 150 513 l 1
 228.071 496.735 227.998 398.015 228 398 c 0
 228 355.333 194.833 323.333 128.5 302 c 128
 62.1667 280.667 29 259.333 29 238 c 0
 29 178.203 82.9266 154 126 154 c 0
 170.8 154 214.313 188.006 238 216 c 1
 264 161 l 1
 244.269 136.007 203.055 111.783 161 105 c 1
 161 80 l 1
 208.694 72.4694 249 36.6494 249 -12 c 0
 249 -64.6443 206.137 -106 143 -106 c 0
 82.3366 -106 36 -63.4008 36 -12 c 0
EndSplineSet
LCarets2: 2 0 0
Ligature2: "'blws' Below Base Substitutions in Gujarati lookup 6 subtable" u0A9F u0ACD u0AA0
EndChar

StartChar: u0AA0
Encoding: 156 2720 156
Width: 430
Flags: HW
AnchorPoint: "abv" 174 531 basechar 0
LayerCount: 2
Back
SplineSet
44 127 m 4
 44 82.6 77.75 53 133 53 c 4
 207.272 53 288 103.681 288 168 c 4
 288 216.356 236.559 268 180 268 c 4
 110.784 268 44 191.837 44 127 c 4
62 441 m 4
 62 496.2 106.808 506.795 121 510 c 5
 246 510 l 5
 264 456 l 5
 130 456 l 5
 118 438.667 112 423.333 112 410 c 4
 112 386.667 130.167 362.333 166.5 337 c 134
 274 263 l 5
 312 229.667 331 193.333 331 154 c 4
 331 52.7254 256.214 1 166 1 c 4
 67.2627 1 1 57.7308 1 154 c 4
 1 241.647 67.3719 305 136 305 c 5
 102.374 330.22 62 391.094 62 441 c 4
EndSplineSet
Fore
SplineSet
138 48 m 0
 216.389 48 284.025 104 284.025 161.354 c 0
 284.025 209 216 248 188 262 c 1
 119 262 42.8307 194.908 42.8307 131.076 c 0
 42.8307 108.479 57.6416 48 138 48 c 0
62 441 m 0
 62 496.2 106.808 509.795 121 513 c 1
 246 513 l 1
 264 454 l 1
 130 454 l 1
 116 436 110 424 110 412 c 0
 110 368 191 320 259.573 268 c 0
 294 241 331 192.19 331 154 c 1
 331 50.574 243.729 -4.09284 158.941 -4.09284 c 0
 78.8443 -4.09284 0.964094 44.6914 0.964031 147.24 c 1
 0.964031 273.448 97.1369 303.381 136 305 c 1
 95 346 62 391 62 441 c 0
EndSplineSet
EndChar

StartChar: u0AA0.blws
Encoding: 157 -1 157
Width: 365
Flags: HW
LayerCount: 2
Back
SplineSet
51 -27 m 4
 51 -49.6025 79.4756 -68 110 -68 c 4
 152.846 -68 211 -35.3027 211 -1 c 4
 211 22.2969 173.488 43 145 43 c 4
 101.784 43 51 8.4873 51 -27 c 4
44 198 m 4
 44 178.8 54.4 150 102 150 c 4
 154.534 150 218 189.264 218 235 c 4
 218 269.639 181.188 302 145 302 c 4
 91.6 302 44 244.698 44 198 c 4
265 225 m 6
 265 155.317 219.917 112.439 151 104 c 5
 151 80 l 5
 198.694 72.4694 239 36.6494 239 -12 c 4
 239 -64.6443 196.137 -106 133 -106 c 4
 72.3366 -106 19 -63.4004 19 -12 c 4
 19 36 61.7143 80 115 80 c 5
 115 104 l 5
 45.9665 112.453 1 155.222 1 225 c 4
 1 299.796 58.1742 346 109 346 c 5
 80.5882 363.294 48 407.096 48 447 c 4
 48 482.818 79.051 506.41 97 510 c 5
 197 510 l 5
 213 457 l 5
 106 457 l 5
 98 441.667 94 428.333 94 417 c 4
 94 349.46 265 320.436 265 235 c 6
 265 225 l 6
EndSplineSet
Fore
SplineSet
51 -27 m 0
 51 -49.6025 79.4756 -68 110 -68 c 0
 152.846 -68 211 -35.3027 211 -1 c 0
 211 22.2969 173.488 43 145 43 c 0
 101.784 43 51 8.4873 51 -27 c 0
44 198 m 0
 44 178.8 54.4 150 102 150 c 0
 154.534 150 218 189.264 218 235 c 0
 218 269.639 181.188 302 145 302 c 0
 91.6 302 44 244.698 44 198 c 0
265 225 m 2
 265 155.317 219.917 112.439 151 104 c 1
 151 80 l 1
 198.694 72.4694 239 36.6494 239 -12 c 0
 239 -64.6443 196.137 -106 133 -106 c 0
 72.3366 -106 19 -63.4004 19 -12 c 0
 19 36 61.7143 80 115 80 c 1
 115 104 l 1
 45.9665 112.453 1 155.222 1 225 c 0
 1 299.796 58.1742 346 109 346 c 1
 80.5882 363.294 48 407.096 48 447 c 0
 48 482.818 79.051 506.41 97 510 c 1
 197 510 l 1
 213 457 l 1
 106 457 l 1
 98 441.667 94 428.333 94 417 c 0
 94 349.46 265 320.436 265 235 c 2
 265 225 l 2
EndSplineSet
LCarets2: 2 0 0
Ligature2: "'blws' Below Base Substitutions in Gujarati lookup 6 subtable" u0AA0 u0ACD u0AA0
EndChar

StartChar: u0AA1
Encoding: 158 2721 158
Width: 402
Flags: HW
LayerCount: 2
Back
SplineSet
67 402 m 0
 67 450.337 97.2715 503.746 129 513 c 1
 285 513 l 1
 300 454 l 1
 136 454 l 1
 114.647 441.188 103 407.869 103 390 c 0
 103 347.333 128 322.333 178 315 c 0
 270.667 301.667 317.333 295 318 295 c 0
 368.667 275 394 227.667 394 153 c 0
 394 77.3 339.184 1 239 1 c 0
 143.8 1 64.7994 73.4764 1 225 c 1
 23 232 l 1
 52.1065 146.004 137.668 59 230 59 c 0
 318.519 59 359 120.845 359 170 c 0
 359 218.667 334.667 246.167 286 252.5 c 128
 237.333 258.833 189.667 264.667 143 270 c 1
 92.3333 286.667 67 330.667 67 402 c 0
EndSplineSet
Fore
SplineSet
257 513 m 1
 272 454 l 1
 136 454 l 1
 121 443 103 429 103 387 c 0
 103 346 138 300.784 226 300.784 c 0
 293 300.784 366 260 366 153 c 0
 366 77.2998 325 -4 211 -4 c 1
 115 -4 48 82 0 226.003 c 1
 23 232 l 1
 54 149 105 54 199.333 54 c 0
 297 54 334 106.845 334 156 c 0
 334 209 282 250.285 205.333 250.285 c 1
 118 250.285 67.2048 308.237 67.2048 397.318 c 1
 67.2048 463.713 96.7443 513.004 128.399 513.004 c 1
 257 513 l 1
EndSplineSet
EndChar

StartChar: u0AA1.blws
Encoding: 159 -1 159
Width: 400
Flags: HW
LayerCount: 2
Back
SplineSet
48 421 m 0
 48 476.571 77.1429 508.286 102 513 c 1
 208 513 l 1
 237 454 l 1
 105 454 l 1
 89 438 83.7143 415.571 84 400 c 0
 84.6552 364.292 142.286 348.977 177.458 348.977 c 0
 274.287 348.977 306 278.571 306 224 c 0
 306 151.4 261.6 103 195 103 c 1
 176 104 l 1
 176 69 l 1
 190.946 70.4945 200 71 206 71 c 0
 246.577 71 296 58.6 296 9 c 0
 296 -53.4938 245.634 -91 182 -91 c 0
 151.8 -91 75.0377 -81.2679 31 -2 c 1
 62 19 l 1
 122.232 -50.9999 176.4 -61 205 -61 c 0
 239.889 -61 268 -42.5043 268 -16 c 0
 268 5.6 244.4 38 150 38 c 1
 150 109 l 1
 75.87 133.092 33.6144 205.806 1 281 c 1
 19 288 l 1
 39.3201 241.889 91 152 190 152 c 0
 242.571 152 275 186 275 217 c 0
 275 273.429 236.571 303.977 177.429 303.977 c 0
 140.571 303.977 48 304.855 48 421 c 0
EndSplineSet
Fore
SplineSet
237 454 m 1
 208 513 l 1
 102 513 l 1
 77 508 48 477 48 421 c 0
 48 305 141 304 177 304 c 0
 237 304 279 269 279 210 c 0
 279 179 243 151 190 151 c 0
 91 151 42 248 22 294 c 1
 1 280 l 1
 34 205 74 133 148 109 c 1
 148 38 l 1
 242 38 266 16 266 -16 c 0
 266 -42 238 -62 203 -62 c 0
 174 -62 119 -48 59 22 c 1
 58 22 29 -2 29 -2 c 1
 88 -80 150 -91 180 -91 c 0
 237 -91 294 -61 294 12 c 0
 294 55 252 69 174 69 c 1
 174 104 l 1
 250 104 306 146 306 224 c 0
 306 344 194 351 165 351 c 1
 112 351 84 375 84 401 c 0
 84 424 93 447 106 454 c 1
 237 454 l 1
EndSplineSet
LCarets2: 2 0 0
Ligature2: "'blws' Below Base Substitutions in Gujarati lookup 6 subtable" u0AA1 u0ACD u0AA1
EndChar

StartChar: u0AA1_u0AA2.blws
Encoding: 160 -1 160
Width: 406
Flags: HW
LayerCount: 2
Fore
SplineSet
103 513 m 1
 209 513 l 1
 237 454 l 1
 105 454 l 1
 92.333 440 86 427.667 86 411 c 0
 86 375 122.5 354.667 195.5 350 c 128
 268.5 345.333 305.333 303.333 306 224 c 0
 306 155.337 256 107 201 104 c 1
 201 52 l 1
 129.081 25.6634 84 16.072 84 -30 c 0
 84 -67.425 108.4 -100 145 -100 c 0
 160.444 -100 171 -96.4287 179 -92 c 1
 160.286 -78.5714 155 -58.667 155 -42 c 0
 155 -11.4287 180.113 9.80242 204.651 9.80242 c 0
 223.25 9.80242 252.149 -1.08691 252.149 -44.6436 c 0
 252.149 -93.1429 209.494 -137 150 -137 c 0
 70.5232 -137 48.3429 -58.0703 48.3429 -20.7609 c 0
 48.3429 31.2956 105.641 45.5469 167 66 c 1
 167 104 l 1
 104 114 62.7171 139.708 1 282 c 1
 19 289 l 1
 39.3201 242.889 85 154 184 154 c 0
 238.264 154 274 187.771 274 238 c 0
 274 302.33 224.323 299.835 179.598 306.022 c 0
 110.744 315.547 53.9989 324.384 53.9989 424.247 c 0
 53.9989 461.045 75.9972 505.894 103 513 c 1
232 -42 m 0
 232 -31.9197 221.981 -18.9985 208.255 -18.9985 c 0
 195.91 -19.1406 182.99 -35.9091 182.99 -50.4142 c 0
 182.99 -65.4446 190.747 -77.1629 198.861 -82.5723 c 1
 211.512 -77.9727 232 -58.7998 232 -42 c 0
EndSplineSet
LCarets2: 2 0 0
Ligature2: "'blws' Below Base Substitutions in Gujarati lookup 6 subtable" u0AA1 u0ACD u0AA2
EndChar

StartChar: u0AA2
Encoding: 161 2722 161
Width: 423
Flags: HW
LayerCount: 2
Back
SplineSet
40 180 m 4
 40 110.955 81.9289 52 143 52 c 4
 162.333 52 181.667 57.6667 201 69 c 5
 182.615 88.9836 158 121.989 158 163 c 4
 158 214.133 201.115 252 246 252 c 4
 250.667 251.333 254 251 256 251 c 4
 303.44 244.918 333 217.484 333 169 c 4
 333 91.7922 255.206 1 150 1 c 4
 100.946 1 68.5819 18.0567 35 75 c 5
 11.0368 118.698 4.70189 173.782 2 199 c 5
 2 355.413 242 319.038 242 393 c 4
 242 416.631 224.339 448.597 212 456 c 5
 82 456 l 5
 40 510 l 5
 188 510 l 5
 251.668 496.827 273 416.218 273 386 c 4
 273 356.712 260.543 343.441 244 330 c 5
 196.597 285.231 40 249.424 40 180 c 4
254 217 m 4
 236.755 217 199 208.17 199 149 c 4
 199 116.333 208 93 226 79 c 5
 258.475 91.4902 304 138.219 304 174 c 4
 304 197.926 278.467 217 254 217 c 4
208 -19 m 1024
208 -19 m 1024
EndSplineSet
Fore
SplineSet
40 180 m 0
 40 110.955 81.9289 52 143 52 c 0
 162.333 52 181.667 57.6667 201 69 c 1
 182.615 88.9836 158 121.989 158 163 c 0
 158 214.133 201.115 252 246 252 c 0
 250.667 251.333 254 251 256 251 c 0
 303.44 244.918 333 217.484 333 169 c 0
 333 91.7922 255.206 1 150 1 c 0
 100.946 1 68.5819 18.0567 35 75 c 1
 11.0368 118.698 4.70189 173.782 2 199 c 1
 2 355.413 242 319.038 242 393 c 0
 242 416.631 224.339 448.597 212 456 c 1
 82 456 l 1
 40 510 l 1
 188 510 l 1
 251.668 496.827 273 416.218 273 386 c 0
 273 356.712 260.543 343.441 244 330 c 1
 196.597 285.231 40 249.424 40 180 c 0
254 217 m 0
 236.755 217 199 208.17 199 149 c 0
 199 116.333 208 93 226 79 c 1
 258.475 91.4902 304 138.219 304 174 c 0
 304 197.926 278.467 217 254 217 c 0
EndSplineSet
EndChar

StartChar: u0AA3
Encoding: 162 2723 162
Width: 578
Flags: HW
AnchorPoint: "abv" 416 517 basechar 0
LayerCount: 2
Back
SplineSet
463 -4 m 4
 422.6 -4 377 17 377 81 c 6
 377 514 l 5
 431 454 l 5
 431 51 l 6
 431 43.667 434 40 440 40 c 260
 454.4 40 470.414 62.0078 476 81 c 5
 527 21 l 5
 519.825 11.6729 501.4 -4 463 -4 c 4
235 -24 m 260
 256.25 -24 268 -6.59961 268 5 c 4
 268 39.5225 131.416 88.667 71 137 c 4
 24.333 174.333 1 215.667 1 261 c 6
 1 510 l 5
 55 454 l 5
 55 240 l 6
 55 213.333 77 184 121 152 c 5
 245 71 l 5
 289.667 40.333 312 14 312 -8 c 4
 312 -36.5156 287.952 -58 253 -58 c 4
 217.942 -58 178.929 -37.8213 159 -19 c 5
 171 0 l 5
 203 -15.5 l 134
 215 -21.167 225.667 -24 235 -24 c 260
310 339 m 4
 310 268.892 286.789 203 227 203 c 4
 185.8 203 151.153 223.626 124 290 c 5
 147 305 l 5
 168 263 201.13 255 222 255 c 4
 259.2 255 284 293.675 284 342 c 4
 284 369.333 275.333 397 258 425 c 5
 157 425 l 5
 131 483 l 5
 243 483 l 6
 290.962 483 310 398.045 310 339 c 4
EndSplineSet
Fore
SplineSet
463 -4 m 0
 422.6 -4 377 17 377 81 c 2
 377 514 l 1
 431 454 l 1
 431 51 l 2
 431 43.667 434 40 440 40 c 256
 454.4 40 470.414 62.0078 476 81 c 1
 527 21 l 1
 519.825 11.6729 501.4 -4 463 -4 c 0
235 -24 m 256
 256.25 -24 268 -6.59961 268 5 c 0
 268 39.5225 131.416 88.667 71 137 c 0
 24.333 174.333 1 215.667 1 261 c 2
 1 510 l 1
 55 454 l 1
 55 240 l 2
 55 213.333 77 184 121 152 c 1
 245 71 l 1
 289.667 40.333 312 14 312 -8 c 0
 312 -36.5156 287.952 -58 253 -58 c 0
 217.942 -58 178.929 -37.8213 159 -19 c 1
 171 0 l 1
 203 -15.5 l 130
 215 -21.167 225.667 -24 235 -24 c 256
310 339 m 0
 310 268.892 286.789 203 227 203 c 0
 185.8 203 151.153 223.626 124 290 c 1
 147 305 l 1
 168 263 201.13 255 222 255 c 0
 259.2 255 284 293.675 284 342 c 0
 284 369.333 275.333 397 258 425 c 1
 157 425 l 1
 131 483 l 1
 243 483 l 2
 290.962 483 310 398.045 310 339 c 0
EndSplineSet
EndChar

StartChar: u0AA3.half
Encoding: 163 -1 163
Width: 376
Flags: HW
LayerCount: 2
Back
SplineSet
235 -24 m 260
 256.25 -24 268 -6.6 268 5 c 4
 268 39.5225 131.416 88.6669 71 137 c 4
 24.3333 174.333 1 215.667 1 261 c 6
 1 516 l 5
 55 454 l 5
 55 240 l 6
 55 213.333 77 184 121 152 c 5
 245 71 l 5
 289.667 40.3333 312 14 312 -8 c 4
 312 -36.5157 287.952 -58 253 -58 c 4
 217.942 -58 178.929 -37.8217 159 -19 c 5
 171 0 l 5
 203 -15.5 l 134
 215 -21.1667 225.667 -24 235 -24 c 260
310 339 m 4
 310 268.892 286.789 203 227 203 c 4
 185.8 203 151.153 223.626 124 290 c 5
 147 305 l 5
 168 263 201.13 255 222 255 c 4
 259.2 255 284 293.675 284 342 c 4
 284 369.333 275.333 397 258 425 c 5
 157 425 l 5
 131 483 l 5
 243 483 l 6
 290.962 483 310 398.045 310 339 c 4
EndSplineSet
Fore
SplineSet
235 -24 m 256
 256.25 -24 268 -6.6 268 5 c 0
 268 39.5225 131.416 88.6669 71 137 c 0
 24.3333 174.333 1 215.667 1 261 c 2
 1 516 l 1
 55 454 l 1
 55 240 l 2
 55 213.333 77 184 121 152 c 1
 245 71 l 1
 289.667 40.3333 312 14 312 -8 c 0
 312 -36.5157 287.952 -58 253 -58 c 0
 217.942 -58 178.929 -37.8217 159 -19 c 1
 171 0 l 1
 203 -15.5 l 130
 215 -21.1667 225.667 -24 235 -24 c 256
310 339 m 0
 310 268.892 286.789 203 227 203 c 0
 185.8 203 151.153 223.626 124 290 c 1
 147 305 l 1
 168 263 201.13 255 222 255 c 0
 259.2 255 284 293.675 284 342 c 0
 284 369.333 275.333 397 258 425 c 1
 157 425 l 1
 131 483 l 1
 243 483 l 2
 290.962 483 310 398.045 310 339 c 0
EndSplineSet
LCarets2: 1 0
Ligature2: "'half' Half Forms in Gujarati lookup 4 subtable" u0AA3 u0ACD
EndChar

StartChar: u0AA3_u0AC1.blws
Encoding: 164 -1 164
Width: 626
Flags: HW
LayerCount: 2
Back
SplineSet
435.5 19 m 4
 435.5 0 455.144 -11.0703 468 -14.5 c 5
 486 -14.5 505.5 0 505.5 14.5 c 4
 505.5 19.3008 498.5 43.5 469 43.5 c 4
 453 43.5 435.5 38.0066 435.5 19 c 4
235 -24 m 256
 256.25 -24 268 -6.6 268 5 c 0
 268 39.5225 131.416 88.6669 71 137 c 0
 24.3333 174.333 1 215.667 1 261 c 2
 1 510 l 1
 55 454 l 1
 55 240 l 2
 55 213.333 77 184 121 152 c 1
 245 71 l 1
 289.667 40.3333 312 14 312 -8 c 0
 312 -36.5157 287.952 -58 253 -58 c 0
 217.942 -58 178.929 -37.8217 159 -19 c 1
 171 0 l 1
 203 -15.5 l 130
 215 -21.1667 225.667 -24 235 -24 c 256
310 339 m 0
 310 268.892 286.789 203 227 203 c 0
 185.8 203 151.153 223.626 124 290 c 1
 147 305 l 1
 168 263 201.13 255 222 255 c 0
 259.2 255 284 293.675 284 342 c 0
 284 369.333 275.333 397 258 425 c 1
 157 425 l 1
 131 483 l 1
 243 483 l 2
 290.962 483 310 398.045 310 339 c 0
376 153 m 2
 376 510 l 1
 430 452 l 1
 430 123 l 2
 430 115.667 433 112 439 112 c 256
 453.4 112 469.414 134.008 475 153 c 1
 525 98 l 1
 497.494 62.2428 376 51.7847 376 153 c 2
511 13 m 4
 511 -42.5422 468.274 -55 443 -55 c 4
 388.939 -55 346.618 -5.17028 327 32 c 5
 338 38 l 5
 355.861 10.6127 397.026 -18 443 -18 c 5
 423.667 -3.33333 414 13 414 31 c 4
 414 88.6263 511 92.0723 511 13 c 4
577 13 m 0
 577 -6.375 610 -27 622 -27 c 0
 628 -27 631 -22.333 631 -13 c 0
 631 -8.23145 628.069 36 603 36 c 0
 595.5 36 577 31.4004 577 13 c 0
EndSplineSet
Fore
SplineSet
435.5 16.5 m 0
 435.5 -2.5 455.144 -13.5703 468 -17 c 1
 486 -17 505.5 -2.5 505.5 12 c 0
 505.5 16.8008 498.5 41 469 41 c 0
 453 41 435.5 35.5068 435.5 16.5 c 0
516 10.5 m 0
 516 -45.042 468.274 -57.5 443 -57.5 c 0
 388.939 -57.5 346.618 -7.66992 327 29.5 c 1
 338 35.5 l 1
 355.861 8.1123 397.026 -20.5 443 -20.5 c 1
 423.667 -5.83301 414 10.5 414 28.5 c 0
 414 55.7706 436.843 70.9076 460.909 70.9076 c 0
 487.697 70.9076 516 52.1525 516 10.5 c 0
376 153 m 2
 376 510 l 1
 430 452 l 1
 430 123 l 2
 430 115.667 433 112 439 112 c 0
 453.4 112 469.414 134.008 475 153 c 1
 525 98 l 1
 510.801 80.4881 481.37 72.8326 455.727 72.8326 c 0
 423.836 72.8326 376 88.866 376 153 c 2
310 339 m 0
 310 268.892 286.789 203 227 203 c 0
 185.8 203 151.153 223.626 124 290 c 1
 147 305 l 1
 168 263 201.13 255 222 255 c 0
 259.2 255 284 293.675 284 342 c 0
 284 369.333 275.333 397 258 425 c 1
 157 425 l 1
 131 483 l 1
 243 483 l 2
 290.962 483 310 398.045 310 339 c 0
235 -24 m 0
 256.25 -24 268 -6.6 268 5 c 0
 268 39.5225 131.416 88.6671 71 137 c 0
 24.3334 174.333 1 215.667 1 261 c 2
 1 510 l 1
 55 454 l 1
 55 240 l 2
 55 213.333 77 184 121 152 c 1
 245 71 l 1
 289.667 40.3333 312 14 312 -8 c 0
 312 -36.5157 287.952 -58 253 -58 c 0
 217.942 -58 178.929 -37.8217 159 -19 c 1
 171 0 l 1
 203 -15.5 l 2
 215 -21.1667 225.667 -24 235 -24 c 0
EndSplineSet
LCarets2: 1 0
Ligature2: "'blws' Below Base Substitutions in Gujarati lookup 6 subtable" u0AA3 u0AC1
EndChar

StartChar: u0AA3_u0AC2.blws
Encoding: 165 -1 165
Width: 626
Flags: HW
LayerCount: 2
Back
SplineSet
440 112 m 256
 454.4 112 470.414 134.008 476 153 c 1
 526 98 l 1
 511.799 79.539 485.289 73 463 73 c 0
 422.6 73 377 89 377 153 c 2
 377 510 l 1
 431 452 l 1
 431 123 l 2
 431 115.667 434 112 440 112 c 256
223 255 m 0
 260.2 255 285 293.675 285 342 c 0
 285 369.333 276.333 397 259 425 c 1
 158 425 l 1
 132 483 l 1
 244 483 l 2
 291.962 483 311 398.045 311 339 c 0
 311 268.892 287.789 203 228 203 c 0
 186.8 203 152.153 223.626 125 290 c 1
 148 305 l 1
 169 263 202.13 255 223 255 c 0
448 73 m 0
 501.086 73 542.884 25.2314 563 -15 c 1
 552 -22 l 1
 532.824 8.68164 491.9 36 448 36 c 1
 467.333 22 477 5 477 -13 c 0
 476.455 -32.2842 460 -55 435 -55 c 0
 419.388 -55 376.996 -43.633 376.996 4.15962 c 0
 377.281 59.5234 421.328 73 448 73 c 0
313 -6 m 0
 313 -34.5157 288.952 -56 254 -56 c 0
 218.942 -56 179.929 -35.8217 160 -17 c 1
 172 2 l 1
 204 -13.5 l 130
 216 -19.1667 226.667 -22 236 -22 c 256
 257.25 -22 269 -4.6 269 7 c 0
 269 41.5225 132.416 90.6669 72 139 c 0
 25.3333 176.333 2 217.667 2 263 c 2
 2 512 l 1
 56 456 l 1
 56 242 l 2
 56 215.333 78 186 122 154 c 1
 246 73 l 1
 290.667 42.3333 313 16 313 -6 c 0
456 -6 m 0
 456 14.1045 432.571 29.5713 422.002 33.5703 c 1
 410 26.7139 396.5 16.2861 396.5 -2 c 128
 396.5 -12.4287 413.714 -30 428 -30 c 0
 442.857 -30 456 -20.2754 456 -6 c 0
EndSplineSet
Fore
SplineSet
440 112 m 260
 454.4 112 470.414 134.008 476 153 c 5
 526 98 l 5
 511.799 79.539 485.289 73 463 73 c 4
 422.6 73 377 89 377 153 c 6
 377 510 l 5
 431 452 l 5
 431 123 l 6
 431 115.667 434 112 440 112 c 260
223 255 m 4
 260.2 255 285 293.675 285 342 c 4
 285 369.333 276.333 397 259 425 c 5
 158 425 l 5
 132 483 l 5
 244 483 l 6
 291.962 483 311 398.045 311 339 c 4
 311 268.892 287.789 203 228 203 c 4
 186.8 203 152.153 223.626 125 290 c 5
 148 305 l 5
 169 263 202.13 255 223 255 c 4
448 73 m 4
 501.086 73 542.884 25.2314 563 -15 c 5
 552 -22 l 5
 532.824 8.68164 491.9 36 448 36 c 5
 467.333 22 477 5 477 -13 c 4
 476.455 -32.2842 460 -55 435 -55 c 4
 419.388 -55 376.996 -43.633 376.996 4.15962 c 4
 377.281 59.5234 421.328 73 448 73 c 4
313 -6 m 4
 313 -34.5157 288.952 -56 254 -56 c 4
 218.942 -56 179.929 -35.8217 160 -17 c 5
 172 2 l 5
 204 -13.5 l 134
 216 -19.1667 226.667 -22 236 -22 c 260
 257.25 -22 269 -4.6 269 7 c 4
 269 41.5225 132.416 90.6669 72 139 c 4
 25.3333 176.333 2 217.667 2 263 c 6
 2 512 l 5
 56 456 l 5
 56 242 l 6
 56 215.333 78 186 122 154 c 5
 246 73 l 5
 290.667 42.3333 313 16 313 -6 c 4
456 -6 m 4
 456 14.1045 432.571 29.5713 422.002 33.5703 c 5
 410 26.7139 396.5 16.2861 396.5 -2 c 132
 396.5 -12.4287 413.714 -30 428 -30 c 4
 442.857 -30 456 -20.2754 456 -6 c 4
EndSplineSet
LCarets2: 1 0
Ligature2: "'blws' Below Base Substitutions in Gujarati lookup 6 subtable" u0AA3 u0AC2
EndChar

StartChar: u0AA4
Encoding: 166 2724 166
Width: 479
Flags: HW
LayerCount: 2
Back
SplineSet
364 1 m 4
 323.6 1 278 17 278 81 c 6
 278 514 l 5
 332 454 l 5
 332 51 l 6
 332 43.667 335 40 341 40 c 260
 355.4 40 371.414 62.0078 377 81 c 5
 428 26 l 5
 420.825 16.6729 402.4 1 364 1 c 4
2 278 m 4
 2 326.173 28.7998 363 69 363 c 6
 282 363 l 5
 281 309 l 5
 82 309 l 5
 46.248 278.893 45 243.505 45 232 c 4
 45 159.808 123.654 68.4736 159 22 c 5
 143 6 l 5
 61.208 100.937 2 166.871 2 278 c 4
EndSplineSet
Fore
SplineSet
2 278 m 0
 2 326.173 28.7998 363 69 363 c 2
 278 363 l 1
 278 514 l 1
 332 454 l 1
 332 47 l 2
 332 39.667 335 36 341 36 c 0
 355.4 36 371.414 58.0078 377 77 c 1
 428 22 l 1
 420.825 12.6729 402.4 -3 364 -3 c 0
 323.6 -3 278 13 278 77 c 2
 278 309 l 1
 82 309 l 1
 46.248 278.893 45 243.505 45 232 c 0
 45 159.808 123.654 68.4736 159 22 c 1
 143 6 l 1
 61.208 100.937 2 166.871 2 278 c 0
EndSplineSet
EndChar

StartChar: u0AA4.half
Encoding: 167 -1 167
Width: 277
Flags: HW
LayerCount: 2
Back
SplineSet
2 278 m 0
 2 326.173 28.8 363 69 363 c 2
 282 363 l 1
 281 309 l 1
 82 309 l 1
 46.248 278.893 45 243.505 45 232 c 0
 45 159.808 123.654 68.474 159 22 c 1
 143 6 l 1
 61.2084 100.937 2 166.871 2 278 c 0
EndSplineSet
Fore
SplineSet
2 278 m 4
 2 326.173 28.8 363 69 363 c 6
 282 363 l 5
 281 309 l 5
 82 309 l 5
 46.248 278.893 45 243.505 45 232 c 4
 45 159.808 123.654 68.474 159 22 c 5
 143 6 l 5
 61.2084 100.937 2 166.871 2 278 c 4
EndSplineSet
LCarets2: 1 0
Ligature2: "'half' Half Forms in Gujarati lookup 4 subtable" u0AA4 u0ACD
EndChar

StartChar: u0AA4.pres
Encoding: 168 -1 168
Width: 589
Flags: HW
LayerCount: 2
Back
SplineSet
474 1 m 4
 433.6 1 388 17 388 81 c 6
 388 514 l 5
 442 454 l 5
 442 51 l 6
 442 43.667 445 40 451 40 c 260
 465.4 40 481.414 62.0078 487 81 c 5
 538 26 l 5
 530.825 16.6729 512.4 1 474 1 c 4
253 6 m 5
 172.629 99.2881 110.988 166.916 110.988 275.381 c 4
 110.988 287.833 116.667 305.667 120 309 c 5
 40 309 l 5
 1 363 l 5
 392 363 l 5
 392 309 l 5
 192 309 l 5
 156.248 278.893 155 243.505 155 232 c 4
 155 159.808 233.654 68.4736 269 22 c 5
 253 6 l 5
EndSplineSet
Fore
SplineSet
253 6 m 1
 172.629 99.2881 110.988 166.916 110.988 275.381 c 0
 110.988 287.833 116.667 305.667 120 309 c 1
 40 309 l 1
 1 363 l 1
 388 363 l 1
 388 514 l 1
 442 454 l 1
 442 46 l 2
 442 38.667 445 35 451 35 c 0
 465.4 35 481.414 57.0078 487 76 c 1
 538 21 l 1
 530.825 11.6729 512.4 -4 474 -4 c 0
 433.6 -4 388 12 388 76 c 2
 388 309 l 1
 192 309 l 1
 156.248 278.893 155 243.505 155 232 c 0
 155 159.808 233.654 68.4736 269 22 c 1
 253 6 l 1
EndSplineSet
LCarets2: 1 0
Ligature2: "'pres' Pre Base Substitutions in Gujarati lookup 5 subtable" u0AA4.half u0AA4
EndChar

StartChar: u0AA4.vatu
Encoding: 169 -1 169
Width: 523
Flags: HW
LayerCount: 2
Back
SplineSet
408 1 m 4
 367.6 1 322 17 322 81 c 6
 322 514 l 5
 376 454 l 5
 376 51 l 6
 376 43.667 379 40 385 40 c 260
 399.4 40 415.414 62.0078 421 81 c 5
 472 26 l 5
 464.825 16.6729 446.4 1 408 1 c 4
338 194 m 5
 324 194 l 5
 73 72 l 5
 41 124 l 5
 302 253 l 5
 133.792 407.19 141.025 419.223 48.8877 419.223 c 6
 48.8877 419.223 23.6494 418.413 22 418 c 4
 1 474 l 5
 118 474 l 6
 158.179 474 333.115 265.699 338 260 c 5
 338 194 l 5
EndSplineSet
Fore
SplineSet
408 -6 m 0
 367.6 -6 322 10 322 74 c 2
 322 193.028 l 1
 73 72 l 1
 41 124 l 1
 302 253 l 1
 133.792 407.19 135.2 418 114 418 c 1
 22 418 l 1
 1 474 l 1
 118 474 l 2
 151.283 474 277.039 331.061 322 278.759 c 1
 322 514 l 1
 376 454 l 1
 376 44 l 2
 376 36.667 379 33 385 33 c 0
 399.4 33 415.414 55.0078 421 74 c 1
 472 19 l 1
 464.825 9.67285 446.4 -6 408 -6 c 0
EndSplineSet
LCarets2: 1 0
Ligature2: "'vatu' Vattu Variants in Gujarati lookup 3 subtable" u0AA4 u0ACD_u0AB0
EndChar

StartChar: u0AA4_u0AA8.pres
Encoding: 170 -1 170
Width: 811
Flags: HW
LayerCount: 2
Back
SplineSet
697 1 m 4
 656.6 1 611 17 611 81 c 6
 611 297 l 5
 448 297 l 5
 449.333 285 450 275.667 450 269 c 4
 450 234.6 431.545 228.807 422 226 c 5
 381.425 220.403 329 276.571 329 319 c 4
 329 350.2 350.523 358 379 358 c 6
 389 358 l 6
 389 357.333 389.333 357 390 357 c 6
 611 357 l 5
 611 510 l 5
 665 452 l 5
 665 51 l 6
 665 43.6667 668 40 674 40 c 260
 688.4 40 704.414 62.0076 710 81 c 5
 761 26 l 5
 753.825 16.6729 735.4 1 697 1 c 4
3 278 m 4
 3 326.173 29.8 363 70 363 c 6
 283 363 l 5
 282 309 l 5
 83 309 l 5
 47.248 278.893 46 243.505 46 232 c 4
 46 159.808 124.654 68.474 160 22 c 5
 144 6 l 5
 62.2084 100.937 3 166.871 3 278 c 4
EndSplineSet
Fore
SplineSet
697 1 m 0
 656.6 1 611 17 611 81 c 2
 611 297 l 1
 448 297 l 1
 449.333 285 450 275.667 450 269 c 0
 450 233.509 429.084 225.612 416.252 225.612 c 0
 376.649 225.612 329 278.55 329 319 c 0
 329 352.418 343.899 358.266 427.983 358.266 c 2
 427.983 358.266 525.284 358 611 358 c 1
 611 510 l 1
 665 452 l 1
 665 51 l 2
 665 43.6667 668 40 674 40 c 256
 688.4 40 704.414 62.0076 710 81 c 1
 761 26 l 1
 753.825 16.6729 735.4 1 697 1 c 0
3 278 m 0
 3 326.173 29.8 363 70 363 c 2
 283 363 l 1
 282 309 l 1
 83 309 l 1
 47.248 278.893 46 243.505 46 232 c 0
 46 159.808 124.654 68.474 160 22 c 1
 144 6 l 1
 62.2084 100.937 3 166.871 3 278 c 0
EndSplineSet
LCarets2: 1 0
Ligature2: "'pres' Pre Base Substitutions in Gujarati lookup 5 subtable" u0AA4.half u0AA8
EndChar

StartChar: u0AA5.half
Encoding: 172 -1 172
Width: 307
Flags: HW
LayerCount: 2
Fore
SplineSet
103 374 m 0
 103 336.3 138.636 306 172 306 c 0
 205.176 306 225 342.088 225 381 c 256
 225 411.148 212.266 458 176 458 c 0
 141.182 458 103 416.551 103 374 c 0
133 100 m 0
 204.536 100 287.85 151.917 312 219 c 1
 313 121 l 1
 277.187 84.0319 223 48 163 48 c 2
 143 48 l 1
 114.277 56.617 78.4306 60.3067 39 104 c 0
 12.3333 133.333 -1 166.667 -1 204 c 0
 -1 259.794 32.3781 279.023 100 314 c 1
 72.9335 337.376 57 366.2 57 401 c 0
 57 456.945 104.166 502 158 502 c 0
 209.828 502 257 453.886 257 395 c 0
 257 322.106 193.014 296.916 121 262 c 0
 61 232.667 31 205.333 31 180 c 0
 31 160.175 53.4 100 133 100 c 0
EndSplineSet
Ligature2: "'half' Half Forms in Gujarati lookup 4 subtable" u0AA5 u0ACD
EndChar

StartChar: u0AA6
Encoding: 174 2726 174
Width: 377
Flags: HW
LayerCount: 2
Fore
SplineSet
28 168 m 0
 28 109.296 79.3985 50 157 50 c 0
 173.2 50 211.644 54.9668 238 73 c 1
 236.667 81 236 86.3333 236 89 c 0
 236 118.585 256.047 135 280 135 c 0
 309.422 135 323 115.71 323 91 c 0
 323 31.6328 228.252 1 176 1 c 0
 77.6445 1 1 73.4555 1 190 c 0
 1 263.2 44.6161 297.256 71 312 c 1
 25 367.333 2 414.333 2 453 c 0
 2 491 25.6667 510 73 510 c 2
 189 510 l 1
 205 456 l 1
 63 456 l 1
 54.3333 444.667 50 431.333 50 416 c 0
 50 378.513 73.2086 344.233 96 326 c 1
 108.504 331.835 124.4 337 167 337 c 2
 193 337 l 1
 202 279 l 1
 60.025 279 28 212.4 28 168 c 0
EndSplineSet
EndChar

StartChar: u0AA6.half
Encoding: 175 -1 175
Width: 393
Flags: HW
LayerCount: 2
Fore
SplineSet
169 61 m 256
 119.7 61 20 104.459 20 189 c 0
 20 207.667 23.6667 227 31 247 c 1
 36.6376 272.369 51.7414 290.702 65 306 c 1
 31.8497 341.1 2 389.677 2 426 c 0
 2 496.564 78.1367 499.642 132 510 c 1
 163 456 l 1
 144.333 454 125.667 452.333 107 451 c 1
 54.1109 442.773 48 409.545 48 395 c 0
 48 368.6 65.424 348.932 92 329 c 1
 127 351 l 2
 143 361 160.667 367 180 369 c 1
 213 320 l 1
 117.325 293.736 66 231.8 66 173 c 0
 66 129.2 112.725 100 153 100 c 0
 172.333 100 184 106 188 118 c 1
 188 160.026 210.225 202 247 202 c 0
 265.4 202 293 192 293 152 c 0
 293 124 280 102 254 86 c 1
 255.333 84.6667 262 72.6667 274 50 c 2
 293 16 l 1
 266 1 l 1
 221 75 l 1
 204.333 65.6667 187 61 169 61 c 256
EndSplineSet
Ligature2: "'half' Half Forms in Gujarati lookup 4 subtable" u0AA6 u0ACD
EndChar

StartChar: u0AA6.vatu
Encoding: 176 -1 176
Width: 439
Flags: HW
LayerCount: 2
Fore
SplineSet
286 257 m 0
 286 231.001 267.407 215.17 253 205 c 1
 342 44 l 1
 314 30 l 1
 225 186 l 1
 85 75 l 1
 65 111 l 1
 136 171 l 1
 96.8472 171 44.5791 166.842 14 228 c 128
 6 244 2 261.333 2 280 c 0
 2 318.667 26.3333 347 75 365 c 1
 199 405 l 1
 208.333 409.667 213 416 213 424 c 0
 213 436.8 202.032 446.976 190 456 c 1
 58 456 l 1
 31 510 l 1
 182 510 l 1
 225.089 487.594 249 435.163 249 407 c 0
 249 373 213.833 345.833 143.5 325.5 c 128
 73.1667 305.167 36.6667 286.667 34 270 c 0
 26.541 232.705 65.4569 222 102 222 c 0
 132.765 222 165.71 230.419 189 239 c 1
 189 270.023 209.898 306 237 306 c 0
 252.925 306 286 286.4 286 257 c 0
EndSplineSet
Ligature2: "'vatu' Vattu Variants in Gujarati lookup 3 subtable" u0AA6 u0ACD_u0AB0
EndChar

StartChar: u0AA6_u0AA7.blws
Encoding: 177 -1 177
Width: 465
Flags: HW
LayerCount: 2
Fore
SplineSet
43 117 m 0
 43 103.4 50.4 83 80 83 c 2
 91 83 l 1
 91 109.4 107.876 138.883 131 149 c 1
 176 110 l 1
 150.702 102.973 139 83.6 139 66 c 0
 139 22.5022 185.125 16.6316 230 64 c 128
 254 89.3333 266 115.333 266 142 c 0
 266 165.515 259.44 175.967 245 188 c 1
 226.62 180.998 186.2 169 147 169 c 0
 87.8 169 27 191.4 27 281 c 0
 27 307.667 40.3333 329.667 67 347 c 0
 73.6667 351.667 124.333 370.667 219 404 c 0
 231 407.333 237 414 237 424 c 0
 237 437.6 224.54 452.548 215 458 c 1
 82 458 l 1
 55 511 l 1
 206 511 l 1
 249.089 488.594 273 436.163 273 408 c 0
 273 375.333 237.667 350 167 332 c 128
 96.3333 314 61 294 61 272 c 0
 61 251.2 69.4 220 129 220 c 0
 157.667 220 184.667 226.667 210 240 c 1
 214 280 229.333 300 256 300 c 0
 268.85 300 309 291 309 255 c 0
 309 233 298.667 216.333 278 205 c 1
 365 45 l 1
 335 30 l 1
 330.459 48.1647 319.881 74.2072 302 70 c 1
 280.667 24.6667 245.667 2 197 2 c 0
 155 2 103.351 16.9223 92 68 c 1
 84.6667 66 76.3333 65 67 65 c 256
 16.0697 65 1 108.835 1 126 c 0
 1 151.541 20.9793 173.863 39 184 c 1
 73 154 l 1
 53 148 43 135.667 43 117 c 0
EndSplineSet
Ligature2: "'blws' Below Base Substitutions in Gujarati lookup 6 subtable" u0AA6 u0ACD u0AA7
EndChar

StartChar: u0AA6_u0AA8.pres
Encoding: 178 -1 178
Width: 721
Flags: HW
LayerCount: 2
Fore
SplineSet
607 1 m 0
 566.6 1 521 17 521 81 c 2
 521 297 l 1
 358 297 l 1
 359.333 285 360 275.667 360 269 c 0
 360 234.6 341.545 228.807 332 226 c 1
 291.425 220.403 239 276.571 239 319 c 0
 239 350.2 260.523 358 289 358 c 2
 299 358 l 2
 299 357.333 299.333 357 300 357 c 2
 521 357 l 1
 521 510 l 1
 575 452 l 1
 575 51 l 2
 575 43.6667 578 40 584 40 c 256
 598.4 40 614.414 62.0076 620 81 c 1
 671 26 l 1
 663.825 16.6729 645.4 1 607 1 c 0
155 38 m 0
 70.2688 38 0 96.8 0 185 c 0
 0 236.113 24.7104 283.694 66 309 c 1
 36.7852 343.625 16 372.6 16 415 c 0
 16 459.737 32.7352 504 148 504 c 0
 159.4 504 182.648 504.064 205 500 c 1
 227 445 l 1
 209 449.667 190.667 452 172 452 c 0
 109.95 452 63 425.2 63 385 c 0
 63 365.667 73 345.667 93 325 c 1
 108.922 338.269 154.249 356 177 356 c 1
 197 287 l 1
 101.028 263.007 32 222.404 32 170 c 0
 32 141.333 51.6667 116 91 94 c 0
 99.6667 88.6667 112 86 128 86 c 0
 191.62 86 279.489 137.099 300 200 c 1
 300 99 l 1
 265.954 67.1509 219.382 38 155 38 c 0
EndSplineSet
Ligature2: "'pres' Pre Base Substitutions in Gujarati lookup 5 subtable" u0AA6.half u0AA8
EndChar

StartChar: u0AA6_u0AAE.pres
Encoding: 179 -1 179
Width: 569
Flags: HW
LayerCount: 2
Fore
SplineSet
111 196 m 0
 111 227.2 132.432 235 157 235 c 0
 167 234.333 174.333 234 179 234 c 1
 179 286.667 162 318 128 328 c 1
 111.333 331.333 95 335 79 339 c 1
 34.3601 353.576 1 356.041 1 409 c 0
 1 461.4 17.4 510 83 510 c 2
 177 510 l 1
 201 456 l 1
 90 456 l 2
 50.7956 456 44 448.83 44 405 c 0
 44 356.458 116.82 379.645 176 338 c 0
 206.667 316 222 281.333 222 234 c 1
 319 234 l 1
 319 510 l 1
 373 452 l 1
 373 51 l 2
 373 43.6667 376 40 382 40 c 256
 396.4 40 412.414 62.0076 418 81 c 1
 469 26 l 1
 461.825 16.6729 443.4 1 405 1 c 0
 364.6 1 319 17 319 81 c 2
 319 174 l 1
 231 174 l 1
 229.667 168.667 229 163.333 229 158 c 2
 229 142 l 2
 229 110.8 213.452 105.52 204 103 c 1
 163.425 97.4034 111 153.571 111 196 c 0
EndSplineSet
Ligature2: "'pres' Pre Base Substitutions in Gujarati lookup 5 subtable" u0AA6.half u0AAE
EndChar

StartChar: u0AA6_u0AAF.pres
Encoding: 180 -1 180
Width: 553
Flags: HW
LayerCount: 2
Fore
SplineSet
385 1 m 0
 344.6 1 299 17 299 81 c 1
 298 97 l 1
 265.8 68.02 214.906 38 155 38 c 0
 67.0444 38 2 103.016 2 187 c 0
 2 245.493 29.6759 289.22 68 309 c 1
 48.0214 326.125 13 357.837 13 404 c 0
 13 418 16.1667 433 22.5 449 c 128
 35.7413 482.452 79.5295 493 127 493 c 0
 146.6 493 156.4 492 176 492 c 0
 203.4 492 212 494.8 212 506 c 0
 212 558.432 163.38 576 101 576 c 0
 80.6 576 77.2 574 67 574 c 1
 56 628 l 1
 124 628 l 2
 174.859 628 237 581.446 237 524 c 0
 237 471.333 207.5 442.833 148.5 438.5 c 128
 77.2309 433.266 29.343 411.906 58 358.5 c 128
 65.3333 344.833 77.3333 334 94 326 c 1
 100.851 332.851 157.059 356 176 356 c 1
 196 287 l 1
 131.787 274.157 35 222.667 35 170 c 0
 35 130.417 88.9315 86 136 86 c 0
 201.2 86 267.893 135.161 299 189 c 1
 299 510 l 1
 353 452 l 1
 353 51 l 2
 353 43.6667 356 40 362 40 c 256
 376.4 40 392.414 62.0076 398 81 c 1
 449 26 l 1
 441.825 16.6729 423.4 1 385 1 c 0
EndSplineSet
EndChar

StartChar: u0AA6_u0AB5.blws
Encoding: 181 -1 181
Width: 439
Flags: HW
LayerCount: 2
Fore
SplineSet
227 189 m 1
 175.377 173.513 141.4 171 120 171 c 0
 91.6 171 73.8292 173.855 49 187 c 1
 37.7697 195.301 2 224.2 2 280 c 0
 2 318.667 26.3333 347 75 365 c 1
 199 405 l 1
 208.333 409.667 213 416 213 424 c 0
 213 436.8 202.032 446.976 190 456 c 1
 58 456 l 1
 31 510 l 1
 182 510 l 1
 225.089 487.594 249 435.163 249 407 c 0
 249 373 213.833 345.833 143.5 325.5 c 128
 73.1667 305.167 36.6667 286.667 34 270 c 0
 26.541 232.705 65.4569 222 102 222 c 0
 132.765 222 165.71 230.419 189 239 c 1
 189 270.023 209.898 306 237 306 c 0
 252.925 306 286 286.4 286 257 c 0
 286 231.001 267.407 215.17 253 205 c 1
 342 44 l 1
 314 30 l 1
 302 51 l 1
 292 66.3333 283 73.3333 275 72 c 1
 258.527 36.7015 223.293 1 175 1 c 256
 107.343 1 68 39.1215 68 79 c 0
 68 112.017 85.5866 138.038 108 148 c 1
 151 113 l 1
 122.941 97.2166 117 73.8 117 64 c 0
 117 48.6667 125.333 38 142 32 c 1
 178.245 21.2609 247 86.0418 247 143 c 0
 247 161 240.333 176.333 227 189 c 1
EndSplineSet
Ligature2: "'blws' Below Base Substitutions in Gujarati lookup 6 subtable" u0AA6 u0ACD u0AB5
EndChar

StartChar: u0AA7.half
Encoding: 183 -1 183
Width: 292
Flags: HW
LayerCount: 2
Fore
SplineSet
119 84 m 0
 187.07 84 273.921 136.263 301 193 c 1
 301 103 l 1
 261.468 58.7246 196.161 38 151 38 c 0
 85.0559 38 -1 84.1438 -1 185 c 0
 -1 236.113 23.7104 283.694 65 309 c 1
 30.4939 324.926 2 364.193 2 410 c 0
 2 414 2.33333 420.667 3 430 c 0
 11.4094 481.858 53.0622 520.167 139 541 c 1
 180 495 l 1
 81.6563 453.446 59 432.6 59 391 c 0
 59 365 71.19 344.489 91 326 c 1
 100.808 333.847 149.045 356 174 356 c 1
 193 288 l 1
 89.2786 261.059 30 213.6 30 164 c 0
 30 125.178 75.8063 84 119 84 c 0
EndSplineSet
Ligature2: "'half' Half Forms in Gujarati lookup 4 subtable" u0AA7 u0ACD
EndChar

StartChar: u0AA8.half
Encoding: 187 -1 187
Width: 301
Flags: HW
LayerCount: 2
Fore
SplineSet
8 319 m 0
 8 350.2 29.4281 358 57 358 c 2
 67 358 l 2
 67 357.333 67.6667 357 69 357 c 2
 306 357 l 1
 306 297 l 1
 127 297 l 1
 128.333 285 129 275.667 129 269 c 0
 129 234.6 110.545 228.807 101 226 c 1
 60.425 220.403 8 276.571 8 319 c 0
EndSplineSet
Ligature2: "'half' Half Forms in Gujarati lookup 4 subtable" u0AA8 u0ACD
EndChar

StartChar: u0AAA
Encoding: 189 2730 189
Width: 555
Flags: HW
LayerCount: 2
Fore
SplineSet
3 480 m 1
 12.5298 497.698 44.8325 509 55 509 c 0
 61 509.667 65.6667 510 69 510 c 0
 93.2681 510 140.112 497.5 154.5 450.5 c 128
 159.5 434.167 162 415 162 393 c 2
 162 174 l 1
 164.375 151.44 177.729 134 200 134 c 0
 238.752 134 289.178 178.156 296 230 c 1
 296 510 l 1
 349 452 l 1
 349 51 l 2
 349 43.6667 352.333 40 359 40 c 0
 376.517 40 394.748 60.6796 401 81 c 1
 452 26 l 1
 436.907 6.37918 404.411 1 383 1 c 0
 313.4 1 296 41.3875 296 81 c 2
 296 117 l 1
 276.667 100.333 253.667 92 227 92 c 0
 169.35 92 108 134.419 108 226 c 2
 108 457 l 1
 102.667 460.333 97.3333 462 92 462 c 0
 74 462 56.6443 438.4 47 426 c 1
 3 480 l 1
EndSplineSet
EndChar

StartChar: u0AAA.half
Encoding: 190 -1 190
Width: 293
Flags: HW
LayerCount: 2
Fore
SplineSet
200 134 m 0
 238.752 134 289.178 178.156 296 230 c 1
 296 117 l 1
 276.667 100.333 253.667 92 227 92 c 0
 169.35 92 108 134.419 108 226 c 2
 108 457 l 1
 102.667 460.333 97.3333 462 92 462 c 0
 74 462 56.6443 438.4 47 426 c 1
 3 480 l 1
 12.5298 497.698 44.8325 509 55 509 c 0
 61 509.667 65.6667 510 69 510 c 0
 93.2681 510 140.112 497.5 154.5 450.5 c 128
 159.5 434.167 162 415 162 393 c 2
 162 174 l 1
 164.375 151.44 177.729 134 200 134 c 0
EndSplineSet
Ligature2: "'half' Half Forms in Gujarati lookup 4 subtable" u0AAA u0ACD
EndChar

StartChar: u0AAB
Encoding: 192 2731 192
Width: 484
Flags: HW
LayerCount: 2
Fore
SplineSet
1 78 m 0
 1 98.15 21.4 122 52 122 c 0
 88.8574 122 99.7253 64.7582 126 56 c 1
 200.973 56 244 100.916 244 154 c 0
 244 182.368 230.523 232.093 169 272 c 1
 33 222 l 1
 8 272 l 1
 108 308 l 1
 36.3831 360.403 25 410.4 25 436 c 0
 25 485.867 66.9146 520 123 520 c 0
 139.667 520 159 516.667 181 510 c 1
 207 455 l 1
 188.333 459.667 171 462 155 462 c 0
 93 462 81 428.4 81 406 c 0
 81 386.46 93.8244 347.185 138 320 c 1
 275 371 l 1
 302 323 l 1
 203 287 l 1
 253.206 261.285 291 203.35 291 136 c 0
 291 55.875 238.375 1 151 1 c 1
 153.13 -16.0388 192.931 -78 248 -78 c 0
 281.723 -78 314.002 -62.4485 347 -41 c 1
 372 -102 l 1
 319.382 -132.356 287.738 -133 273 -133 c 0
 168.866 -133 154.913 -36.9059 119 2 c 1
 56.1859 2 1 38.9344 1 78 c 0
EndSplineSet
EndChar

StartChar: u0AAB.half
Encoding: 193 -1 193
Width: 484
Flags: HW
LayerCount: 2
Fore
SplineSet
155 462 m 0
 93 462 81 428.4 81 406 c 0
 81 386.46 93.8244 347.185 138 320 c 1
 274 315 l 1
 301 287 l 1
 203 287 l 1
 253.206 261.285 291 203.35 291 136 c 0
 291 55.875 238.375 1 151 1 c 1
 153.13 -16.0388 192.931 -78 248 -78 c 0
 281.723 -78 314.002 -62.4485 347 -41 c 1
 372 -102 l 1
 319.382 -132.356 287.738 -133 273 -133 c 0
 168.866 -133 154.913 -36.9059 119 2 c 1
 56.1859 2 1 38.9344 1 78 c 0
 1 95.6 19.2 122 52 122 c 0
 88.8574 122 99.7253 64.7582 126 56 c 1
 200.973 56 244 100.916 244 154 c 0
 244 182.368 230.523 232.093 169 272 c 1
 33 222 l 1
 8 272 l 1
 108 308 l 1
 36.3831 360.403 25 410.4 25 436 c 0
 25 485.867 66.9146 520 123 520 c 0
 139.667 520 159 516.667 181 510 c 1
 207 455 l 1
 188.333 459.667 171 462 155 462 c 0
EndSplineSet
Ligature2: "'half' Half Forms in Gujarati lookup 4 subtable" u0AAB u0ACD
EndChar

StartChar: u0AAB.vatu
Encoding: 194 -1 194
Width: 484
Flags: HW
LayerCount: 2
Fore
SplineSet
127 56 m 1
 201.973 56 245 100.916 245 154 c 0
 245 182 234 209 212 235 c 1
 113 128 l 1
 75 161 l 1
 170 272 l 1
 34 222 l 1
 9 272 l 1
 109 308 l 1
 37.3831 360.403 26 410.4 26 436 c 0
 26 485.867 67.9146 520 124 520 c 0
 140.667 520 160 516.667 182 510 c 1
 208 455 l 1
 189.333 459.667 172 462 156 462 c 0
 94 462 82 428.4 82 406 c 0
 82 386.46 94.8244 347.185 139 320 c 1
 276 371 l 1
 303 323 l 1
 204 287 l 1
 254.206 261.285 292 203.35 292 136 c 0
 292 55.875 239.375 1 152 1 c 1
 154.13 -16.0388 193.931 -78 249 -78 c 0
 282.723 -78 315.002 -62.4485 348 -41 c 1
 373 -102 l 1
 320.382 -132.356 288.738 -133 274 -133 c 0
 169.866 -133 155.913 -36.9059 120 2 c 1
 57.1859 2 2 38.9344 2 78 c 0
 2 95.6 20.2 122 53 122 c 0
 89.8574 122 100.725 64.7582 127 56 c 1
EndSplineSet
Ligature2: "'vatu' Vattu Variants in Gujarati lookup 3 subtable" u0AAB u0ACD_u0AB0
EndChar

StartChar: u0AAC.half
Encoding: 196 -1 196
Width: 370
Flags: HW
LayerCount: 2
Fore
SplineSet
308 265 m 0
 335.6 265 364.376 296.49 377 323 c 1
 377 251 l 1
 360.175 242.587 339.8 234 315 234 c 0
 303.667 234 293.333 236.333 284 241 c 1
 284 155 l 2
 284 108.119 249.617 64 189 64 c 0
 78.5389 64 1 179.358 1 309 c 0
 1 457.81 72.1599 510 221 510 c 1
 240 456 l 1
 142.28 456 105.812 440.718 62 375 c 0
 45.3333 349.667 37 319.333 37 284 c 0
 37 193.609 90.0594 110 156 110 c 0
 188.833 110 228 139.154 228 167 c 2
 228 252 l 1
 202.551 260.483 183 285.491 183 317 c 0
 183 361 219.525 372 237 372 c 0
 256.2 372 285 358.6 285 305 c 0
 285 297 284 287.333 282 276 c 1
 289.333 268.667 298 265 308 265 c 0
EndSplineSet
Ligature2: "'half' Half Forms in Gujarati lookup 4 subtable" u0AAC u0ACD
EndChar

StartChar: u0AAD.half
Encoding: 199 -1 199
Width: 388
Flags: HW
LayerCount: 2
Fore
SplineSet
163 510 m 0
 249.622 510 296 431.771 296 392 c 2
 296 270 l 1
 394 270 l 1
 394 207 l 1
 296 207 l 1
 294.667 201.667 294 196.667 294 192 c 2
 294 177 l 2
 294 146.6 278.449 141.52 269 139 c 1
 246.92 135.846 221.986 147.522 189 197 c 0
 180.333 208.333 176 220.667 176 234 c 0
 176 267.027 200.016 269 231 269 c 0
 237 269 240.667 269.333 242 270 c 1
 242 422 l 1
 225.333 446 204.333 458 179 458 c 0
 129.261 458 55 410.993 55 301 c 0
 55 142.691 220.441 21 223 21 c 1
 213 5 l 1
 92.5024 66.5876 1 197.6 1 326 c 0
 1 429.809 70.3391 510 163 510 c 0
EndSplineSet
Ligature2: "'half' Half Forms in Gujarati lookup 4 subtable" u0AAD u0ACD
EndChar

StartChar: u0AAE.half
Encoding: 202 -1 202
Width: 282
Flags: HW
LayerCount: 2
Fore
SplineSet
90 467 m 0
 72 467 57.3692 448.554 45 430 c 1
 1 480 l 1
 17 500 38.3333 510 65 510 c 0
 87 510 107.667 503 127 489 c 0
 153.665 468.609 160 408.804 160 394 c 2
 160 270 l 1
 297 270 l 1
 297 207 l 1
 160 207 l 1
 158.667 201.667 158 196.667 158 192 c 2
 158 177 l 2
 158 146.6 142.449 141.52 133 139 c 1
 92.3812 133.397 40 190.63 40 233 c 0
 40 266.727 62.6831 269 95 269 c 0
 101 269 104.667 269.333 106 270 c 1
 106 462 l 1
 100.667 465.333 95.3333 467 90 467 c 0
EndSplineSet
Ligature2: "'half' Half Forms in Gujarati lookup 4 subtable" u0AAE u0ACD
EndChar

StartChar: u0AAF.half
Encoding: 205 -1 205
Width: 313
Flags: HW
LayerCount: 2
Fore
SplineSet
171 114 m 0
 231 114 282.543 153.582 321 227 c 1
 322 108 l 1
 307.381 95.7204 250.6 55 203 55 c 0
 77.2042 55 14.5748 192.784 1 331 c 1
 17 329 33 328 49 328 c 0
 165.5 328 189 371.2 189 400 c 0
 189 422.4 180.923 436.615 168 456 c 1
 34 456 l 1
 0 510 l 1
 151 510 l 1
 188.374 491.313 217 454.184 217 404 c 0
 217 326.83 149.095 274 40 274 c 1
 36.4018 239.218 99.0007 114 171 114 c 0
EndSplineSet
Ligature2: "'half' Half Forms in Gujarati lookup 4 subtable" u0AAF u0ACD
EndChar

StartChar: u0AB0
Encoding: 206 2736 206
Width: 380
Flags: HW
LayerCount: 2
Fore
SplineSet
101 279 m 1
 172.34 279 247 324.955 247 390 c 0
 247 410 239.667 431.667 225 455 c 1
 83 455 l 1
 54 510 l 1
 200 510 l 1
 245.895 490.154 282 437.518 282 371 c 0
 282 277.735 216.469 222.22 119 214 c 1
 129.38 155.87 142.08 93.8303 188 68 c 1
 191.333 67.3333 196 67 202 67 c 0
 230.4 67 254.589 80.3718 273 92 c 1
 294 17 l 1
 281.406 11.1873 252.6 1 225 1 c 0
 207 1 190.333 5 175 13 c 1
 149.667 31 131 61 119 103 c 1
 95 210 l 1
 54.0925 219.44 8 240.543 8 284 c 0
 8 295.809 16.5281 338 46 338 c 0
 54.5 338 78.5878 333.137 88.5 309.5 c 130
 101 279 l 1
EndSplineSet
EndChar

StartChar: u0AB0_u0A82
Encoding: 207 -1 207
Width: 11
Flags: HW
AnchorPoint: "abv" -219 549 mark 0
LayerCount: 2
Fore
SplineSet
-335 672 m 0
 -335 742.481 -273.243 778 -221 778 c 0
 -181.667 778 -154 763 -138 733 c 1
 -172 697 l 1
 -187.333 720.333 -210.333 732 -241 732 c 0
 -276.228 732 -302 712.488 -302 678 c 0
 -302 597.751 -252.054 563.403 -177 550 c 1
 -259 550 l 1
 -311.218 586.092 -335 623.2 -335 672 c 0
-234 673 m 1
 -217 656 l 1
 -234 640 l 1
 -249 656 l 1
 -234 673 l 1
EndSplineSet
EndChar

StartChar: u0AB0_u0ABF.pres
Encoding: 208 -1 208
Width: 146
Flags: HW
LayerCount: 2
Fore
SplineSet
395 732 m 0
 359.772 732 334 712.488 334 678 c 0
 334 652.667 338 632 346 616 c 1
 394 562 l 1
 380 544 l 1
 339.721 591.119 227.533 698 137 698 c 0
 54.645 698 55 592.377 55 510 c 2
 55 52 l 2
 55 44.6667 58 41 64 41 c 256
 78.4 41 94.414 63.0076 100 82 c 1
 151 27 l 1
 143.825 17.6729 125.4 2 87 2 c 0
 46.6 2 1 18 1 82 c 2
 1 620 l 2
 1 680.863 46.3145 745 126 745 c 0
 197.341 745 265.172 690.847 301 659 c 1
 301 738.282 364.33 778 419 778 c 0
 455.967 778 483.746 759.133 498 733 c 1
 464 697 l 1
 448.667 720.333 425.667 732 395 732 c 0
EndSplineSet
EndChar

StartChar: u0AB0_u0ABF.wide
Encoding: 209 -1 209
Width: 146
Flags: HW
LayerCount: 2
Fore
SplineSet
524 732 m 0
 501.35 732 464 721.2 464 678 c 0
 464 652.667 468 632 476 616 c 1
 523 562 l 1
 510 544 l 1
 445.85 618.842 266.02 702 157 702 c 0
 75.4 702 55 649.704 55 510 c 2
 55 52 l 2
 55 44.6667 58 41 64 41 c 256
 78.4 41 94.414 63.0076 100 82 c 1
 151 27 l 1
 143.825 17.6729 125.4 2 87 2 c 0
 46.6 2 1 18 1 82 c 2
 1 620 l 2
 1 667.894 29.1934 711.957 65 730.5 c 128
 83.6667 740.167 109 745 141 745 c 0
 249.951 745 377.583 689.743 429 643 c 1
 427 654.333 426 664.667 426 674 c 0
 426 747.821 486.366 779 540 779 c 0
 557.4 779 604.512 776.102 627 733 c 1
 593 697 l 1
 577.667 720.333 554.667 732 524 732 c 0
EndSplineSet
EndChar

StartChar: u0AB0_u0ABF_u0A82.pres
Encoding: 210 -1 210
Width: 146
Flags: HW
LayerCount: 2
Fore
SplineSet
395 732 m 0
 359.772 732 334 712.488 334 678 c 0
 334 652.667 338 632 346 616 c 1
 394 562 l 1
 380 544 l 1
 339.721 591.119 227.533 698 137 698 c 0
 54.645 698 55 592.377 55 510 c 2
 55 52 l 2
 55 44.6667 58 41 64 41 c 256
 78.4 41 94.414 63.0076 100 82 c 1
 151 27 l 1
 143.825 17.6729 125.4 2 87 2 c 0
 46.6 2 1 18 1 82 c 2
 1 620 l 2
 1 680.863 46.3145 745 126 745 c 0
 197.341 745 265.172 690.847 301 659 c 1
 301 738.282 364.33 778 419 778 c 0
 455.967 778 483.746 759.133 498 733 c 1
 464 697 l 1
 448.667 720.333 425.667 732 395 732 c 0
403 696 m 1
 438 661 l 1
 403 626 l 1
 369 661 l 1
 403 696 l 1
EndSplineSet
EndChar

StartChar: u0AB0_u0ABF_u0A82.wide
Encoding: 211 -1 211
Width: 146
Flags: HW
LayerCount: 2
Fore
SplineSet
543 696 m 1
 578 661 l 1
 543 626 l 1
 510 661 l 1
 543 696 l 1
525 732 m 0
 502.35 732 465 721.2 465 678 c 0
 465 652.667 469 632 477 616 c 1
 524 562 l 1
 511 544 l 1
 446.85 618.842 267.02 702 158 702 c 0
 76.4 702 56 649.704 56 510 c 2
 56 52 l 2
 56 44.6667 59 41 65 41 c 256
 79.4 41 95.414 63.0076 101 82 c 1
 152 27 l 1
 144.825 17.6729 126.4 2 88 2 c 0
 47.6 2 2 18 2 82 c 2
 2 620 l 2
 2 667.894 30.1934 711.957 66 730.5 c 128
 84.6667 740.167 110 745 142 745 c 0
 250.951 745 378.583 689.743 430 643 c 1
 428 654.333 427 664.667 427 674 c 0
 427 747.821 487.366 779 541 779 c 0
 558.4 779 605.512 776.102 628 733 c 1
 594 697 l 1
 578.667 720.333 555.667 732 525 732 c 0
EndSplineSet
EndChar

StartChar: u0AB0_u0AC0.psts
Encoding: 212 -1 212
Width: 255
Flags: HW
LayerCount: 2
Fore
SplineSet
33 711 m 1
 53.6823 745.471 96.7125 767 135 767 c 0
 151.4 767 194.368 763.492 217 722 c 1
 183 686 l 1
 167.667 709.333 144.667 721 114 721 c 0
 81.3333 721 61.6667 707.333 55 680 c 1
 66.4754 653.771 69 622.4 69 608 c 0
 68.3333 592.667 68 584 68 582 c 2
 68 51 l 2
 68 43.6667 71 40 77 40 c 256
 91.4 40 107.414 62.0076 113 81 c 1
 164 26 l 1
 156.825 16.6729 138.4 1 100 1 c 0
 59.6 1 14 17 14 81 c 2
 14 629 l 2
 14 656.2 -9.9 697 -97 697 c 0
 -168.566 697 -186.113 685.873 -190 647 c 1
 -190 550 l 1
 -244 597 l 1
 -244 682 l 2
 -244 732.699 -164.554 755 -99 755 c 0
 -52.3448 755 -0.902498 746.598 33 711 c 1
EndSplineSet
Ligature2: "'psts' Post Base Substitutions in Gujarati lookup 7 subtable" u0AB0_u0ACD u0AC0
EndChar

StartChar: u0AB0_u0AC0_u0A82.psts
Encoding: 213 -1 213
Width: 255
Flags: HW
LayerCount: 2
Fore
SplineSet
33 711 m 1
 53.6823 745.471 96.7125 767 135 767 c 0
 151.4 767 194.368 763.492 217 722 c 1
 183 686 l 1
 167.667 709.333 144.667 721 114 721 c 0
 81.3333 721 61.6667 707.333 55 680 c 1
 66.4754 653.771 69 622.4 69 608 c 0
 68.3333 592.667 68 584 68 582 c 2
 68 51 l 2
 68 43.6667 71 40 77 40 c 256
 91.4 40 107.414 62.0076 113 81 c 1
 164 26 l 1
 156.825 16.6729 138.4 1 100 1 c 0
 59.6 1 14 17 14 81 c 2
 14 629 l 2
 14 656.2 -9.9 697 -97 697 c 0
 -168.566 697 -186.113 685.873 -190 647 c 1
 -190 550 l 1
 -244 597 l 1
 -244 682 l 2
 -244 732.699 -164.554 755 -99 755 c 0
 -52.3448 755 -0.902498 746.598 33 711 c 1
122 676 m 1
 157 641 l 1
 122 606 l 1
 88 641 l 1
 122 676 l 1
EndSplineSet
Ligature2: "'psts' Post Base Substitutions in Gujarati lookup 8 subtable" u0AB0_u0AC0.psts u0A82
EndChar

StartChar: u0AB0_u0AC1.psts
Encoding: 214 -1 214
Width: 380
Flags: HW
LayerCount: 2
Fore
SplineSet
385 255 m 0
 385 286.86 359.66 325 315 325 c 0
 298.333 325 283.667 321 271 313 c 1
 255.091 270.575 213.296 223.275 119 214 c 1
 129.38 155.87 142.08 93.8303 188 68 c 1
 191.333 67.3333 196 67 202 67 c 0
 230.4 67 254.589 80.3718 273 92 c 1
 294 17 l 1
 281.406 11.1873 252.6 1 225 1 c 0
 207 1 190.333 5 175 13 c 1
 149.667 31 131 61 119 103 c 1
 95 210 l 1
 54.0925 219.44 8 240.543 8 284 c 0
 8 295.809 16.5281 338 46 338 c 0
 54.5 338 78.5878 333.137 88.5 309.5 c 130
 101 279 l 1
 172.34 279 247 324.955 247 390 c 0
 247 410 239.667 431.667 225 455 c 1
 83 455 l 1
 54 509 l 1
 200 509 l 1
 249.467 488.706 282 429.787 282 359 c 1
 300 362 l 1
 363.331 362 423 301.641 423 229 c 0
 423 169.6 381.481 139.038 369 130 c 1
 323 161 l 1
 364.333 189.667 385 221 385 255 c 0
EndSplineSet
Ligature2: "'psts' Post Base Substitutions in Gujarati lookup 7 subtable" u0AB0 u0AC1
EndChar

StartChar: u0AB0_matra_u0AC1.psts
Encoding: 215 -1 215
Width: 11
Flags: HW
AnchorPoint: "blw" -188 -26 mark 0
LayerCount: 2
Fore
SplineSet
-163 -149 m 0
 -138.7 -149 -88 -171.35 -88 -242 c 0
 -88 -310.8 -141.842 -328 -183 -328 c 0
 -247.8 -328 -308.88 -277.89 -345 -211 c 1
 -330 -200 l 1
 -302.288 -244.087 -237.677 -286 -175 -286 c 1
 -201.108 -267.351 -220 -241 -220 -211 c 0
 -220 -177.403 -193.875 -149 -163 -149 c 0
-190 -228 m 0
 -190 -258.369 -133.33 -289 -122 -289 c 0
 -111.333 -289 -106 -280.667 -106 -264 c 0
 -106 -229.492 -117.014 -203.989 -126 -197 c 128
 -132 -192.333 -139.333 -190 -148 -190 c 0
 -168.848 -190 -190 -208.716 -190 -228 c 0
-188 -32 m 1
 -26 -176 l 1
 -47 -202 l 1
 -165 -101 l 1
 -269 -198 l 1
 -314 -152 l 1
 -188 -32 l 1
EndSplineSet
EndChar

StartChar: u0AB0_u0AC2.blwf
Encoding: 216 -1 216
Width: 11
Flags: HW
AnchorPoint: "blw" -189 -27 mark 0
LayerCount: 2
Fore
SplineSet
-189 -32 m 1
 -27 -176 l 1
 -48 -202 l 1
 -166 -101 l 1
 -270 -198 l 1
 -315 -152 l 1
 -189 -32 l 1
-254 -255 m 256
 -254 -204.985 -202.253 -167 -156 -167 c 0
 -91.043 -167 -24 -270.078 -24 -373 c 0
 -24 -379 -24.6667 -387.333 -26 -398 c 1
 -30 -400.667 -33.3333 -402 -36 -402 c 0
 -40 -402 -43.3333 -401 -46 -399 c 1
 -38.8573 -347.572 -90.0422 -254.627 -119 -237 c 1
 -125.988 -274.267 -149.952 -315 -191 -315 c 0
 -241.4 -315 -254 -279 -254 -255 c 256
-221 -238 m 0
 -221 -257.624 -200.934 -277 -179 -277 c 0
 -150.2 -277 -144.717 -250.154 -143 -242 c 0
 -139 -226 -137 -213 -137 -203 c 0
 -137 -186.333 -142.333 -178 -153 -178 c 256
 -166.178 -178 -221 -208.077 -221 -238 c 0
EndSplineSet
EndChar

StartChar: u0AB0_u0AC2.blws
Encoding: 217 -1 217
Width: 443
Flags: HW
LayerCount: 2
Fore
SplineSet
60 136 m 0
 85.9419 136 99.3597 105.532 139 54 c 1
 209.45 54 252 97.8125 252 160 c 0
 252 201.333 237.333 232.333 208 253 c 1
 192.844 244.085 166.804 236 116 236 c 1
 104 300 l 1
 223.734 300 260 359.4 260 399 c 0
 260 420.333 250.667 439.333 232 456 c 1
 111 456 l 1
 91 510 l 1
 182 510 l 2
 230.736 510 289 457.665 289 394 c 0
 289 328.451 273.7 296.972 232 267 c 1
 263.436 237.66 292 191.757 292 135 c 0
 292 64.768 246.884 1 155 1 c 1
 172.693 -40.7058 217.204 -75 269 -75 c 0
 289.643 -75 317.495 -60.8159 338 -48 c 1
 357 -105 l 1
 329.667 -120.333 303.667 -128 279 -128 c 0
 187.8 -128 136.366 -19.0162 127 0 c 1
 64.2578 0 12 48.3238 12 89 c 0
 12 119.6 41.975 136 60 136 c 0
EndSplineSet
Ligature2: "'blws' Below Base Substitutions in Gujarati lookup 6 subtable" u0AB0 u0AC2
EndChar

StartChar: u0AB0_u0AC2.psts
Encoding: 218 -1 218
Width: 653
Flags: HW
LayerCount: 2
Fore
SplineSet
535 207 m 1
 513.738 260.579 475.995 319 398 319 c 0
 352 319 330.667 302 334 268 c 1
 334 242 344 229 364 229 c 0
 369.333 229 375.333 230.667 382 234 c 1
 404 200 l 1
 392.667 192 381.333 188 370 188 c 0
 339.061 188 316.212 210.192 308 236 c 1
 279.311 254.648 272.794 262.727 256 284 c 1
 228.533 245.546 183.834 219.293 119 214 c 1
 129.38 155.87 142.08 93.8303 188 68 c 1
 191.333 67.3333 196 67 202 67 c 0
 230.4 67 254.589 80.3718 273 92 c 1
 294 17 l 1
 281.406 11.1873 252.6 1 225 1 c 0
 207 1 190.333 5 175 13 c 1
 149.667 31 131 61 119 103 c 1
 95 210 l 1
 54.0925 219.44 8 240.543 8 284 c 0
 8 295.809 16.5281 338 46 338 c 0
 54.5 338 78.5878 333.137 88.5 309.5 c 130
 101 279 l 1
 172.34 279 247 324.955 247 390 c 0
 247 410 239.667 431.667 225 455 c 1
 83 455 l 1
 54 509 l 1
 200 509 l 1
 246.163 490.285 282 435.839 282 370 c 0
 282 345.333 277.333 323.333 268 304 c 1
 281.725 290.275 289 285 303 285 c 1
 308.443 335.803 340.131 361 393 361 c 0
 471.989 361 527.231 290.306 552 216 c 1
 548.667 214 543 211 535 207 c 1
EndSplineSet
Ligature2: "'psts' Post Base Substitutions in Gujarati lookup 7 subtable" u0AB0 u0AC2
LCarets2: 1 0
EndChar

StartChar: u0AB0_u0AC7
Encoding: 219 -1 219
Width: 11
Flags: HW
AnchorPoint: "abv" -220 518 mark 0
LayerCount: 2
Fore
SplineSet
-249 723 m 0
 -268.55 723 -304 713.2 -304 674 c 0
 -304 660 -302.333 646.333 -299 633 c 1
 -215 539 l 1
 -245 522 l 1
 -373 662 l 1
 -378.333 664.667 -384.333 666 -391 666 c 0
 -412.2 666 -434.904 652.593 -444 637 c 1
 -499 714 l 1
 -487.667 730.667 -469 739 -443 739 c 0
 -410.914 739 -381.626 725.813 -365 708 c 2
 -334 673 l 1
 -334 733.361 -281.277 764 -231 764 c 0
 -186 764 -165.929 741.376 -156 724 c 1
 -187 692 l 1
 -199.667 712.667 -220.333 723 -249 723 c 0
EndSplineSet
EndChar

StartChar: u0AB0_u0AC7_u0A82
Encoding: 220 -1 220
Width: 11
Flags: HW
AnchorPoint: "abv" -224 520 mark 0
LayerCount: 2
Fore
SplineSet
-249 723 m 0
 -268.55 723 -304 713.2 -304 674 c 0
 -304 660 -302.333 646.333 -299 633 c 1
 -215 539 l 1
 -245 522 l 1
 -373 662 l 1
 -378.333 664.667 -384.333 666 -391 666 c 0
 -412.2 666 -434.904 652.593 -444 637 c 1
 -499 714 l 1
 -487.667 730.667 -469 739 -443 739 c 0
 -410.914 739 -381.626 725.813 -365 708 c 2
 -334 673 l 1
 -334 733.361 -281.277 764 -231 764 c 0
 -186 764 -165.929 741.376 -156 724 c 1
 -187 692 l 1
 -199.667 712.667 -220.333 723 -249 723 c 0
-236 686 m 1
 -201 651 l 1
 -236 616 l 1
 -270 651 l 1
 -236 686 l 1
EndSplineSet
EndChar

StartChar: u0AB0_u0AC8
Encoding: 221 -1 221
Width: 11
Flags: HW
AnchorPoint: "abv" -276 519 mark 0
LayerCount: 2
Fore
SplineSet
-592 640 m 1
 -582.914 667.259 -552.333 684 -515 684 c 0
 -495 684 -477.333 679.333 -462 670 c 2
 -273 545 l 1
 -297 520 l 1
 -458 621 l 1
 -488.461 627.092 -515.569 599.443 -519 580 c 1
 -592 640 l 1
-276 718 m 1
 -258.534 745.446 -220.2 769 -183 769 c 0
 -156.333 769 -136 759.667 -122 741 c 1
 -146 704 l 1
 -160 718 -177.333 725 -198 725 c 0
 -230.896 725 -259 705.726 -259 675 c 1
 -202 529 l 1
 -235 524 l 1
 -309 699 l 1
 -318.333 708.333 -330.333 713 -345 713 c 0
 -358.882 713 -374.67 705.95 -383 700 c 1
 -408 791 l 1
 -398.667 797.667 -387.333 801 -374 801 c 0
 -338 801 -298.365 772.953 -284 739 c 1
 -276 718 l 1
EndSplineSet
EndChar

StartChar: u0AB0_u0ACD
Encoding: 222 -1 222
Width: 11
Flags: HW
AnchorPoint: "abv" -225 548 mark 0
LayerCount: 2
Fore
SplineSet
-338 672 m 0
 -338 742.481 -276.243 778 -224 778 c 0
 -184.667 778 -157 763 -141 733 c 1
 -175 697 l 1
 -190.333 720.333 -213.333 732 -244 732 c 0
 -279.228 732 -305 712.488 -305 678 c 0
 -305 597.751 -255.054 563.403 -180 550 c 1
 -262 550 l 1
 -300.103 565.241 -332.979 624.851 -335.5 642.5 c 128
 -337.167 654.167 -338 664 -338 672 c 0
EndSplineSet
Ligature2: "'rphf' Reph Form in Gujarati lookup 1 subtable" u0AB0 u0ACD
LCarets2: 1 0
EndChar

StartChar: u0AB2.half
Encoding: 224 -1 224
Width: 363
Flags: HW
LayerCount: 2
Fore
SplineSet
381 330 m 1
 396 269 l 1
 139 202 l 1
 122 265 l 1
 381 330 l 1
1 255 m 0
 1 391.965 34.5506 489.048 138 510 c 1
 228 510 l 1
 259 446 l 1
 239 451.333 220.667 454 204 454 c 0
 100.078 454 41 365.907 41 251 c 0
 41 149.773 73.4303 67 170 67 c 0
 217.683 67 259.416 90.4886 276 105 c 1
 302 31 l 1
 273.427 14.6725 236.6 1 193 1 c 0
 77.8 1 1 101.85 1 255 c 0
EndSplineSet
Ligature2: "'half' Half Forms in Gujarati lookup 4 subtable" u0AB2 u0ACD
EndChar

StartChar: u0AB3
Encoding: 225 2739 225
Width: 608
Flags: HW
LayerCount: 2
Fore
SplineSet
205 420 m 2
 205 464.636 259.814 510 314 510 c 0
 352.757 510 390.691 484.972 405 440 c 0
 407.667 430.667 409.667 417 411 399 c 1
 412 51 l 2
 412 43.6667 415 40 421 40 c 256
 435.4 40 451.414 62.0076 457 81 c 1
 508 26 l 1
 500.825 16.6729 482.4 1 444 1 c 0
 403.6 1 358 17 358 81 c 2
 358 435 l 2
 358 457.77 337.528 474 317 474 c 0
 294.6 474 261 456.788 261 384 c 2
 261 155 l 2
 261 118.184 220.245 69 156 69 c 0
 125.2 69 106.491 74.6571 79 89 c 1
 29.4903 126.434 1 180.506 1 260 c 0
 1 308 10.3333 353.333 29 396 c 0
 45 434.667 70 472.667 104 510 c 1
 151 454 l 1
 101.261 400.708 44 292.315 44 205 c 0
 44 118.373 102.435 102 125 102 c 0
 163.076 102 205 138.177 205 169 c 2
 205 420 l 2
EndSplineSet
EndChar

StartChar: u0AB3.half
Encoding: 226 -1 226
Width: 404
Flags: HW
LayerCount: 2
Fore
SplineSet
205 347 m 2
 205 399.191 261.184 437 315 437 c 0
 321.8 437 329.128 435.961 349 430 c 1
 350 384 l 1
 344 384.667 339.333 385 336 385 c 0
 299.9 385 261 372.8 261 324 c 2
 261 155 l 2
 261 120.79 224.953 67 160 67 c 0
 143.8 67 115.915 70.5424 79 89 c 0
 26.3459 116.876 1 202.771 1 260 c 0
 1 310 10.3333 356 29 398 c 0
 44.3333 434.667 69.3333 472 104 510 c 1
 151 454 l 1
 100.166 398.93 43 282.224 43 204 c 0
 43 146.649 70.8563 104 128 104 c 0
 168.85 104 205 131.633 205 169 c 2
 205 347 l 2
EndSplineSet
Ligature2: "'half' Half Forms in Gujarati lookup 4 subtable" u0AB3 u0ACD
EndChar

StartChar: u0AB5.half
Encoding: 228 -1 228
Width: 275
Flags: HW
LayerCount: 2
Fore
SplineSet
177 155 m 0
 230.099 155 275.238 205.823 282 234 c 1
 283 139 l 1
 212.932 110.973 199.8 110 179 110 c 0
 109.031 110 1 170.373 1 318 c 0
 1 412.211 37.828 480.698 108 502 c 1
 142.841 505.484 158.757 510 178 510 c 1
 197 456 l 1
 139.539 456 95.4507 456.789 59 393 c 0
 45.3006 368.092 34 331.494 34 294 c 0
 34 205.135 85.2891 155 177 155 c 0
EndSplineSet
Ligature2: "'half' Half Forms in Gujarati lookup 4 subtable" u0AB5 u0ACD
EndChar

StartChar: u0AB6.althalf
Encoding: 231 -1 231
Width: 309
Flags: HW
LayerCount: 2
Fore
SplineSet
175 457 m 0
 149.8 457 112 413.525 112 368 c 0
 112 351.45 119 331 147 331 c 0
 187.728 331 208 365.976 208 403 c 0
 208 428.252 195.828 457 175 457 c 0
239 387 m 0
 239 340.292 223.149 307.03 195 285 c 1
 322 118 l 1
 322 81 l 1
 173 271 l 1
 34 185 l 1
 1 238 l 1
 133 318 l 1
 105.667 346.667 92 384.333 92 431 c 0
 92 491.086 116 511 152 511 c 0
 205.95 511 239 448.738 239 387 c 0
EndSplineSet
EndChar

